BriemScript-ExtraLight.ufo
<glyph name="exclam" format="2">
  <advance width="271.5267857142857"/>
  <unicode hex="0021"/>
  <outline>
    <contour>
      <point x="124.69107142857143" y="199.60714285714286" type="curve" smooth="yes"/>
      <point x="139.52857142857144" y="199.60714285714286"/>
      <point x="157.0625" y="203.52857142857144"/>
      <point x="157.5232142857143" y="211.21785714285716" type="curve" smooth="yes"/>
      <point x="157.75357142857143" y="240.06607142857143"/>
      <point x="199.2125" y="559.8553571428571"/>
      <point x="199.2125" y="628.3178571428572" type="curve" smooth="yes"/>
      <point x="199.2125" y="641.5392857142857"/>
      <point x="165.60892857142858" y="652.0"/>
      <point x="144.38571428571427" y="652.0" type="curve" smooth="yes"/>
      <point x="134.54285714285714" y="652.0"/>
      <point x="125.08214285714286" y="649.5392857142857"/>
      <point x="125.08214285714286" y="640.6946428571429" type="curve" smooth="yes"/>
      <point x="125.08214285714286" y="619.1607142857143"/>
      <point x="109.77142857142857" y="251.22142857142856"/>
      <point x="109.77142857142857" y="205.22142857142856" type="curve" smooth="yes"/>
      <point x="109.77142857142857" y="200.8375"/>
      <point x="117.0" y="199.60714285714286"/>
    </contour>
    <contour>
      <point x="114.60892857142858" y="-0.07678571428571429" type="curve" smooth="yes"/>
      <point x="142.06607142857143" y="-0.07678571428571429"/>
      <point x="163.98392857142858" y="17.460714285714285"/>
      <point x="163.98392857142858" y="44.99285714285714" type="curve" smooth="yes"/>
      <point x="163.98392857142858" y="79.68392857142857"/>
      <point x="147.37142857142857" y="98.60178571428571"/>
      <point x="130.22321428571428" y="98.60178571428571" type="curve" smooth="yes"/>
      <point x="109.68928571428572" y="98.60178571428571"/>
      <point x="79.77142857142857" y="74.98928571428571"/>
      <point x="79.77142857142857" y="39.14642857142857" type="curve" smooth="yes"/>
      <point x="79.77142857142857" y="12.767857142857142"/>
      <point x="90.68928571428572" y="-0.07678571428571429"/>
    </contour>
  </outline>
</glyph>
<glyph name="quotedbl" format="2">
  <advance width="325.2892857142857"/>
  <unicode hex="0022"/>
  <outline>
    <contour>
      <point x="250.52857142857144" y="448.92857142857144" type="curve" smooth="yes"/>
      <point x="261.29464285714283" y="448.92857142857144"/>
      <point x="266.98571428571427" y="457.0053571428571"/>
      <point x="281.6767857142857" y="494.4660714285714" type="curve" smooth="yes"/>
      <point x="295.2125" y="529.6160714285714"/>
      <point x="327.75" y="624.9267857142858"/>
      <point x="327.75" y="636.6178571428571" type="curve" smooth="yes"/>
      <point x="327.75" y="649.4625"/>
      <point x="315.90714285714284" y="651.9232142857143"/>
      <point x="292.375" y="651.9232142857143" type="curve" smooth="yes"/>
      <point x="266.84285714285716" y="651.9232142857143"/>
      <point x="253.5375" y="645.6160714285714"/>
      <point x="251.69107142857143" y="623.8482142857143" type="curve" smooth="yes"/>
      <point x="248.92142857142858" y="589.5392857142857"/>
      <point x="237.6875" y="485.69107142857143"/>
      <point x="237.91785714285714" y="469.8464285714286" type="curve" smooth="yes"/>
      <point x="238.30178571428573" y="452.54285714285714"/>
      <point x="242.53214285714284" y="448.92857142857144"/>
    </contour>
    <contour>
      <point x="69.61071428571428" y="449.0053571428571" type="curve" smooth="yes"/>
      <point x="80.37678571428572" y="449.0053571428571"/>
      <point x="86.06785714285715" y="457.08214285714286"/>
      <point x="100.75892857142857" y="494.54285714285714" type="curve" smooth="yes"/>
      <point x="114.29464285714286" y="529.6928571428572"/>
      <point x="146.83214285714286" y="625.0035714285714"/>
      <point x="146.83214285714286" y="636.6946428571429" type="curve" smooth="yes"/>
      <point x="146.83214285714286" y="649.5392857142857"/>
      <point x="134.98928571428573" y="652.0"/>
      <point x="111.45714285714286" y="652.0" type="curve" smooth="yes"/>
      <point x="85.925" y="652.0"/>
      <point x="72.61964285714285" y="645.6928571428572"/>
      <point x="70.77321428571429" y="623.925" type="curve" smooth="yes"/>
      <point x="68.00357142857143" y="589.6160714285714"/>
      <point x="56.769642857142856" y="485.76785714285717"/>
      <point x="57.0" y="469.92321428571427" type="curve" smooth="yes"/>
      <point x="57.38392857142857" y="452.6196428571429"/>
      <point x="61.614285714285714" y="449.0053571428571"/>
    </contour>
  </outline>
</glyph>
<glyph name="numbersign" format="2">
  <advance width="559.575"/>
  <unicode hex="0023"/>
  <outline>
    <contour>
      <point x="175.90535714285716" y="-13.0" type="curve" smooth="yes"/>
      <point x="187.05535714285713" y="-13.0"/>
      <point x="188.3625" y="-9.616071428571429"/>
      <point x="188.3625" y="-3.3875" type="curve" smooth="yes"/>
      <point x="188.3625" y="50.84464285714286"/>
      <point x="191.28571428571428" y="121.76964285714286"/>
      <point x="195.13214285714287" y="194.69464285714287" type="curve"/>
      <point x="354.5964285714286" y="194.69464285714287" type="line"/>
      <point x="348.67321428571427" y="96.38392857142857"/>
      <point x="342.9035714285714" y="21.6875"/>
      <point x="342.9035714285714" y="16.610714285714288" type="curve" smooth="yes"/>
      <point x="342.9035714285714" y="-3.232142857142857"/>
      <point x="370.20178571428573" y="-13.0"/>
      <point x="395.6589285714286" y="-13.0" type="curve" smooth="yes"/>
      <point x="405.8857142857143" y="-13.0"/>
      <point x="408.11607142857144" y="-9.616071428571429"/>
      <point x="408.11607142857144" y="-3.3875" type="curve" smooth="yes"/>
      <point x="408.11607142857144" y="50.84464285714286"/>
      <point x="410.11607142857144" y="121.76964285714286"/>
      <point x="413.9625" y="194.69464285714287" type="curve"/>
      <point x="500.2714285714286" y="194.69464285714287" type="line" smooth="yes"/>
      <point x="516.1946428571429" y="194.69464285714287"/>
      <point x="523.5017857142857" y="213.925"/>
      <point x="523.5017857142857" y="233.30714285714285" type="curve" smooth="yes"/>
      <point x="523.5017857142857" y="240.6125"/>
      <point x="520.5017857142857" y="242.68928571428572"/>
      <point x="515.1178571428571" y="242.68928571428572" type="curve" smooth="yes"/>
      <point x="414.26964285714286" y="242.68928571428572" type="line"/>
      <point x="416.26964285714286" y="300.76785714285717"/>
      <point x="420.1928571428571" y="357.76964285714286"/>
      <point x="424.0392857142857" y="409.54107142857146" type="curve"/>
      <point x="515.2714285714286" y="409.54107142857146" type="line" smooth="yes"/>
      <point x="531.1946428571429" y="409.54107142857146"/>
      <point x="538.5017857142857" y="427.8482142857143"/>
      <point x="538.5017857142857" y="447.23035714285714" type="curve" smooth="yes"/>
      <point x="538.5017857142857" y="454.5357142857143"/>
      <point x="535.5017857142857" y="456.6125"/>
      <point x="530.1178571428571" y="456.6125" type="curve" smooth="yes"/>
      <point x="425.26964285714286" y="456.6125" type="line"/>
      <point x="431.9625" y="549.1553571428572"/>
      <point x="437.73214285714283" y="618.2357142857143"/>
      <point x="437.73214285714283" y="623.3125" type="curve" smooth="yes"/>
      <point x="437.73214285714283" y="643.2321428571429"/>
      <point x="410.43392857142857" y="652.0"/>
      <point x="385.9767857142857" y="652.0" type="curve" smooth="yes"/>
      <point x="374.75" y="652.0"/>
      <point x="373.51964285714286" y="649.6160714285714"/>
      <point x="373.51964285714286" y="643.3107142857143" type="curve" smooth="yes"/>
      <point x="371.67321428571427" y="608.7732142857143"/>
      <point x="368.82678571428573" y="538.3857142857142"/>
      <point x="364.9035714285714" y="456.6125" type="curve"/>
      <point x="206.43928571428572" y="456.6125" type="line"/>
      <point x="212.20892857142857" y="549.1553571428572"/>
      <point x="218.90178571428572" y="618.2357142857143"/>
      <point x="218.90178571428572" y="623.3125" type="curve" smooth="yes"/>
      <point x="218.90178571428572" y="643.2321428571429"/>
      <point x="191.60357142857143" y="652.0"/>
      <point x="166.22321428571428" y="652.0" type="curve" smooth="yes"/>
      <point x="155.91964285714286" y="652.0"/>
      <point x="153.76607142857142" y="649.6160714285714"/>
      <point x="153.76607142857142" y="643.3107142857143" type="curve" smooth="yes"/>
      <point x="152.84285714285716" y="608.7732142857143"/>
      <point x="149.07321428571427" y="538.3857142857142"/>
      <point x="146.07321428571427" y="456.6125" type="curve"/>
      <point x="60.07142857142857" y="456.6125" type="line" smooth="yes"/>
      <point x="43.225" y="456.6125"/>
      <point x="36.84107142857143" y="437.38214285714287"/>
      <point x="36.84107142857143" y="418.0" type="curve" smooth="yes"/>
      <point x="36.84107142857143" y="410.69464285714287"/>
      <point x="39.84107142857143" y="409.54107142857146"/>
      <point x="45.225" y="409.54107142857146" type="curve" smooth="yes"/>
      <point x="145.76607142857142" y="409.54107142857146" type="line"/>
      <point x="136.07321428571427" y="242.68928571428572" type="line"/>
      <point x="45.07142857142857" y="242.68928571428572" type="line" smooth="yes"/>
      <point x="28.225" y="242.68928571428572"/>
      <point x="21.84107142857143" y="223.45892857142857"/>
      <point x="21.84107142857143" y="204.0767857142857" type="curve" smooth="yes"/>
      <point x="21.84107142857143" y="196.77142857142857"/>
      <point x="23.917857142857144" y="194.69464285714287"/>
      <point x="29.301785714285714" y="194.69464285714287" type="curve" smooth="yes"/>
      <point x="135.68928571428572" y="194.69464285714287" type="line"/>
      <point x="128.91964285714286" y="96.84464285714286"/>
      <point x="124.07321428571429" y="21.764285714285712"/>
      <point x="124.07321428571429" y="16.610714285714288" type="curve" smooth="yes"/>
      <point x="124.07321428571429" y="-3.232142857142857"/>
      <point x="151.37142857142857" y="-13.0"/>
    </contour>
    <contour>
      <point x="193.59285714285716" y="239.91964285714286" type="line"/>
      <point x="203.28571428571428" y="411.3875" type="line"/>
      <point x="365.51964285714286" y="411.3875" type="line"/>
      <point x="355.82678571428573" y="239.91964285714286" type="line"/>
    </contour>
  </outline>
</glyph>
<glyph name="dollar" format="2">
  <advance width="518.9178571428571"/>
  <unicode hex="0024"/>
  <outline>
    <contour>
      <point x="273.06964285714287" y="-171.98928571428573" type="curve" smooth="yes"/>
      <point x="283.14285714285717" y="-171.98928571428573"/>
      <point x="284.2964285714286" y="-168.52857142857144"/>
      <point x="284.2964285714286" y="-161.99285714285713" type="curve" smooth="yes"/>
      <point x="284.2964285714286" y="-118.84107142857142"/>
      <point x="285.9892857142857" y="-64.075"/>
      <point x="287.9892857142857" y="-7.308928571428572" type="curve"/>
      <point x="364.8339285714286" y="11.458928571428572"/>
      <point x="440.0678571428571" y="78.84285714285714"/>
      <point x="440.0678571428571" y="176.91964285714286" type="curve" smooth="yes"/>
      <point x="440.0678571428571" y="220.6875"/>
      <point x="421.68392857142857" y="254.30178571428573"/>
      <point x="389.68392857142857" y="285.6089285714286" type="curve" smooth="yes"/>
      <point x="356.91607142857146" y="317.7607142857143"/>
      <point x="259.21785714285716" y="377.5339285714286"/>
      <point x="225.29464285714286" y="411.3803571428571" type="curve" smooth="yes"/>
      <point x="195.36964285714285" y="441.22857142857146"/>
      <point x="180.67678571428573" y="472.0"/>
      <point x="180.67678571428573" y="508.3875" type="curve" smooth="yes"/>
      <point x="180.67678571428573" y="581.625"/>
      <point x="233.9125" y="606.1660714285714"/>
      <point x="268.8375" y="606.1660714285714" type="curve" smooth="yes"/>
      <point x="340.45714285714286" y="606.1660714285714"/>
      <point x="380.91785714285714" y="569.0857142857143"/>
      <point x="404.9946428571429" y="546.0839285714286" type="curve" smooth="yes"/>
      <point x="417.37857142857143" y="534.3910714285714"/>
      <point x="424.8392857142857" y="525.4678571428572"/>
      <point x="431.2232142857143" y="525.4678571428572" type="curve" smooth="yes"/>
      <point x="441.60714285714283" y="525.4678571428572"/>
      <point x="446.9142857142857" y="541.4660714285715"/>
      <point x="446.9142857142857" y="570.3875" type="curve" smooth="yes"/>
      <point x="446.9142857142857" y="578.0767857142857"/>
      <point x="444.68392857142857" y="587.7678571428571"/>
      <point x="436.45714285714286" y="594.6892857142857" type="curve" smooth="yes"/>
      <point x="407.07142857142856" y="626.0"/>
      <point x="362.4535714285714" y="644.6160714285714"/>
      <point x="318.0678571428571" y="649.6928571428572" type="curve"/>
      <point x="322.8375" y="720.85"/>
      <point x="327.60714285714283" y="772.3910714285714"/>
      <point x="327.60714285714283" y="776.4678571428572" type="curve" smooth="yes"/>
      <point x="327.60714285714283" y="796.925"/>
      <point x="301.8464285714286" y="806.0"/>
      <point x="276.85" y="806.0" type="curve" smooth="yes"/>
      <point x="267.7" y="806.0"/>
      <point x="265.6232142857143" y="803.4625"/>
      <point x="265.6232142857143" y="796.9267857142858" type="curve" smooth="yes"/>
      <point x="264.7" y="768.2357142857143"/>
      <point x="262.93035714285713" y="713.9267857142858"/>
      <point x="260.1607142857143" y="650.2321428571429" type="curve"/>
      <point x="153.69642857142858" y="638.9267857142858"/>
      <point x="109.775" y="561.3107142857143"/>
      <point x="109.775" y="483.1607142857143" type="curve" smooth="yes"/>
      <point x="109.775" y="429.2392857142857"/>
      <point x="133.61964285714285" y="391.54821428571427"/>
      <point x="166.31071428571428" y="361.0107142857143" type="curve" smooth="yes"/>
      <point x="212.54285714285714" y="317.7785714285714"/>
      <point x="298.93392857142857" y="268.62142857142857"/>
      <point x="332.39642857142854" y="232.3125" type="curve" smooth="yes"/>
      <point x="355.78214285714284" y="207.08035714285714"/>
      <point x="371.32142857142856" y="179.00178571428572"/>
      <point x="371.32142857142856" y="141.61428571428573" type="curve" smooth="yes"/>
      <point x="371.32142857142856" y="66.06785714285715"/>
      <point x="301.08214285714286" y="35.526785714285715"/>
      <point x="261.4660714285714" y="35.526785714285715" type="curve" smooth="yes"/>
      <point x="192.15714285714284" y="35.526785714285715"/>
      <point x="141.69285714285715" y="67.99107142857143"/>
      <point x="112.07678571428572" y="92.91607142857143" type="curve" smooth="yes"/>
      <point x="94.38392857142857" y="108.225"/>
      <point x="86.15357142857142" y="119.91785714285714"/>
      <point x="81.38571428571429" y="119.91785714285714" type="curve" smooth="yes"/>
      <point x="70.00178571428572" y="119.91785714285714"/>
      <point x="65.54107142857143" y="80.83928571428571"/>
      <point x="65.54107142857143" y="69.45892857142857" type="curve" smooth="yes"/>
      <point x="65.54107142857143" y="62.61607142857143"/>
      <point x="66.925" y="51.385714285714286"/>
      <point x="76.15178571428571" y="43.31071428571428" type="curve" smooth="yes"/>
      <point x="105.69107142857143" y="15.4625"/>
      <point x="155.61607142857142" y="-10.4625"/>
      <point x="231.15892857142856" y="-12.692857142857143" type="curve"/>
      <point x="226.3125" y="-85.075"/>
      <point x="223.2357142857143" y="-137.2267857142857"/>
      <point x="223.2357142857143" y="-141.53392857142856" type="curve" smooth="yes"/>
      <point x="223.2357142857143" y="-161.99107142857142"/>
      <point x="249.91964285714286" y="-171.98928571428573"/>
    </contour>
  </outline>
</glyph>
<glyph name="percent" format="2">
  <advance width="891.8839285714286"/>
  <unicode hex="0025"/>
  <outline>
    <contour>
      <point x="254.4232142857143" y="-34.07678571428571" type="curve" smooth="yes"/>
      <point x="262.80535714285713" y="-34.07678571428571"/>
      <point x="271.34285714285716" y="-29.15357142857143"/>
      <point x="278.26428571428573" y="-16.542857142857144" type="curve" smooth="yes"/>
      <point x="327.26785714285717" y="68.46071428571429"/>
      <point x="657.9071428571428" y="579.3196428571429"/>
      <point x="687.525" y="622.1678571428571" type="curve" smooth="yes"/>
      <point x="697.6017857142857" y="636.9357142857143"/>
      <point x="700.1375" y="644.7"/>
      <point x="700.1375" y="647.2375" type="curve" smooth="yes"/>
      <point x="700.1375" y="659.0803571428571"/>
      <point x="674.1482142857143" y="675.0"/>
      <point x="653.6125" y="675.0" type="curve" smooth="yes"/>
      <point x="645.2303571428571" y="675.0"/>
      <point x="636.7696428571429" y="670.0767857142857"/>
      <point x="629.7714285714286" y="657.4660714285715" type="curve" smooth="yes"/>
      <point x="498.0607142857143" y="455.66964285714283"/>
      <point x="351.75892857142856" y="219.47321428571428"/>
      <point x="217.74107142857142" y="15.985714285714286" type="curve" smooth="yes"/>
      <point x="210.20357142857142" y="3.5267857142857144"/>
      <point x="207.8982142857143" y="-1.0071428571428571"/>
      <point x="207.8982142857143" y="-6.314285714285714" type="curve" smooth="yes"/>
      <point x="207.8982142857143" y="-18.080357142857142"/>
      <point x="235.4232142857143" y="-34.07678571428571"/>
    </contour>
    <contour>
      <point x="197.7607142857143" y="275.92321428571427" type="curve" smooth="yes"/>
      <point x="315.6" y="275.92321428571427"/>
      <point x="373.67321428571427" y="358.92321428571427"/>
      <point x="373.67321428571427" y="494.8464285714286" type="curve" smooth="yes"/>
      <point x="373.67321428571427" y="600.9232142857143"/>
      <point x="313.6" y="651.9232142857143"/>
      <point x="229.8357142857143" y="651.9232142857143" type="curve" smooth="yes"/>
      <point x="111.91964285714286" y="651.9232142857143"/>
      <point x="53.0" y="568.9232142857143"/>
      <point x="53.0" y="432.92321428571427" type="curve" smooth="yes"/>
      <point x="53.0" y="326.92321428571427"/>
      <point x="113.99642857142857" y="275.92321428571427"/>
    </contour>
    <contour>
      <point x="201.8357142857143" y="308.6125" type="curve" smooth="yes"/>
      <point x="153.21607142857144" y="308.6125"/>
      <point x="121.52142857142857" y="360.9982142857143"/>
      <point x="121.52142857142857" y="436.1535714285714" type="curve" smooth="yes"/>
      <point x="121.52142857142857" y="544.0017857142857"/>
      <point x="157.0625" y="618.0035714285714"/>
      <point x="224.06785714285715" y="618.0035714285714" type="curve" smooth="yes"/>
      <point x="273.6875" y="618.0035714285714"/>
      <point x="305.1517857142857" y="566.6178571428571"/>
      <point x="305.1517857142857" y="490.61607142857144" type="curve" smooth="yes"/>
      <point x="305.1517857142857" y="383.69107142857143"/>
      <point x="269.76428571428573" y="308.6125"/>
    </contour>
    <contour>
      <point x="679.1232142857143" y="-13.076785714285714" type="curve" smooth="yes"/>
      <point x="797.8857142857142" y="-13.076785714285714"/>
      <point x="855.0357142857143" y="70.84642857142858"/>
      <point x="855.0357142857143" y="206.84642857142856" type="curve" smooth="yes"/>
      <point x="855.0357142857143" y="311.92321428571427"/>
      <point x="795.8857142857142" y="363.8464285714286"/>
      <point x="712.1214285714286" y="363.8464285714286" type="curve" smooth="yes"/>
      <point x="593.2821428571428" y="363.8464285714286"/>
      <point x="535.2857142857143" y="280.8464285714286"/>
      <point x="535.2857142857143" y="144.84642857142856" type="curve" smooth="yes"/>
      <point x="535.2857142857143" y="38.84642857142857"/>
      <point x="596.2821428571428" y="-13.076785714285714"/>
    </contour>
    <contour>
      <point x="684.1214285714286" y="20.535714285714285" type="curve" smooth="yes"/>
      <point x="635.5017857142857" y="20.535714285714285"/>
      <point x="603.8071428571428" y="72.92142857142858"/>
      <point x="603.8071428571428" y="147.15357142857144" type="curve" smooth="yes"/>
      <point x="603.8071428571428" y="255.925"/>
      <point x="638.425" y="329.00357142857143"/>
      <point x="706.3535714285714" y="329.00357142857143" type="curve" smooth="yes"/>
      <point x="755.9732142857143" y="329.00357142857143"/>
      <point x="786.5142857142857" y="278.54107142857146"/>
      <point x="786.5142857142857" y="202.5392857142857" type="curve" smooth="yes"/>
      <point x="786.5142857142857" y="94.69107142857143"/>
      <point x="752.05" y="20.535714285714285"/>
    </contour>
  </outline>
</glyph>
<glyph name="ampersand" format="2">
  <advance width="708.3714285714286"/>
  <unicode hex="0026"/>
  <outline>
    <contour>
      <point x="317.29821428571427" y="-13.0" type="curve" smooth="yes"/>
      <point x="557.5178571428571" y="-13.0"/>
      <point x="618.7464285714286" y="146.92142857142858"/>
      <point x="618.7464285714286" y="232.23214285714286" type="curve" smooth="yes"/>
      <point x="618.7464285714286" y="282.3071428571429"/>
      <point x="603.0553571428571" y="324.30892857142857"/>
      <point x="573.5178571428571" y="339.8482142857143" type="curve"/>
      <point x="513.4410714285714" y="339.8482142857143" type="line"/>
      <point x="623.6839285714286" y="462.4785714285714"/>
      <point x="667.8357142857143" y="502.4767857142857"/>
      <point x="682.9910714285714" y="518.7089285714286" type="curve" smooth="yes"/>
      <point x="688.1446428571429" y="524.0928571428572"/>
      <point x="696.7607142857142" y="535.1696428571429"/>
      <point x="696.7607142857142" y="539.9375" type="curve" smooth="yes"/>
      <point x="696.7607142857142" y="554.0107142857142"/>
      <point x="686.6089285714286" y="569.775"/>
      <point x="675.3803571428572" y="581.5410714285714" type="curve" smooth="yes"/>
      <point x="671.6125" y="585.5392857142857"/>
      <point x="666.3821428571429" y="588.8464285714285"/>
      <point x="663.9982142857143" y="588.8464285714285" type="curve" smooth="yes"/>
      <point x="662.6142857142858" y="588.8464285714285"/>
      <point x="657.6142857142858" y="583.8464285714285"/>
      <point x="652.4607142857143" y="577.6160714285714" type="curve" smooth="yes"/>
      <point x="614.4625" y="534.85"/>
      <point x="332.6767857142857" y="227.75178571428572"/>
      <point x="324.3696428571429" y="218.52142857142857" type="curve" smooth="yes"/>
      <point x="313.5232142857143" y="206.75178571428572"/>
      <point x="311.5232142857143" y="203.1375"/>
      <point x="311.5232142857143" y="197.29285714285714" type="curve" smooth="yes"/>
      <point x="311.5232142857143" y="182.29642857142858"/>
      <point x="323.5982142857143" y="163.68571428571428"/>
      <point x="336.75" y="150.99642857142857" type="curve" smooth="yes"/>
      <point x="340.51785714285717" y="147.92142857142858"/>
      <point x="342.97857142857146" y="145.5375"/>
      <point x="344.4392857142857" y="145.5375" type="curve" smooth="yes"/>
      <point x="346.74642857142857" y="145.5375"/>
      <point x="349.9767857142857" y="149.61428571428573"/>
      <point x="355.05357142857144" y="155.76785714285714" type="curve" smooth="yes"/>
      <point x="406.98035714285714" y="218.46428571428572"/>
      <point x="454.1357142857143" y="273.3125"/>
      <point x="500.9089285714286" y="325.85535714285714" type="curve"/>
      <point x="532.2196428571428" y="324.00892857142856"/>
      <point x="561.0678571428572" y="264.15714285714284"/>
      <point x="561.0678571428572" y="214.0767857142857" type="curve" smooth="yes"/>
      <point x="561.0678571428572" y="126.38214285714285"/>
      <point x="490.37857142857143" y="28.455357142857142"/>
      <point x="330.6767857142857" y="28.455357142857142" type="curve" smooth="yes"/>
      <point x="185.82142857142858" y="28.455357142857142"/>
      <point x="113.05357142857143" y="116.53928571428571"/>
      <point x="113.05357142857143" y="204.22857142857143" type="curve" smooth="yes"/>
      <point x="113.05357142857143" y="284.3857142857143"/>
      <point x="162.36428571428573" y="350.61785714285713"/>
      <point x="283.5267857142857" y="352.0" type="curve" smooth="yes"/>
      <point x="290.8339285714286" y="352.23035714285714"/>
      <point x="296.60357142857146" y="360.38392857142856"/>
      <point x="296.60357142857146" y="369.38392857142856" type="curve" smooth="yes"/>
      <point x="296.60357142857146" y="387.92321428571427"/>
      <point x="290.9875" y="393.6928571428571"/>
      <point x="281.21785714285716" y="394.23035714285714" type="curve" smooth="yes"/>
      <point x="255.9857142857143" y="395.5357142857143"/>
      <point x="183.74642857142857" y="432.5375"/>
      <point x="183.74642857142857" y="511.92857142857144" type="curve" smooth="yes"/>
      <point x="183.74642857142857" y="565.4678571428572"/>
      <point x="226.51964285714286" y="611.7785714285715"/>
      <point x="292.9089285714286" y="611.7785714285715" type="curve" smooth="yes"/>
      <point x="351.2214285714286" y="611.7785714285715"/>
      <point x="386.3767857142857" y="589.0071428571429"/>
      <point x="419.07142857142856" y="558.0803571428571" type="curve" smooth="yes"/>
      <point x="425.3017857142857" y="553.2339285714286"/>
      <point x="430.45535714285717" y="548.4642857142857"/>
      <point x="433.53214285714284" y="548.4642857142857" type="curve" smooth="yes"/>
      <point x="441.6089285714286" y="548.4642857142857"/>
      <point x="447.3" y="561.2321428571429"/>
      <point x="447.3" y="582.6910714285714" type="curve" smooth="yes"/>
      <point x="447.3" y="592.3053571428571"/>
      <point x="446.91607142857146" y="601.3053571428571"/>
      <point x="437.99285714285713" y="608.9214285714286" type="curve" smooth="yes"/>
      <point x="411.61071428571427" y="631.5375"/>
      <point x="356.7660714285714" y="652.0"/>
      <point x="291.0732142857143" y="652.0" type="curve" smooth="yes"/>
      <point x="201.6125" y="652.0"/>
      <point x="113.45892857142857" y="612.5375"/>
      <point x="113.45892857142857" y="518.8464285714285" type="curve" smooth="yes"/>
      <point x="113.45892857142857" y="440.0"/>
      <point x="160.84107142857144" y="397.3071428571429"/>
      <point x="215.1482142857143" y="377.0" type="curve"/>
      <point x="114.5375" y="377.0"/>
      <point x="42.073214285714286" y="310.0017857142857"/>
      <point x="42.073214285714286" y="220.31071428571428" type="curve" smooth="yes"/>
      <point x="42.073214285714286" y="101.31428571428572"/>
      <point x="129.14107142857142" y="-13.0"/>
    </contour>
  </outline>
</glyph>
<glyph name="quotesingle" format="2">
  <advance width="144.37142857142857"/>
  <unicode hex="0027"/>
  <outline>
    <contour>
      <point x="69.61071428571428" y="449.92857142857144" type="curve" smooth="yes"/>
      <point x="80.37678571428572" y="449.92857142857144"/>
      <point x="86.06785714285715" y="457.08214285714286"/>
      <point x="100.75892857142857" y="494.54285714285714" type="curve" smooth="yes"/>
      <point x="114.29464285714286" y="529.6928571428572"/>
      <point x="146.83214285714286" y="625.0035714285714"/>
      <point x="146.83214285714286" y="636.6178571428571" type="curve" smooth="yes"/>
      <point x="146.83214285714286" y="649.5392857142857"/>
      <point x="134.98928571428573" y="652.0"/>
      <point x="111.45714285714286" y="652.0" type="curve" smooth="yes"/>
      <point x="85.925" y="652.0"/>
      <point x="72.61964285714285" y="646.6160714285714"/>
      <point x="70.77321428571429" y="624.8482142857143" type="curve" smooth="yes"/>
      <point x="67.08035714285714" y="590.5392857142857"/>
      <point x="56.769642857142856" y="486.69107142857143"/>
      <point x="57.0" y="470.8464285714286" type="curve" smooth="yes"/>
      <point x="57.38392857142857" y="453.54285714285714"/>
      <point x="61.614285714285714" y="449.92857142857144"/>
    </contour>
  </outline>
</glyph>
<glyph name="parenleft" format="2">
  <advance width="317.06607142857143"/>
  <unicode hex="0028"/>
  <outline>
    <contour>
      <point x="238.06428571428572" y="-244.0" type="curve" smooth="yes"/>
      <point x="245.83035714285714" y="-244.0"/>
      <point x="249.90714285714284" y="-242.5392857142857"/>
      <point x="249.90714285714284" y="-234.07857142857142" type="curve" smooth="yes"/>
      <point x="249.90714285714284" y="-227.3875"/>
      <point x="139.98035714285714" y="-66.0"/>
      <point x="139.98035714285714" y="237.0" type="curve" smooth="yes"/>
      <point x="139.98035714285714" y="430.0"/>
      <point x="207.82857142857142" y="615.6196428571428"/>
      <point x="291.9892857142857" y="730.7785714285715" type="curve" smooth="yes"/>
      <point x="296.29464285714283" y="737.6964285714286"/>
      <point x="297.37142857142857" y="739.4642857142857"/>
      <point x="297.37142857142857" y="741.2321428571429" type="curve" smooth="yes"/>
      <point x="297.37142857142857" y="748.0767857142857"/>
      <point x="283.83214285714286" y="756.0"/>
      <point x="269.68035714285713" y="756.0" type="curve" smooth="yes"/>
      <point x="262.8392857142857" y="756.0"/>
      <point x="256.38392857142856" y="752.4625"/>
      <point x="247.925" y="742.9267857142858" type="curve" smooth="yes"/>
      <point x="138.91964285714286" y="625.1517857142857"/>
      <point x="70.5375" y="451.38214285714287"/>
      <point x="70.5375" y="238.5375" type="curve" smooth="yes"/>
      <point x="70.5375" y="73.76607142857142"/>
      <point x="98.38214285714285" y="-49.22857142857143"/>
      <point x="191.76607142857142" y="-225.3875" type="curve" smooth="yes"/>
      <point x="198.07142857142858" y="-237.0767857142857"/>
      <point x="215.525" y="-244.0"/>
    </contour>
  </outline>
</glyph>
<glyph name="parenright" format="2">
  <advance width="317.8339285714286"/>
  <unicode hex="0029"/>
  <outline>
    <contour>
      <point x="49.15357142857143" y="-244.0" type="curve" smooth="yes"/>
      <point x="55.99464285714286" y="-244.0"/>
      <point x="62.45" y="-242.30892857142857"/>
      <point x="70.90892857142858" y="-232.7732142857143" type="curve" smooth="yes"/>
      <point x="179.9142857142857" y="-114.99821428571428"/>
      <point x="248.29642857142858" y="60.61785714285714"/>
      <point x="248.29642857142858" y="272.61607142857144" type="curve" smooth="yes"/>
      <point x="248.29642857142858" y="438.2339285714286"/>
      <point x="220.4517857142857" y="560.3053571428571"/>
      <point x="127.06785714285715" y="735.5410714285714" type="curve" smooth="yes"/>
      <point x="120.7625" y="747.2303571428571"/>
      <point x="102.38571428571429" y="756.0"/>
      <point x="80.76964285714286" y="756.0" type="curve" smooth="yes"/>
      <point x="72.08035714285714" y="756.0"/>
      <point x="68.92678571428571" y="752.6928571428572"/>
      <point x="68.92678571428571" y="745.1553571428572" type="curve" smooth="yes"/>
      <point x="68.92678571428571" y="739.3875"/>
      <point x="178.85357142857143" y="576.1535714285715"/>
      <point x="178.85357142857143" y="274.07678571428573" type="curve" smooth="yes"/>
      <point x="178.85357142857143" y="80.15357142857142"/>
      <point x="110.08214285714286" y="-104.54285714285714"/>
      <point x="25.92142857142857" y="-218.77857142857144" type="curve" smooth="yes"/>
      <point x="21.616071428571427" y="-225.69642857142858"/>
      <point x="20.539285714285715" y="-229.31071428571428"/>
      <point x="20.539285714285715" y="-231.07857142857142" type="curve" smooth="yes"/>
      <point x="20.539285714285715" y="-237.9232142857143"/>
      <point x="34.07857142857143" y="-244.0"/>
    </contour>
  </outline>
</glyph>
<glyph name="asterisk" format="2">
  <advance width="481.0"/>
  <unicode hex="002A"/>
  <outline>
    <contour>
      <point x="272.075" y="324.1607142857143" type="curve" smooth="yes"/>
      <point x="280.91964285714283" y="324.1607142857143"/>
      <point x="285.3803571428571" y="326.775"/>
      <point x="285.3803571428571" y="332.9267857142857" type="curve" smooth="yes"/>
      <point x="285.3803571428571" y="394.6232142857143"/>
      <point x="275.7660714285714" y="440.775"/>
      <point x="275.22857142857146" y="512.6982142857142" type="curve"/>
      <point x="334.23035714285714" y="478.00892857142856"/>
      <point x="359.075" y="443.6267857142857"/>
      <point x="416.3107142857143" y="405.7785714285714" type="curve" smooth="yes"/>
      <point x="418.69464285714287" y="404.3178571428571"/>
      <point x="420.15535714285716" y="403.1642857142857"/>
      <point x="422.5392857142857" y="403.1642857142857" type="curve" smooth="yes"/>
      <point x="433.075" y="403.1642857142857"/>
      <point x="451.30357142857144" y="438.62142857142857"/>
      <point x="451.30357142857144" y="456.23571428571427" type="curve" smooth="yes"/>
      <point x="451.30357142857144" y="464.85"/>
      <point x="448.15" y="471.3107142857143"/>
      <point x="440.15" y="475.54107142857146" type="curve" smooth="yes"/>
      <point x="416.30357142857144" y="488.15535714285716"/>
      <point x="374.07678571428573" y="492.8464285714286"/>
      <point x="294.2267857142857" y="538.7732142857143" type="curve"/>
      <point x="366.9214285714286" y="579.0857142857143"/>
      <point x="410.91785714285714" y="578.0089285714286"/>
      <point x="444.3803571428571" y="601.3178571428572" type="curve" smooth="yes"/>
      <point x="450.76428571428573" y="605.4714285714285"/>
      <point x="453.37857142857143" y="613.0089285714286"/>
      <point x="453.37857142857143" y="621.1607142857143" type="curve" smooth="yes"/>
      <point x="453.37857142857143" y="642.5446428571429"/>
      <point x="435.9946428571429" y="675.1553571428572"/>
      <point x="427.6125" y="675.1553571428572" type="curve" smooth="yes"/>
      <point x="425.38214285714287" y="675.1553571428572"/>
      <point x="423.075" y="674.1553571428572"/>
      <point x="419.84464285714284" y="672.0017857142857" type="curve" smooth="yes"/>
      <point x="367.76428571428573" y="637.4607142857143"/>
      <point x="336.6125" y="599.8464285714285"/>
      <point x="280.5357142857143" y="563.3857142857142" type="curve"/>
      <point x="289.61071428571427" y="639.4660714285715"/>
      <point x="315.53214285714284" y="683.7714285714286"/>
      <point x="315.53214285714284" y="725.85" type="curve" smooth="yes"/>
      <point x="315.53214285714284" y="743.3107142857143"/>
      <point x="282.4535714285714" y="756.0"/>
      <point x="252.30714285714285" y="756.0" type="curve" smooth="yes"/>
      <point x="242.5392857142857" y="756.0"/>
      <point x="239.00178571428572" y="753.3857142857142"/>
      <point x="239.00178571428572" y="744.4642857142857" type="curve" smooth="yes"/>
      <point x="240.84821428571428" y="690.7678571428571"/>
      <point x="245.30892857142857" y="652.3071428571428"/>
      <point x="245.9232142857143" y="602.1535714285715" type="curve" smooth="yes"/>
      <point x="246.0767857142857" y="590.0767857142857"/>
      <point x="246.23035714285714" y="578.0"/>
      <point x="245.38392857142858" y="564.0" type="curve"/>
      <point x="185.6125" y="604.9214285714286"/>
      <point x="157.30535714285713" y="636.6107142857143"/>
      <point x="102.68571428571428" y="674.3821428571429" type="curve" smooth="yes"/>
      <point x="99.37857142857143" y="676.7660714285714"/>
      <point x="96.99464285714286" y="677.9196428571429"/>
      <point x="94.61071428571428" y="677.9196428571429" type="curve" smooth="yes"/>
      <point x="85.68928571428572" y="677.9196428571429"/>
      <point x="68.61607142857143" y="642.9232142857143"/>
      <point x="68.61607142857143" y="625.6178571428571" type="curve" smooth="yes"/>
      <point x="68.61607142857143" y="617.0803571428571"/>
      <point x="71.84642857142858" y="609.7732142857143"/>
      <point x="77.92321428571428" y="605.5428571428571" type="curve" smooth="yes"/>
      <point x="111.925" y="581.6964285714286"/>
      <point x="157.76785714285714" y="577.0821428571429"/>
      <point x="229.30892857142857" y="538.6946428571429" type="curve"/>
      <point x="149.30535714285713" y="493.7660714285714"/>
      <point x="102.38571428571429" y="493.91964285714283"/>
      <point x="79.15535714285714" y="478.91964285714283" type="curve" smooth="yes"/>
      <point x="72.77142857142857" y="474.6892857142857"/>
      <point x="69.15714285714286" y="467.1517857142857"/>
      <point x="69.15714285714286" y="457.92321428571427" type="curve" smooth="yes"/>
      <point x="69.15714285714286" y="436.92321428571427"/>
      <point x="87.15714285714286" y="406.0053571428571"/>
      <point x="94.0" y="406.0053571428571" type="curve" smooth="yes"/>
      <point x="95.30714285714286" y="406.0053571428571"/>
      <point x="97.61428571428571" y="407.0053571428571"/>
      <point x="99.99821428571428" y="408.23571428571427" type="curve" smooth="yes"/>
      <point x="158.54107142857143" y="445.5464285714286"/>
      <point x="187.76964285714286" y="480.3142857142857"/>
      <point x="242.0" y="512.1589285714285" type="curve"/>
      <point x="233.84821428571428" y="416.69107142857143"/>
      <point x="207.00357142857143" y="377.925"/>
      <point x="207.00357142857143" y="353.3875" type="curve" smooth="yes"/>
      <point x="207.00357142857143" y="334.08035714285717"/>
      <point x="241.00535714285715" y="324.1607142857143"/>
    </contour>
  </outline>
</glyph>
<glyph name="plus" format="2">
  <advance width="552.3035714285714"/>
  <unicode hex="002B"/>
  <outline>
    <contour>
      <point x="270.5285714285714" y="85.61607142857143" type="curve" smooth="yes"/>
      <point x="283.75714285714287" y="85.61607142857143"/>
      <point x="290.45" y="88.76964285714286"/>
      <point x="290.45" y="99.38392857142857" type="curve" smooth="yes"/>
      <point x="290.45" y="112.14821428571429"/>
      <point x="298.8357142857143" y="226.69821428571427"/>
      <point x="303.6821428571429" y="291.23571428571427" type="curve"/>
      <point x="487.2267857142857" y="291.23571428571427" type="line" smooth="yes"/>
      <point x="506.0732142857143" y="291.23571428571427"/>
      <point x="516.3035714285714" y="311.85"/>
      <point x="516.3035714285714" y="332.8464285714286" type="curve" smooth="yes"/>
      <point x="516.3035714285714" y="342.38214285714287"/>
      <point x="514.15" y="347.30535714285713"/>
      <point x="506.84285714285716" y="347.30535714285713" type="curve" smooth="yes"/>
      <point x="306.375" y="347.30535714285713" type="line"/>
      <point x="311.2214285714286" y="406.225"/>
      <point x="321.53035714285716" y="497.77142857142854"/>
      <point x="321.53035714285716" y="507.4642857142857" type="curve" smooth="yes"/>
      <point x="321.53035714285716" y="537.7714285714286"/>
      <point x="289.6892857142857" y="543.6160714285714"/>
      <point x="272.76964285714286" y="543.6160714285714" type="curve" smooth="yes"/>
      <point x="259.54107142857146" y="543.6160714285714"/>
      <point x="252.77142857142857" y="540.3089285714286"/>
      <point x="252.77142857142857" y="529.7714285714286" type="curve" smooth="yes"/>
      <point x="252.77142857142857" y="517.0071428571429"/>
      <point x="245.30892857142857" y="412.45892857142854"/>
      <point x="240.5392857142857" y="347.30535714285713" type="curve"/>
      <point x="66.38035714285715" y="347.30535714285713" type="line" smooth="yes"/>
      <point x="48.457142857142856" y="347.30535714285713"/>
      <point x="37.30357142857143" y="329.4607142857143"/>
      <point x="37.30357142857143" y="305.69464285714287" type="curve" smooth="yes"/>
      <point x="37.30357142857143" y="296.1589285714286"/>
      <point x="40.30357142857143" y="291.23571428571427"/>
      <point x="46.76428571428571" y="291.23571428571427" type="curve" smooth="yes"/>
      <point x="237.84642857142856" y="291.23571428571427" type="line"/>
      <point x="233.0" y="233.00892857142858"/>
      <point x="221.69107142857143" y="132.38392857142858"/>
      <point x="221.69107142857143" y="121.76785714285714" type="curve" smooth="yes"/>
      <point x="221.69107142857143" y="91.38392857142857"/>
      <point x="253.60892857142858" y="85.61607142857143"/>
    </contour>
  </outline>
</glyph>
<glyph name="comma" format="2">
  <advance width="275.0"/>
  <unicode hex="002C"/>
  <outline>
    <contour>
      <point x="43.457142857142856" y="-78.0" type="curve" smooth="yes"/>
      <point x="56.06964285714286" y="-78.0"/>
      <point x="66.14642857142857" y="-74.07678571428572"/>
      <point x="72.75892857142857" y="-68.07857142857142" type="curve" smooth="yes"/>
      <point x="108.9125" y="-29.15357142857143"/>
      <point x="174.9875" y="54.4625"/>
      <point x="174.9875" y="85.4625" type="curve" smooth="yes"/>
      <point x="174.9875" y="94.15357142857142"/>
      <point x="170.68035714285713" y="104.61428571428571"/>
      <point x="162.52857142857144" y="113.84285714285714" type="curve" smooth="yes"/>
      <point x="156.37678571428572" y="120.07142857142857"/>
      <point x="146.30535714285713" y="126.52857142857142"/>
      <point x="136.38392857142858" y="126.52857142857142" type="curve" smooth="yes"/>
      <point x="131.76964285714286" y="126.52857142857142"/>
      <point x="130.4625" y="125.29821428571428"/>
      <point x="128.00178571428572" y="118.06964285714285" type="curve" smooth="yes"/>
      <point x="103.07678571428572" y="59.21964285714286"/>
      <point x="51.53928571428571" y="-32.85357142857143"/>
      <point x="39.464285714285715" y="-53.23392857142857" type="curve" smooth="yes"/>
      <point x="31.617857142857144" y="-65.23392857142858"/>
      <point x="28.541071428571428" y="-69.3875"/>
      <point x="28.541071428571428" y="-71.46428571428571" type="curve" smooth="yes"/>
      <point x="28.541071428571428" y="-74.46428571428571"/>
      <point x="35.767857142857146" y="-78.0"/>
    </contour>
  </outline>
</glyph>
<glyph name="hyphen" format="2">
  <advance width="275.0"/>
  <unicode hex="002D"/>
  <outline>
    <contour>
      <point x="15.92142857142857" y="270.38928571428573" type="curve" smooth="yes"/>
      <point x="236.76964285714286" y="270.38928571428573" type="line" smooth="yes"/>
      <point x="252.69285714285715" y="270.38928571428573"/>
      <point x="259.07678571428573" y="293.15714285714284"/>
      <point x="259.07678571428573" y="315.76785714285717" type="curve" smooth="yes"/>
      <point x="259.07678571428573" y="324.91785714285714"/>
      <point x="257.0" y="327.07142857142856"/>
      <point x="251.61607142857142" y="327.07142857142856" type="curve" smooth="yes"/>
      <point x="30.767857142857142" y="327.07142857142856" type="line" smooth="yes"/>
      <point x="14.844642857142857" y="327.07142857142856"/>
      <point x="8.460714285714285" y="303.30357142857144"/>
      <point x="8.460714285714285" y="281.6928571428571" type="curve" smooth="yes"/>
      <point x="8.460714285714285" y="272.54285714285714"/>
      <point x="10.5375" y="270.38928571428573"/>
    </contour>
  </outline>
</glyph>
<glyph name="period" format="2">
  <advance width="275.0"/>
  <unicode hex="002E"/>
  <outline>
    <contour>
      <point x="126.5375" y="0.0" type="curve" smooth="yes"/>
      <point x="154.91785714285714" y="0.0"/>
      <point x="174.98928571428573" y="19.460714285714285"/>
      <point x="174.98928571428573" y="44.683928571428574" type="curve" smooth="yes"/>
      <point x="174.98928571428573" y="79.45178571428572"/>
      <point x="159.3" y="99.52321428571429"/>
      <point x="142.15178571428572" y="99.52321428571429" type="curve" smooth="yes"/>
      <point x="123.46428571428571" y="99.52321428571429"/>
      <point x="91.7" y="74.83392857142857"/>
      <point x="91.7" y="39.60714285714286" type="curve" smooth="yes"/>
      <point x="91.7" y="11.998214285714285"/>
      <point x="103.54107142857143" y="0.0"/>
    </contour>
  </outline>
</glyph>
<glyph name="slash" format="2">
  <advance width="533.1607142857143"/>
  <unicode hex="002F"/>
  <outline>
    <contour>
      <point x="65.67678571428571" y="-34.07678571428571" type="curve" smooth="yes"/>
      <point x="74.05892857142857" y="-34.07678571428571"/>
      <point x="82.59642857142858" y="-29.15357142857143"/>
      <point x="89.51785714285714" y="-16.542857142857144" type="curve" smooth="yes"/>
      <point x="138.52142857142857" y="68.46071428571429"/>
      <point x="469.1607142857143" y="579.3196428571429"/>
      <point x="498.7785714285714" y="622.1678571428571" type="curve" smooth="yes"/>
      <point x="508.85535714285714" y="636.9357142857143"/>
      <point x="511.3910714285714" y="644.7"/>
      <point x="511.3910714285714" y="647.3142857142857" type="curve" smooth="yes"/>
      <point x="511.3910714285714" y="659.0803571428571"/>
      <point x="484.63392857142856" y="675.0"/>
      <point x="464.0982142857143" y="675.0" type="curve" smooth="yes"/>
      <point x="455.7160714285714" y="675.0"/>
      <point x="447.2553571428571" y="670.0767857142857"/>
      <point x="440.25714285714287" y="657.4660714285715" type="curve" smooth="yes"/>
      <point x="308.5464285714286" y="455.66964285714283"/>
      <point x="162.24464285714285" y="219.47321428571428"/>
      <point x="28.226785714285715" y="15.985714285714286" type="curve" smooth="yes"/>
      <point x="20.689285714285713" y="3.5267857142857144"/>
      <point x="18.383928571428573" y="-1.0071428571428571"/>
      <point x="18.383928571428573" y="-6.314285714285714" type="curve" smooth="yes"/>
      <point x="18.383928571428573" y="-18.080357142857142"/>
      <point x="45.908928571428575" y="-34.07678571428571"/>
    </contour>
  </outline>
</glyph>
<glyph name="zero" format="2">
  <advance width="589.0767857142857"/>
  <unicode hex="0030"/>
  <outline>
    <contour>
      <point x="274.84464285714284" y="-13.0" type="curve" smooth="yes"/>
      <point x="446.15" y="-13.0"/>
      <point x="529.9178571428571" y="134.0"/>
      <point x="529.9178571428571" y="374.0" type="curve" smooth="yes"/>
      <point x="529.9178571428571" y="562.0"/>
      <point x="444.15" y="652.0"/>
      <point x="323.22857142857146" y="652.0" type="curve" smooth="yes"/>
      <point x="150.84642857142856" y="652.0"/>
      <point x="67.00178571428572" y="506.0"/>
      <point x="67.00178571428572" y="266.0" type="curve" smooth="yes"/>
      <point x="67.00178571428572" y="78.0"/>
      <point x="152.9232142857143" y="-13.0"/>
    </contour>
    <contour>
      <point x="279.0732142857143" y="23.37857142857143" type="curve" smooth="yes"/>
      <point x="192.91071428571428" y="23.37857142857143"/>
      <point x="137.90535714285716" y="124.22678571428571"/>
      <point x="137.90535714285716" y="267.4607142857143" type="curve" smooth="yes"/>
      <point x="137.90535714285716" y="475.08035714285717"/>
      <point x="198.60357142857143" y="615.4678571428572"/>
      <point x="317.8464285714286" y="615.4678571428572" type="curve" smooth="yes"/>
      <point x="403.2392857142857" y="615.4678571428572"/>
      <point x="459.0910714285714" y="515.5428571428571"/>
      <point x="459.0910714285714" y="372.4625" type="curve" smooth="yes"/>
      <point x="459.0910714285714" y="166.68928571428572"/>
      <point x="398.31607142857143" y="23.37857142857143"/>
    </contour>
  </outline>
</glyph>
<glyph name="one" format="2">
  <advance width="416.3803571428571"/>
  <unicode hex="0031"/>
  <outline>
    <contour>
      <point x="264.375" y="-13.0" type="curve" smooth="yes"/>
      <point x="276.0625" y="-13.0"/>
      <point x="277.3696428571429" y="-9.539285714285715"/>
      <point x="277.3696428571429" y="-3.0035714285714286" type="curve" smooth="yes"/>
      <point x="277.3696428571429" y="307.9392857142857"/>
      <point x="312.4482142857143" y="608.1607142857143"/>
      <point x="312.4482142857143" y="622.4678571428572" type="curve" smooth="yes"/>
      <point x="312.4482142857143" y="642.925"/>
      <point x="273.6125" y="652.0"/>
      <point x="252.45892857142857" y="652.0" type="curve" smooth="yes"/>
      <point x="248.61428571428573" y="652.0"/>
      <point x="76.53928571428571" y="523.8482142857143"/>
      <point x="66.61607142857143" y="513.8482142857143" type="curve" smooth="yes"/>
      <point x="60.308928571428574" y="507.4642857142857"/>
      <point x="59.232142857142854" y="496.8517857142857"/>
      <point x="59.232142857142854" y="487.6232142857143" type="curve" smooth="yes"/>
      <point x="59.232142857142854" y="469.0892857142857"/>
      <point x="66.38571428571429" y="445.1642857142857"/>
      <point x="73.61607142857143" y="445.1642857142857" type="curve" smooth="yes"/>
      <point x="79.07678571428572" y="445.1642857142857"/>
      <point x="158.61785714285713" y="531.0142857142857"/>
      <point x="234.39285714285714" y="578.4017857142857" type="curve"/>
      <point x="232.1625" y="468.6357142857143"/>
      <point x="202.31428571428572" y="29.685714285714287"/>
      <point x="202.31428571428572" y="17.455357142857142" type="curve" smooth="yes"/>
      <point x="202.31428571428572" y="-3.001785714285714"/>
      <point x="239.15" y="-13.0"/>
    </contour>
  </outline>
</glyph>
<glyph name="two" format="2">
  <advance width="547.9982142857143"/>
  <unicode hex="0032"/>
  <outline>
    <contour>
      <point x="73.6125" y="0.0" type="curve" smooth="yes"/>
      <point x="432.53214285714284" y="0.0" type="line" smooth="yes"/>
      <point x="447.45535714285717" y="0.0"/>
      <point x="456.3767857142857" y="24.616071428571427"/>
      <point x="456.3767857142857" y="48.073214285714286" type="curve" smooth="yes"/>
      <point x="456.3767857142857" y="57.760714285714286"/>
      <point x="454.3767857142857" y="64.68214285714286"/>
      <point x="450.14642857142854" y="64.68214285714286" type="curve" smooth="yes"/>
      <point x="447.6857142857143" y="64.68214285714286"/>
      <point x="318.0642857142857" y="48.9125"/>
      <point x="213.13392857142858" y="48.9125" type="curve" smooth="yes"/>
      <point x="184.67142857142858" y="48.9125"/>
      <point x="162.59464285714284" y="48.9125"/>
      <point x="141.44107142857143" y="48.9125" type="curve"/>
      <point x="194.97857142857143" y="112.45178571428572"/>
      <point x="282.36785714285713" y="202.53392857142856"/>
      <point x="354.75714285714287" y="291.0" type="curve" smooth="yes"/>
      <point x="411.29821428571427" y="360.8482142857143"/>
      <point x="449.2232142857143" y="430.08035714285717"/>
      <point x="449.2232142857143" y="502.9267857142857" type="curve" smooth="yes"/>
      <point x="449.2232142857143" y="615.3071428571428"/>
      <point x="362.84285714285716" y="652.0"/>
      <point x="277.0" y="652.0" type="curve" smooth="yes"/>
      <point x="208.77142857142857" y="652.0"/>
      <point x="145.30892857142857" y="628.9214285714286"/>
      <point x="115.46428571428571" y="606.3839285714286" type="curve" smooth="yes"/>
      <point x="100.31071428571428" y="595.2303571428571"/>
      <point x="96.31071428571428" y="587.5392857142857"/>
      <point x="96.31071428571428" y="572.3089285714286" type="curve" smooth="yes"/>
      <point x="96.31071428571428" y="544.0071428571429"/>
      <point x="101.4625" y="536.5464285714286"/>
      <point x="110.15357142857142" y="536.5464285714286" type="curve" smooth="yes"/>
      <point x="124.0" y="536.5464285714286"/>
      <point x="168.4625" y="606.7035714285714"/>
      <point x="256.6196428571429" y="606.7035714285714" type="curve" smooth="yes"/>
      <point x="314.2392857142857" y="606.7035714285714"/>
      <point x="370.78214285714284" y="575.0107142857142"/>
      <point x="370.78214285714284" y="496.1607142857143" type="curve" smooth="yes"/>
      <point x="370.78214285714284" y="442.2339285714286"/>
      <point x="350.78035714285716" y="392.30892857142857"/>
      <point x="310.46964285714284" y="337.07678571428573" type="curve" smooth="yes"/>
      <point x="257.6196428571429" y="264.9214285714286"/>
      <point x="152.91964285714286" y="144.75892857142858"/>
      <point x="67.38214285714285" y="60.375" type="curve" smooth="yes"/>
      <point x="57.691071428571426" y="51.683928571428574"/>
      <point x="55.5375" y="45.91607142857143"/>
      <point x="55.5375" y="38.378571428571426" type="curve" smooth="yes"/>
      <point x="55.5375" y="26.84107142857143"/>
      <point x="65.76785714285714" y="0.0"/>
    </contour>
  </outline>
</glyph>
<glyph name="three" format="2">
  <advance width="533.3785714285714"/>
  <unicode hex="0033"/>
  <outline>
    <contour>
      <point x="216.53571428571428" y="-13.0" type="curve" smooth="yes"/>
      <point x="347.5267857142857" y="-13.0"/>
      <point x="446.9892857142857" y="65.45714285714286"/>
      <point x="446.9892857142857" y="186.84464285714284" type="curve" smooth="yes"/>
      <point x="446.9892857142857" y="274.075"/>
      <point x="387.2964285714286" y="336.76785714285717"/>
      <point x="307.8375" y="351.6142857142857" type="curve"/>
      <point x="342.2214285714286" y="364.07678571428573"/>
      <point x="430.68035714285713" y="422.5392857142857"/>
      <point x="430.68035714285713" y="510.0" type="curve" smooth="yes"/>
      <point x="430.68035714285713" y="614.7714285714286"/>
      <point x="343.9089285714286" y="652.0"/>
      <point x="253.225" y="652.0" type="curve" smooth="yes"/>
      <point x="190.53571428571428" y="652.0"/>
      <point x="140.22857142857143" y="639.0"/>
      <point x="109.23035714285714" y="619.6928571428572" type="curve" smooth="yes"/>
      <point x="93.0" y="609.6928571428572"/>
      <point x="83.15357142857142" y="597.4625"/>
      <point x="83.15357142857142" y="581.5410714285714" type="curve" smooth="yes"/>
      <point x="83.15357142857142" y="553.0839285714286"/>
      <point x="87.38392857142857" y="548.9303571428571"/>
      <point x="94.99821428571428" y="548.9303571428571" type="curve" smooth="yes"/>
      <point x="101.30535714285715" y="548.9303571428571"/>
      <point x="117.22857142857143" y="562.3928571428571"/>
      <point x="145.4607142857143" y="580.4714285714285" type="curve" smooth="yes"/>
      <point x="174.0" y="598.7035714285714"/>
      <point x="207.61607142857142" y="609.6267857142857"/>
      <point x="241.76964285714286" y="609.6267857142857" type="curve" smooth="yes"/>
      <point x="305.4625" y="609.6267857142857"/>
      <point x="356.1607142857143" y="572.55"/>
      <point x="356.1607142857143" y="494.6196428571429" type="curve" smooth="yes"/>
      <point x="356.1607142857143" y="396.22857142857146"/>
      <point x="251.61428571428573" y="359.5375"/>
      <point x="213.3875" y="358.92321428571427" type="curve" smooth="yes"/>
      <point x="206.08035714285714" y="358.8464285714286"/>
      <point x="201.00357142857143" y="344.23035714285714"/>
      <point x="201.00357142857143" y="330.3857142857143" type="curve" smooth="yes"/>
      <point x="201.00357142857143" y="321.77142857142854"/>
      <point x="201.23392857142858" y="318.3875"/>
      <point x="204.00178571428572" y="318.3875" type="curve" smooth="yes"/>
      <point x="288.9267857142857" y="318.3875"/>
      <point x="375.39464285714286" y="283.2339285714286"/>
      <point x="375.39464285714286" y="167.53392857142856" type="curve" smooth="yes"/>
      <point x="375.39464285714286" y="80.60892857142858"/>
      <point x="306.46785714285716" y="30.142857142857142"/>
      <point x="214.0" y="30.142857142857142" type="curve" smooth="yes"/>
      <point x="121.07321428571429" y="30.142857142857142"/>
      <point x="74.22857142857143" y="88.83928571428571"/>
      <point x="57.073214285714286" y="88.83928571428571" type="curve" smooth="yes"/>
      <point x="46.6125" y="88.83928571428571"/>
      <point x="45.38214285714286" y="80.83928571428571"/>
      <point x="45.38214285714286" y="66.46071428571429" type="curve" smooth="yes"/>
      <point x="45.38214285714286" y="40.07678571428571"/>
      <point x="51.073214285714286" y="28.84642857142857"/>
      <point x="67.30357142857143" y="18.769642857142856" type="curve" smooth="yes"/>
      <point x="98.30357142857143" y="-0.07678571428571429"/>
      <point x="137.38035714285715" y="-13.0"/>
    </contour>
  </outline>
</glyph>
<glyph name="four" format="2">
  <advance width="569.2321428571429"/>
  <unicode hex="0034"/>
  <outline>
    <contour>
      <point x="348.2232142857143" y="-13.0" type="curve" smooth="yes"/>
      <point x="358.0642857142857" y="-13.0"/>
      <point x="359.21785714285716" y="-9.539285714285715"/>
      <point x="359.21785714285716" y="-3.0035714285714286" type="curve" smooth="yes"/>
      <point x="359.21785714285716" y="59.22857142857143"/>
      <point x="360.29464285714283" y="115.6125"/>
      <point x="366.8339285714286" y="205.31428571428572" type="curve"/>
      <point x="528.4642857142857" y="205.31428571428572" type="line" smooth="yes"/>
      <point x="545.0017857142857" y="205.31428571428572"/>
      <point x="551.4642857142857" y="231.15714285714284"/>
      <point x="551.4642857142857" y="250.15714285714284" type="curve" smooth="yes"/>
      <point x="551.4642857142857" y="258.6928571428571"/>
      <point x="548.4642857142857" y="261.0"/>
      <point x="543.4642857142857" y="261.0" type="curve" smooth="yes"/>
      <point x="526.925" y="261.0"/>
      <point x="465.8410714285714" y="256.1535714285714"/>
      <point x="369.9107142857143" y="253.30714285714285" type="curve"/>
      <point x="375.9107142857143" y="363.6089285714286"/>
      <point x="395.21964285714284" y="609.0839285714286"/>
      <point x="395.21964285714284" y="623.3910714285714" type="curve" smooth="yes"/>
      <point x="395.21964285714284" y="643.8482142857143"/>
      <point x="364.9982142857143" y="652.0"/>
      <point x="342.2339285714286" y="652.0" type="curve" smooth="yes"/>
      <point x="333.4660714285714" y="652.0"/>
      <point x="328.38928571428573" y="649.0"/>
      <point x="323.775" y="643.2321428571429" type="curve" smooth="yes"/>
      <point x="277.61785714285713" y="580.9964285714286"/>
      <point x="58.77142857142857" y="296.54107142857146"/>
      <point x="44.925" y="263.3857142857143" type="curve" smooth="yes"/>
      <point x="42.77142857142857" y="258.23214285714283"/>
      <point x="42.69464285714286" y="254.61785714285713"/>
      <point x="42.69464285714286" y="251.23392857142858" type="curve" smooth="yes"/>
      <point x="42.69464285714286" y="237.2375"/>
      <point x="57.54107142857143" y="205.31428571428572"/>
      <point x="77.3875" y="205.31428571428572" type="curve" smooth="yes"/>
      <point x="302.7785714285714" y="205.31428571428572" type="line"/>
      <point x="296.1625" y="109.91785714285714"/>
      <point x="289.2392857142857" y="41.6875"/>
      <point x="289.2392857142857" y="17.455357142857142" type="curve" smooth="yes"/>
      <point x="289.2392857142857" y="-3.001785714285714"/>
      <point x="322.9982142857143" y="-13.0"/>
    </contour>
    <contour>
      <point x="94.91785714285714" y="252.0" type="line"/>
      <point x="130.92142857142858" y="312.8517857142857"/>
      <point x="291.6267857142857" y="532.3285714285714"/>
      <point x="324.93392857142857" y="571.3285714285714" type="curve"/>
      <point x="324.85714285714283" y="533.7142857142857"/>
      <point x="310.70178571428573" y="351.7732142857143"/>
      <point x="305.70178571428573" y="252.0" type="curve"/>
    </contour>
  </outline>
</glyph>
<glyph name="five" format="2">
  <advance width="548.3089285714286"/>
  <unicode hex="0035"/>
  <outline>
    <contour>
      <point x="238.69285714285715" y="-13.0" type="curve" smooth="yes"/>
      <point x="355.23035714285714" y="-13.0"/>
      <point x="460.45535714285717" y="63.23392857142857"/>
      <point x="460.45535714285717" y="196.92142857142858" type="curve" smooth="yes"/>
      <point x="460.45535714285717" y="321.9982142857143"/>
      <point x="382.7625" y="384.9982142857143"/>
      <point x="228.91785714285714" y="384.9982142857143" type="curve" smooth="yes"/>
      <point x="214.7642857142857" y="384.9982142857143"/>
      <point x="191.30178571428573" y="384.9214285714286"/>
      <point x="175.68571428571428" y="384.76785714285717" type="curve"/>
      <point x="197.6107142857143" y="579.7053571428571" type="line"/>
      <point x="433.4607142857143" y="579.7053571428571" type="line" smooth="yes"/>
      <point x="451.45892857142854" y="579.7053571428571"/>
      <point x="457.61071428571427" y="602.8589285714286"/>
      <point x="457.61071428571427" y="627.3892857142857" type="curve" smooth="yes"/>
      <point x="457.61071428571427" y="637.0785714285714"/>
      <point x="454.3803571428571" y="639.0"/>
      <point x="449.1517857142857" y="639.0" type="curve" smooth="yes"/>
      <point x="148.54285714285714" y="639.0" type="line"/>
      <point x="113.3125" y="327.6232142857143" type="line"/>
      <point x="138.92857142857142" y="331.46964285714284"/>
      <point x="184.62142857142857" y="334.46964285714284"/>
      <point x="210.00714285714287" y="334.46964285714284" type="curve" smooth="yes"/>
      <point x="337.8589285714286" y="334.46964285714284"/>
      <point x="391.6303571428571" y="264.61785714285713"/>
      <point x="391.6303571428571" y="190.23035714285714" type="curve" smooth="yes"/>
      <point x="391.6303571428571" y="95.30357142857143"/>
      <point x="330.31964285714287" y="31.06607142857143"/>
      <point x="235.85" y="31.06607142857143" type="curve" smooth="yes"/>
      <point x="143.54107142857143" y="31.06607142857143"/>
      <point x="104.76964285714286" y="84.22321428571429"/>
      <point x="89.07678571428572" y="84.22321428571429" type="curve" smooth="yes"/>
      <point x="80.4625" y="84.22321428571429"/>
      <point x="78.77142857142857" y="78.99285714285715"/>
      <point x="78.77142857142857" y="58.075" type="curve" smooth="yes"/>
      <point x="78.77142857142857" y="39.15357142857143"/>
      <point x="83.61607142857143" y="26.923214285714284"/>
      <point x="96.0" y="16.0" type="curve" smooth="yes"/>
      <point x="107.99642857142857" y="6.1553571428571425"/>
      <point x="148.07321428571427" y="-13.0"/>
    </contour>
  </outline>
</glyph>
<glyph name="six" format="2">
  <advance width="561.9196428571429"/>
  <unicode hex="0036"/>
  <outline>
    <contour>
      <point x="277.2267857142857" y="-13.0" type="curve" smooth="yes"/>
      <point x="420.06964285714287" y="-13.0"/>
      <point x="502.2214285714286" y="102.23392857142858"/>
      <point x="502.2214285714286" y="221.0" type="curve" smooth="yes"/>
      <point x="502.2214285714286" y="331.4535714285714"/>
      <point x="436.30357142857144" y="418.07678571428573"/>
      <point x="296.68392857142857" y="418.07678571428573" type="curve" smooth="yes"/>
      <point x="214.0625" y="418.07678571428573"/>
      <point x="159.2125" y="378.91785714285714"/>
      <point x="140.98035714285714" y="360.91607142857146" type="curve"/>
      <point x="184.37142857142857" y="553.2464285714286"/>
      <point x="302.9946428571429" y="610.6232142857143"/>
      <point x="415.1482142857143" y="610.6232142857143" type="curve" smooth="yes"/>
      <point x="422.45535714285717" y="610.6232142857143"/>
      <point x="424.6089285714286" y="615.2375"/>
      <point x="424.6089285714286" y="621.0821428571429" type="curve" smooth="yes"/>
      <point x="424.6089285714286" y="634.5392857142857"/>
      <point x="412.6857142857143" y="652.0"/>
      <point x="382.84285714285716" y="652.0" type="curve" smooth="yes"/>
      <point x="245.99285714285713" y="652.0"/>
      <point x="63.308928571428574" y="529.9196428571429"/>
      <point x="63.308928571428574" y="242.38214285714287" type="curve" smooth="yes"/>
      <point x="63.308928571428574" y="90.0"/>
      <point x="127.15357142857142" y="-13.0"/>
    </contour>
    <contour>
      <point x="282.3803571428571" y="25.301785714285714" type="curve" smooth="yes"/>
      <point x="161.75357142857143" y="25.301785714285714"/>
      <point x="134.2125" y="144.15178571428572"/>
      <point x="134.2125" y="232.4625" type="curve" smooth="yes"/>
      <point x="134.2125" y="245.30892857142857"/>
      <point x="135.1357142857143" y="264.30892857142857"/>
      <point x="137.05892857142857" y="270.3857142857143" type="curve" smooth="yes"/>
      <point x="156.06071428571428" y="337.15714285714284"/>
      <point x="229.68392857142857" y="379.6982142857143"/>
      <point x="298.5357142857143" y="379.6982142857143" type="curve" smooth="yes"/>
      <point x="365.9267857142857" y="379.6982142857143"/>
      <point x="431.39464285714286" y="335.4660714285714"/>
      <point x="431.39464285714286" y="217.76964285714286" type="curve" smooth="yes"/>
      <point x="431.39464285714286" y="92.15"/>
      <point x="360.08035714285717" y="25.301785714285714"/>
    </contour>
  </outline>
</glyph>
<glyph name="seven" format="2">
  <advance width="519.2321428571429"/>
  <unicode hex="0037"/>
  <outline>
    <contour>
      <point x="134.1482142857143" y="-13.0" type="curve" smooth="yes"/>
      <point x="148.99107142857142" y="-13.0"/>
      <point x="160.9125" y="-11.0"/>
      <point x="166.52678571428572" y="-2.001785714285714" type="curve" smooth="yes"/>
      <point x="275.3" y="152.5392857142857"/>
      <point x="415.68392857142857" y="463.3142857142857"/>
      <point x="456.0732142857143" y="545.3946428571429" type="curve" smooth="yes"/>
      <point x="464.5357142857143" y="562.0107142857142"/>
      <point x="475.1517857142857" y="581.6232142857143"/>
      <point x="475.1517857142857" y="587.8517857142857" type="curve" smooth="yes"/>
      <point x="475.1517857142857" y="615.5392857142857"/>
      <point x="463.5357142857143" y="639.0"/>
      <point x="457.38392857142856" y="639.0" type="curve" smooth="yes"/>
      <point x="101.6875" y="639.0" type="line" smooth="yes"/>
      <point x="88.92142857142858" y="639.0"/>
      <point x="81.38571428571429" y="611.2321428571429"/>
      <point x="81.38571428571429" y="579.6303571428572" type="curve" smooth="yes"/>
      <point x="81.38571428571429" y="569.0196428571429"/>
      <point x="82.76964285714286" y="565.0196428571429"/>
      <point x="88.61428571428571" y="565.0196428571429" type="curve" smooth="yes"/>
      <point x="98.61428571428571" y="565.0196428571429"/>
      <point x="187.07142857142858" y="578.5589285714286"/>
      <point x="405.8589285714286" y="578.5589285714286" type="curve"/>
      <point x="367.85714285714283" y="466.5571428571429"/>
      <point x="197.15714285714284" y="128.15178571428572"/>
      <point x="100.53928571428571" y="15.380357142857143" type="curve" smooth="yes"/>
      <point x="97.15535714285714" y="10.996428571428572"/>
      <point x="91.4625" y="5.842857142857143"/>
      <point x="91.4625" y="2.305357142857143" type="curve" smooth="yes"/>
      <point x="91.4625" y="-7.1553571428571425"/>
      <point x="114.99821428571428" y="-13.0"/>
    </contour>
  </outline>
</glyph>
<glyph name="eight" format="2">
  <advance width="579.3857142857142"/>
  <unicode hex="0038"/>
  <outline>
    <contour>
      <point x="262.30892857142857" y="-13.0" type="curve" smooth="yes"/>
      <point x="415.5339285714286" y="-13.0"/>
      <point x="494.6875" y="80.075"/>
      <point x="494.6875" y="179.45892857142857" type="curve" smooth="yes"/>
      <point x="494.6875" y="240.30357142857142"/>
      <point x="472.22857142857146" y="284.99285714285713"/>
      <point x="364.0678571428571" y="343.15" type="curve"/>
      <point x="432.8375" y="372.45892857142854"/>
      <point x="490.76428571428573" y="430.9982142857143"/>
      <point x="490.76428571428573" y="510.77142857142854" type="curve" smooth="yes"/>
      <point x="490.76428571428573" y="596.6964285714286"/>
      <point x="414.8375" y="652.0"/>
      <point x="307.92321428571427" y="652.0" type="curve" smooth="yes"/>
      <point x="216.00892857142858" y="652.0"/>
      <point x="113.62142857142857" y="610.4696428571428"/>
      <point x="113.62142857142857" y="496.6982142857143" type="curve" smooth="yes"/>
      <point x="113.62142857142857" y="428.1589285714286"/>
      <point x="157.1625" y="371.92857142857144"/>
      <point x="227.78035714285716" y="333.3125" type="curve"/>
      <point x="125.85178571428571" y="296.6196428571429"/>
      <point x="68.84821428571429" y="238.7732142857143"/>
      <point x="68.84821428571429" y="151.30714285714285" type="curve" smooth="yes"/>
      <point x="68.84821428571429" y="64.76785714285714"/>
      <point x="136.85" y="-13.0"/>
    </contour>
    <contour>
      <point x="276.23214285714283" y="26.225" type="curve" smooth="yes"/>
      <point x="169.53035714285716" y="26.225"/>
      <point x="135.14464285714286" y="103.23214285714286"/>
      <point x="135.14464285714286" y="156.30892857142857" type="curve" smooth="yes"/>
      <point x="135.14464285714286" y="243.85535714285714"/>
      <point x="204.76785714285714" y="287.54821428571427"/>
      <point x="271.92857142857144" y="312.70178571428573" type="curve"/>
      <point x="294.9982142857143" y="299.70714285714286"/>
      <point x="425.86071428571427" y="268.4785714285714"/>
      <point x="425.86071428571427" y="151.3125" type="curve" smooth="yes"/>
      <point x="425.86071428571427" y="56.30357142857143"/>
      <point x="347.93035714285713" y="26.225"/>
    </contour>
    <contour>
      <point x="319.6875" y="361.60714285714283" type="curve"/>
      <point x="239.14642857142857" y="400.2232142857143"/>
      <point x="184.37321428571428" y="437.91607142857146"/>
      <point x="184.37321428571428" y="509.30535714285713" type="curve" smooth="yes"/>
      <point x="184.37321428571428" y="585.6196428571428"/>
      <point x="245.99464285714285" y="615.4678571428572"/>
      <point x="305.69107142857143" y="615.4678571428572" type="curve" smooth="yes"/>
      <point x="371.69464285714287" y="615.4678571428572"/>
      <point x="427.46785714285716" y="573.0035714285714"/>
      <point x="427.46785714285716" y="510.77142857142854" type="curve" smooth="yes"/>
      <point x="427.46785714285716" y="453.84464285714284"/>
      <point x="388.3875" y="401.8410714285714"/>
    </contour>
  </outline>
</glyph>
<glyph name="nine" format="2">
  <advance width="541.5357142857143"/>
  <unicode hex="0039"/>
  <outline>
    <contour>
      <point x="167.6875" y="-13.0" type="curve" smooth="yes"/>
      <point x="304.5375" y="-13.0"/>
      <point x="487.2214285714286" y="109.08035714285714"/>
      <point x="487.2214285714286" y="396.61785714285713" type="curve" smooth="yes"/>
      <point x="487.2214285714286" y="549.0"/>
      <point x="423.3767857142857" y="652.0"/>
      <point x="273.30357142857144" y="652.0" type="curve" smooth="yes"/>
      <point x="130.4607142857143" y="652.0"/>
      <point x="48.308928571428574" y="536.7660714285714"/>
      <point x="48.308928571428574" y="418.0" type="curve" smooth="yes"/>
      <point x="48.308928571428574" y="307.5464285714286"/>
      <point x="114.22678571428571" y="220.9232142857143"/>
      <point x="253.84642857142856" y="220.9232142857143" type="curve" smooth="yes"/>
      <point x="336.46785714285716" y="220.9232142857143"/>
      <point x="391.3178571428571" y="260.08214285714286"/>
      <point x="409.55" y="278.08392857142854" type="curve"/>
      <point x="366.1589285714286" y="85.75357142857143"/>
      <point x="247.53571428571428" y="28.376785714285717"/>
      <point x="135.38214285714287" y="28.376785714285717" type="curve" smooth="yes"/>
      <point x="128.075" y="28.376785714285717"/>
      <point x="125.92142857142858" y="23.7625"/>
      <point x="125.92142857142858" y="17.917857142857144" type="curve" smooth="yes"/>
      <point x="125.92142857142858" y="4.460714285714285"/>
      <point x="137.84464285714284" y="-13.0"/>
    </contour>
    <contour>
      <point x="251.99464285714285" y="259.1482142857143" type="curve" smooth="yes"/>
      <point x="184.60357142857143" y="259.1482142857143"/>
      <point x="119.13571428571429" y="303.3803571428571"/>
      <point x="119.13571428571429" y="421.07678571428573" type="curve" smooth="yes"/>
      <point x="119.13571428571429" y="546.6964285714286"/>
      <point x="190.45" y="613.5446428571429"/>
      <point x="268.15" y="613.5446428571429" type="curve" smooth="yes"/>
      <point x="388.7767857142857" y="613.5446428571429"/>
      <point x="416.3178571428571" y="494.69464285714287"/>
      <point x="416.3178571428571" y="406.38392857142856" type="curve" smooth="yes"/>
      <point x="416.3178571428571" y="393.6142857142857"/>
      <point x="415.39464285714286" y="374.38392857142856"/>
      <point x="413.4714285714286" y="368.4607142857143" type="curve" smooth="yes"/>
      <point x="394.39285714285717" y="301.6892857142857"/>
      <point x="320.8464285714286" y="259.1482142857143"/>
    </contour>
  </outline>
</glyph>
<glyph name="colon" format="2">
  <advance width="275.0"/>
  <unicode hex="003A"/>
  <outline>
    <contour>
      <point x="113.76428571428572" y="22.958928571428572" type="curve" smooth="yes"/>
      <point x="141.68392857142857" y="22.958928571428572"/>
      <point x="161.44642857142858" y="43.801785714285714"/>
      <point x="162.36964285714285" y="67.56607142857143" type="curve" smooth="yes"/>
      <point x="164.21607142857144" y="104.17678571428571"/>
      <point x="145.9125" y="121.6375"/>
      <point x="129.37857142857143" y="121.6375" type="curve" smooth="yes"/>
      <point x="110.23035714285714" y="121.6375"/>
      <point x="79.08035714285714" y="98.56071428571428"/>
      <point x="79.08035714285714" y="62.642857142857146" type="curve" smooth="yes"/>
      <point x="79.08035714285714" y="37.260714285714286"/>
      <point x="89.23035714285714" y="22.958928571428572"/>
    </contour>
    <contour>
      <point x="155.15714285714284" y="368.2857142857143" type="curve" smooth="yes"/>
      <point x="175.22857142857143" y="368.2857142857143"/>
      <point x="206.37857142857143" y="391.3625"/>
      <point x="206.37857142857143" y="427.28035714285716" type="curve" smooth="yes"/>
      <point x="206.37857142857143" y="452.6625"/>
      <point x="195.30535714285713" y="466.9642857142857"/>
      <point x="171.69464285714287" y="466.9642857142857" type="curve" smooth="yes"/>
      <point x="142.8517857142857" y="466.9642857142857"/>
      <point x="123.08928571428571" y="446.12142857142857"/>
      <point x="123.08928571428571" y="422.28035714285716" type="curve" smooth="yes"/>
      <point x="123.08928571428571" y="385.74642857142857"/>
      <point x="139.54642857142858" y="368.2857142857143"/>
    </contour>
  </outline>
</glyph>
<glyph name="semicolon" format="2">
  <advance width="277.7660714285714"/>
  <unicode hex="003B"/>
  <outline>
    <contour>
      <point x="159.92142857142858" y="391.32142857142856" type="curve" smooth="yes"/>
      <point x="178.60892857142858" y="391.32142857142856"/>
      <point x="210.37321428571428" y="415.85714285714283"/>
      <point x="210.37321428571428" y="450.7" type="curve" smooth="yes"/>
      <point x="210.37321428571428" y="478.0785714285714"/>
      <point x="198.53214285714284" y="490.0"/>
      <point x="175.53571428571428" y="490.0" type="curve" smooth="yes"/>
      <point x="146.23214285714286" y="490.0"/>
      <point x="127.08392857142857" y="470.61607142857144"/>
      <point x="127.08392857142857" y="445.7767857142857" type="curve" smooth="yes"/>
      <point x="127.08392857142857" y="411.1625"/>
      <point x="142.7732142857143" y="391.32142857142856"/>
    </contour>
    <contour>
      <point x="43.457142857142856" y="-78.07678571428572" type="curve" smooth="yes"/>
      <point x="56.06964285714286" y="-78.07678571428572"/>
      <point x="66.14642857142857" y="-74.15357142857142"/>
      <point x="72.75892857142857" y="-68.15535714285714" type="curve" smooth="yes"/>
      <point x="108.9125" y="-29.230357142857144"/>
      <point x="174.9875" y="54.385714285714286"/>
      <point x="174.9875" y="85.38571428571429" type="curve" smooth="yes"/>
      <point x="174.9875" y="94.07678571428572"/>
      <point x="170.68035714285713" y="104.5375"/>
      <point x="162.52857142857144" y="113.76607142857142" type="curve" smooth="yes"/>
      <point x="156.37678571428572" y="119.99464285714286"/>
      <point x="146.30535714285713" y="126.45178571428572"/>
      <point x="136.38392857142858" y="126.45178571428572" type="curve" smooth="yes"/>
      <point x="131.76964285714286" y="126.45178571428572"/>
      <point x="130.4625" y="125.22142857142858"/>
      <point x="128.00178571428572" y="117.99285714285715" type="curve" smooth="yes"/>
      <point x="103.07678571428572" y="59.142857142857146"/>
      <point x="51.53928571428571" y="-32.93035714285714"/>
      <point x="39.464285714285715" y="-53.31071428571428" type="curve" smooth="yes"/>
      <point x="31.617857142857144" y="-65.31071428571428"/>
      <point x="28.541071428571428" y="-69.46428571428571"/>
      <point x="28.541071428571428" y="-71.54107142857143" type="curve" smooth="yes"/>
      <point x="28.541071428571428" y="-74.54107142857143"/>
      <point x="35.767857142857146" y="-78.07678571428572"/>
    </contour>
  </outline>
</glyph>
<glyph name="less" format="2">
  <advance width="540.0"/>
  <unicode hex="003C"/>
  <outline>
    <contour>
      <point x="430.0785714285714" y="114.46607142857142" type="curve" smooth="yes"/>
      <point x="441.8482142857143" y="114.46607142857142"/>
      <point x="442.30892857142857" y="130.84821428571428"/>
      <point x="442.30892857142857" y="149.61607142857142" type="curve" smooth="yes"/>
      <point x="442.30892857142857" y="156.22857142857143"/>
      <point x="441.925" y="163.2267857142857"/>
      <point x="426.23571428571427" y="170.99464285714285" type="curve" smooth="yes"/>
      <point x="140.75357142857143" y="304.54285714285714" type="line"/>
      <point x="466.4642857142857" y="441.0892857142857" type="line" smooth="yes"/>
      <point x="485.0785714285714" y="449.31964285714287"/>
      <point x="484.92321428571427" y="475.6267857142857"/>
      <point x="484.92321428571427" y="486.61607142857144" type="curve" smooth="yes"/>
      <point x="484.92321428571427" y="497.61071428571427"/>
      <point x="481.4625" y="508.76428571428573"/>
      <point x="476.15535714285716" y="508.76428571428573" type="curve" smooth="yes"/>
      <point x="471.925" y="508.76428571428573"/>
      <point x="464.69464285714287" y="507.61071428571427"/>
      <point x="451.3875" y="501.5339285714286" type="curve" smooth="yes"/>
      <point x="97.925" y="347.8410714285714" type="line" smooth="yes"/>
      <point x="84.54107142857143" y="341.6875"/>
      <point x="76.54107142857143" y="333.15"/>
      <point x="76.54107142857143" y="320.22857142857146" type="curve" smooth="yes"/>
      <point x="76.54107142857143" y="290.23035714285714"/>
      <point x="79.77142857142857" y="278.4660714285714"/>
      <point x="96.30892857142857" y="270.23571428571427" type="curve" smooth="yes"/>
      <point x="410.0785714285714" y="122.38928571428572" type="line" smooth="yes"/>
      <point x="423.0785714285714" y="116.38928571428572"/>
      <point x="426.0785714285714" y="114.46607142857142"/>
    </contour>
  </outline>
</glyph>
<glyph name="equal" format="2">
  <advance width="550.7678571428571"/>
  <unicode hex="003D"/>
  <outline>
    <contour>
      <point x="131.56428571428572" y="386.29285714285714" type="curve" smooth="yes"/>
      <point x="418.65714285714284" y="386.29285714285714" type="line" smooth="yes"/>
      <point x="432.2767857142857" y="386.29285714285714"/>
      <point x="437.74107142857144" y="406.8392857142857"/>
      <point x="437.74107142857144" y="422.08035714285717" type="curve" smooth="yes"/>
      <point x="437.74107142857144" y="426.70178571428573"/>
      <point x="435.35535714285714" y="427.3178571428571"/>
      <point x="431.50714285714287" y="427.3178571428571" type="curve" smooth="yes"/>
      <point x="144.4142857142857" y="427.3178571428571" type="line" smooth="yes"/>
      <point x="130.79464285714286" y="427.3178571428571"/>
      <point x="125.33035714285714" y="407.69464285714287"/>
      <point x="125.33035714285714" y="392.53035714285716" type="curve" smooth="yes"/>
      <point x="125.33035714285714" y="386.9089285714286"/>
      <point x="127.71607142857144" y="386.29285714285714"/>
    </contour>
    <contour>
      <point x="120.56428571428572" y="225.6875" type="curve" smooth="yes"/>
      <point x="407.65714285714284" y="225.6875" type="line" smooth="yes"/>
      <point x="421.2767857142857" y="225.6875"/>
      <point x="425.8178571428571" y="244.31071428571428"/>
      <point x="425.8178571428571" y="259.475" type="curve" smooth="yes"/>
      <point x="425.8178571428571" y="265.17321428571427"/>
      <point x="424.35535714285714" y="265.7892857142857"/>
      <point x="420.50714285714287" y="265.7892857142857" type="curve" smooth="yes"/>
      <point x="133.4142857142857" y="265.7892857142857" type="line" smooth="yes"/>
      <point x="118.87142857142857" y="265.7892857142857"/>
      <point x="114.33035714285714" y="245.16607142857143"/>
      <point x="114.33035714285714" y="230.84821428571428" type="curve" smooth="yes"/>
      <point x="114.33035714285714" y="226.2267857142857"/>
      <point x="116.71607142857144" y="225.6875"/>
    </contour>
  </outline>
</glyph>
<glyph name="greater" format="2">
  <advance width="533.0714285714286"/>
  <unicode hex="003E"/>
  <outline>
    <contour>
      <point x="74.6125" y="113.54285714285714" type="curve" smooth="yes"/>
      <point x="78.84285714285714" y="113.54285714285714"/>
      <point x="86.07321428571429" y="114.69642857142857"/>
      <point x="99.38035714285715" y="120.77321428571429" type="curve" smooth="yes"/>
      <point x="452.6125" y="274.38928571428573" type="line" smooth="yes"/>
      <point x="467.30357142857144" y="280.69642857142856"/>
      <point x="474.2267857142857" y="291.6142857142857"/>
      <point x="474.2267857142857" y="306.8410714285714" type="curve" smooth="yes"/>
      <point x="474.2267857142857" y="334.5339285714286"/>
      <point x="471.91964285714283" y="343.8410714285714"/>
      <point x="454.45892857142854" y="352.07142857142856" type="curve" smooth="yes"/>
      <point x="141.6125" y="499.91785714285714" type="line" smooth="yes"/>
      <point x="128.6125" y="505.91785714285714"/>
      <point x="124.68928571428572" y="507.8410714285714"/>
      <point x="120.68928571428572" y="507.8410714285714" type="curve" smooth="yes"/>
      <point x="108.91964285714286" y="507.8410714285714"/>
      <point x="108.45892857142857" y="491.45892857142854"/>
      <point x="108.45892857142857" y="472.69107142857143" type="curve" smooth="yes"/>
      <point x="108.45892857142857" y="466.0785714285714"/>
      <point x="108.84285714285714" y="459.08035714285717"/>
      <point x="124.53214285714286" y="452.23571428571427" type="curve" smooth="yes"/>
      <point x="410.01428571428573" y="317.76428571428573" type="line"/>
      <point x="84.30357142857143" y="181.21785714285716" type="line" smooth="yes"/>
      <point x="65.68928571428572" y="172.9875"/>
      <point x="65.84464285714286" y="142.9875"/>
      <point x="65.84464285714286" y="131.99821428571428" type="curve" smooth="yes"/>
      <point x="65.84464285714286" y="121.00357142857143"/>
      <point x="69.30535714285715" y="113.54285714285714"/>
    </contour>
  </outline>
</glyph>
<glyph name="question" format="2">
  <advance width="447.0"/>
  <unicode hex="003F"/>
  <outline>
    <contour>
      <point x="138.38214285714287" y="209.91785714285714" type="curve" smooth="yes"/>
      <point x="152.38214285714287" y="209.91785714285714"/>
      <point x="144.07142857142858" y="238.53571428571428"/>
      <point x="220.7732142857143" y="295.6196428571429" type="curve" smooth="yes"/>
      <point x="288.5357142857143" y="346.1535714285714"/>
      <point x="384.2214285714286" y="406.85357142857146"/>
      <point x="384.2214285714286" y="502.4625" type="curve" smooth="yes"/>
      <point x="384.2214285714286" y="545.0785714285714"/>
      <point x="370.8375" y="578.2321428571429"/>
      <point x="349.53035714285716" y="601.6160714285714" type="curve" smooth="yes"/>
      <point x="316.6857142857143" y="637.6142857142858"/>
      <point x="262.6892857142857" y="652.0"/>
      <point x="204.6125" y="652.0" type="curve" smooth="yes"/>
      <point x="141.38035714285715" y="652.0"/>
      <point x="74.76607142857142" y="627.8446428571428"/>
      <point x="44.38392857142857" y="584.0732142857142" type="curve" smooth="yes"/>
      <point x="40.925" y="580.3053571428571"/>
      <point x="37.925" y="575.3071428571428"/>
      <point x="37.925" y="566.4625" type="curve" smooth="yes"/>
      <point x="37.925" y="543.2357142857143"/>
      <point x="45.232142857142854" y="528.0821428571429"/>
      <point x="53.84642857142857" y="528.0821428571429" type="curve" smooth="yes"/>
      <point x="56.92321428571429" y="528.0821428571429"/>
      <point x="65.61607142857143" y="539.2375"/>
      <point x="83.07857142857142" y="558.1625" type="curve" smooth="yes"/>
      <point x="105.76964285714286" y="581.625"/>
      <point x="148.4625" y="608.8571428571429"/>
      <point x="215.15892857142856" y="608.8571428571429" type="curve" smooth="yes"/>
      <point x="279.7035714285714" y="608.8571428571429"/>
      <point x="312.5517857142857" y="560.5446428571429"/>
      <point x="312.5517857142857" y="504.61785714285713" type="curve" smooth="yes"/>
      <point x="312.5517857142857" y="428.6875"/>
      <point x="231.00357142857143" y="367.4535714285714"/>
      <point x="169.4625" y="319.3767857142857" type="curve" smooth="yes"/>
      <point x="147.00178571428572" y="301.3017857142857"/>
      <point x="125.38392857142857" y="275.225"/>
      <point x="125.38392857142857" y="244.68571428571428" type="curve" smooth="yes"/>
      <point x="125.38392857142857" y="230.7642857142857"/>
      <point x="126.38214285714285" y="209.91785714285714"/>
    </contour>
    <contour>
      <point x="147.53392857142856" y="-0.07678571428571429" type="curve" smooth="yes"/>
      <point x="175.9142857142857" y="-0.07678571428571429"/>
      <point x="195.9857142857143" y="19.307142857142857"/>
      <point x="195.9857142857143" y="44.14642857142857" type="curve" smooth="yes"/>
      <point x="195.9857142857143" y="78.76071428571429"/>
      <point x="180.29642857142858" y="98.60178571428571"/>
      <point x="163.1482142857143" y="98.60178571428571" type="curve" smooth="yes"/>
      <point x="144.4607142857143" y="98.60178571428571"/>
      <point x="112.69642857142857" y="74.06607142857143"/>
      <point x="112.69642857142857" y="39.14642857142857" type="curve" smooth="yes"/>
      <point x="112.69642857142857" y="11.844642857142857"/>
      <point x="123.61428571428571" y="-0.07678571428571429"/>
    </contour>
  </outline>
</glyph>
<glyph name="at" format="2">
  <advance width="813.1392857142857"/>
  <unicode hex="0040"/>
  <outline>
    <contour>
      <point x="130.53214285714284" y="-130.30892857142857" type="curve" smooth="yes"/>
      <point x="136.83928571428572" y="-130.30892857142857"/>
      <point x="141.06964285714287" y="-128.15535714285716"/>
      <point x="141.06964285714287" y="-124.00178571428572" type="curve" smooth="yes"/>
      <point x="141.06964285714287" y="-118.00178571428572"/>
      <point x="135.14642857142857" y="-102.38571428571429"/>
      <point x="131.99285714285713" y="-92.69464285714285" type="curve" smooth="yes"/>
      <point x="101.60714285714286" y="12.308928571428572"/>
      <point x="87.76071428571429" y="107.00357142857143"/>
      <point x="87.76071428571429" y="192.9232142857143" type="curve" smooth="yes"/>
      <point x="87.76071428571429" y="458.54464285714283"/>
      <point x="233.30535714285713" y="603.2357142857143"/>
      <point x="430.21964285714284" y="603.2357142857143" type="curve" smooth="yes"/>
      <point x="642.9035714285715" y="603.2357142857143"/>
      <point x="741.525" y="502.3125"/>
      <point x="741.525" y="352.84285714285716" type="curve" smooth="yes"/>
      <point x="741.525" y="238.9125"/>
      <point x="696.6" y="145.75535714285715"/>
      <point x="628.7482142857143" y="74.13571428571429" type="curve" smooth="yes"/>
      <point x="614.5178571428571" y="59.29107142857143"/>
      <point x="604.0571428571428" y="50.676785714285714"/>
      <point x="597.9035714285715" y="50.676785714285714" type="curve" smooth="yes"/>
      <point x="587.2107142857143" y="50.676785714285714"/>
      <point x="584.3642857142858" y="56.214285714285715"/>
      <point x="584.3642857142858" y="92.36785714285715" type="curve" smooth="yes"/>
      <point x="584.3642857142858" y="211.15"/>
      <point x="597.8267857142857" y="385.2339285714286"/>
      <point x="597.8267857142857" y="392.3107142857143" type="curve"/>
      <point x="602.75" y="392.3107142857143"/>
      <point x="608.1339285714286" y="403.0017857142857"/>
      <point x="608.1339285714286" y="418.61607142857144" type="curve" smooth="yes"/>
      <point x="608.1339285714286" y="424.07678571428573"/>
      <point x="606.9803571428571" y="425.0"/>
      <point x="603.9035714285715" y="426.0" type="curve" smooth="yes"/>
      <point x="526.2964285714286" y="440.4607142857143"/>
      <point x="436.9089285714286" y="448.23035714285714"/>
      <point x="417.6089285714286" y="448.23035714285714" type="curve" smooth="yes"/>
      <point x="359.22857142857146" y="448.23035714285714"/>
      <point x="306.5357142857143" y="414.0"/>
      <point x="263.6892857142857" y="356.1535714285714" type="curve" smooth="yes"/>
      <point x="219.68928571428572" y="297.07678571428573"/>
      <point x="216.76607142857142" y="120.07678571428572"/>
      <point x="216.76607142857142" y="56.225" type="curve" smooth="yes"/>
      <point x="216.76607142857142" y="36.68571428571428"/>
      <point x="217.76607142857142" y="24.839285714285715"/>
      <point x="220.68928571428572" y="18.225" type="curve" smooth="yes"/>
      <point x="224.84285714285716" y="6.614285714285714"/>
      <point x="258.3732142857143" y="-13.0"/>
      <point x="268.8339285714286" y="-13.0" type="curve" smooth="yes"/>
      <point x="322.21964285714284" y="-13.0"/>
      <point x="470.06964285714287" y="175.69821428571427"/>
      <point x="528.3839285714286" y="295.3232142857143" type="curve"/>
      <point x="521.7678571428571" y="219.93035714285713"/>
      <point x="516.9982142857143" y="103.6125"/>
      <point x="516.9982142857143" y="56.225" type="curve" smooth="yes"/>
      <point x="516.9982142857143" y="36.68571428571428"/>
      <point x="517.075" y="24.839285714285715"/>
      <point x="519.9982142857143" y="18.225" type="curve" smooth="yes"/>
      <point x="524.1517857142857" y="6.614285714285714"/>
      <point x="558.6053571428571" y="-13.0"/>
      <point x="568.1428571428571" y="-13.0" type="curve" smooth="yes"/>
      <point x="583.9892857142858" y="-13.0"/>
      <point x="612.8357142857143" y="4.076785714285714"/>
      <point x="642.0660714285714" y="35.07678571428571" type="curve" smooth="yes"/>
      <point x="726.0607142857143" y="125.30357142857143"/>
      <point x="785.7517857142857" y="239.1482142857143"/>
      <point x="785.7517857142857" y="356.1482142857143" type="curve" smooth="yes"/>
      <point x="785.7517857142857" y="503.54285714285714"/>
      <point x="699.8214285714286" y="652.0"/>
      <point x="428.21785714285716" y="652.0" type="curve" smooth="yes"/>
      <point x="174.53571428571428" y="652.0"/>
      <point x="38.38392857142857" y="466.99642857142857"/>
      <point x="38.38392857142857" y="209.76607142857142" type="curve" smooth="yes"/>
      <point x="38.38392857142857" y="111.76607142857142"/>
      <point x="57.767857142857146" y="4.689285714285715"/>
      <point x="98.45892857142857" y="-107.15535714285714" type="curve" smooth="yes"/>
      <point x="103.68928571428572" y="-122.4625"/>
      <point x="117.61071428571428" y="-130.30892857142857"/>
    </contour>
    <contour>
      <point x="297.9017857142857" y="50.6" type="curve" smooth="yes"/>
      <point x="287.2089285714286" y="50.6"/>
      <point x="284.2857142857143" y="55.6"/>
      <point x="284.2857142857143" y="92.06071428571428" type="curve" smooth="yes"/>
      <point x="284.2857142857143" y="298.5357142857143"/>
      <point x="321.75" y="410.00357142857143"/>
      <point x="390.9839285714286" y="410.00357142857143" type="curve" smooth="yes"/>
      <point x="421.67857142857144" y="410.00357142857143"/>
      <point x="468.29821428571427" y="406.15714285714284"/>
      <point x="535.9214285714286" y="392.8482142857143" type="curve"/>
      <point x="502.6857142857143" y="271.0017857142857"/>
      <point x="324.9035714285714" y="50.6"/>
    </contour>
  </outline>
</glyph>
<glyph name="A" format="2">
  <advance width="638.6125"/>
  <unicode hex="0041"/>
  <anchor x="308.5392857142857" y="0.0" name="bottom"/>
  <anchor x="521.9982142857143" y="0.0" name="ogonek"/>
  <anchor x="362.99642857142857" y="652.0" name="top"/>
  <outline>
    <contour>
      <point x="44.683928571428574" y="-13.0" type="curve" smooth="yes"/>
      <point x="50.605357142857144" y="-13.0"/>
      <point x="52.528571428571425" y="-10.769642857142857"/>
      <point x="55.45178571428571" y="-3.9232142857142858" type="curve" smooth="yes"/>
      <point x="66.37321428571428" y="25.6875"/>
      <point x="158.38214285714287" y="217.47321428571428"/>
      <point x="172.69107142857143" y="239.85892857142858" type="curve"/>
      <point x="203.30892857142857" y="240.85892857142858"/>
      <point x="260.7732142857143" y="243.78214285714284"/>
      <point x="312.3125" y="243.78214285714284" type="curve" smooth="yes"/>
      <point x="370.625" y="243.78214285714284"/>
      <point x="428.9321428571429" y="241.78214285714284"/>
      <point x="450.6232142857143" y="240.62857142857143" type="curve"/>
      <point x="475.0875" y="165.54464285714286"/>
      <point x="507.7839285714286" y="55.378571428571426"/>
      <point x="514.4767857142857" y="25.53214285714286" type="curve" smooth="yes"/>
      <point x="517.4" y="13.148214285714285"/>
      <point x="520.6303571428572" y="8.6875"/>
      <point x="524.0142857142857" y="5.303571428571429" type="curve" smooth="yes"/>
      <point x="533.7803571428572" y="-4.4625"/>
      <point x="556.8482142857143" y="-13.0"/>
      <point x="586.9214285714286" y="-13.0" type="curve" smooth="yes"/>
      <point x="599.6857142857143" y="-13.0"/>
      <point x="601.2232142857143" y="-9.539285714285715"/>
      <point x="601.2232142857143" y="-3.5410714285714286" type="curve" smooth="yes"/>
      <point x="601.2232142857143" y="0.3821428571428571"/>
      <point x="600.2232142857143" y="2.7660714285714287"/>
      <point x="597.1464285714286" y="12.380357142857143" type="curve" smooth="yes"/>
      <point x="568.1446428571429" y="103.45892857142857"/>
      <point x="418.98035714285714" y="552.4035714285715"/>
      <point x="397.05892857142857" y="630.4678571428572" type="curve" smooth="yes"/>
      <point x="394.675" y="640.5410714285714"/>
      <point x="365.60714285714283" y="652.0"/>
      <point x="336.23214285714283" y="652.0" type="curve" smooth="yes"/>
      <point x="326.3142857142857" y="652.0"/>
      <point x="323.00714285714287" y="650.6160714285714"/>
      <point x="320.7" y="644.4642857142857" type="curve" smooth="yes"/>
      <point x="267.8482142857143" y="536.5321428571428"/>
      <point x="46.75714285714286" y="99.58392857142857"/>
      <point x="6.458928571428571" y="30.683928571428574" type="curve" smooth="yes"/>
      <point x="3.998214285714286" y="25.685714285714287"/>
      <point x="1.1517857142857144" y="19.839285714285715"/>
      <point x="1.1517857142857144" y="17.37857142857143" type="curve" smooth="yes"/>
      <point x="1.1517857142857144" y="-2.4642857142857144"/>
      <point x="23.071428571428573" y="-13.0"/>
    </contour>
    <contour>
      <point x="194.91964285714286" y="286.6982142857143" type="line"/>
      <point x="219.38035714285715" y="334.61785714285713"/>
      <point x="307.4625" y="517.4732142857143"/>
      <point x="342.3875" y="570.0910714285715" type="curve"/>
      <point x="357.85" y="525.6285714285714"/>
      <point x="419.39285714285717" y="346.3142857142857"/>
      <point x="436.00892857142856" y="286.6982142857143" type="curve"/>
    </contour>
  </outline>
</glyph>
<glyph name="B" format="2">
  <advance width="572.6714285714286"/>
  <unicode hex="0042"/>
  <anchor x="254.6" y="0.0" name="bottom"/>
  <anchor x="294.2160714285714" y="652.0" name="top"/>
  <outline>
    <contour>
      <point x="95.3125" y="0.0" type="curve"/>
      <point x="268.05535714285713" y="0.0" type="line" smooth="yes"/>
      <point x="416.51428571428573" y="0.0"/>
      <point x="497.2035714285714" y="100.69464285714285"/>
      <point x="497.2035714285714" y="196.69107142857143" type="curve" smooth="yes"/>
      <point x="497.2035714285714" y="273.6892857142857"/>
      <point x="446.8982142857143" y="341.07678571428573"/>
      <point x="342.2035714285714" y="350.07678571428573" type="curve"/>
      <point x="371.12142857142857" y="360.3071428571429"/>
      <point x="477.8178571428571" y="398.22857142857146"/>
      <point x="477.8178571428571" y="509.3857142857143" type="curve" smooth="yes"/>
      <point x="477.8178571428571" y="593.7678571428571"/>
      <point x="414.5892857142857" y="639.0"/>
      <point x="290.5910714285714" y="639.0" type="curve" smooth="yes"/>
      <point x="130.775" y="639.0" type="line"/>
      <point x="122.46607142857142" y="423.45892857142854"/>
      <point x="101.775" y="73.38928571428572"/>
    </contour>
    <contour>
      <point x="259.9107142857143" y="40.91607142857143" type="curve" smooth="yes"/>
      <point x="185.675" y="40.91607142857143"/>
      <point x="173.29107142857143" y="47.37678571428572"/>
      <point x="173.44464285714287" y="86.06964285714285" type="curve" smooth="yes"/>
      <point x="173.675" y="145.91607142857143"/>
      <point x="177.52142857142857" y="275.85"/>
      <point x="181.44464285714287" y="319.0785714285714" type="curve"/>
      <point x="208.90892857142856" y="319.0785714285714"/>
      <point x="236.45" y="319.0785714285714"/>
      <point x="264.2214285714286" y="318.925" type="curve" smooth="yes"/>
      <point x="326.5285714285714" y="318.15714285714284"/>
      <point x="424.30357142857144" y="301.92857142857144"/>
      <point x="424.30357142857144" y="197.925" type="curve" smooth="yes"/>
      <point x="424.30357142857144" y="94.7625"/>
      <point x="359.68392857142857" y="40.91607142857143"/>
    </contour>
    <contour>
      <point x="185.36785714285713" y="356.76964285714286" type="curve"/>
      <point x="189.83035714285714" y="454.3178571428571"/>
      <point x="196.98392857142858" y="549.3107142857143"/>
      <point x="203.83035714285714" y="592.6982142857142" type="curve"/>
      <point x="222.29285714285714" y="594.5446428571429"/>
      <point x="256.3732142857143" y="598.2375"/>
      <point x="274.8357142857143" y="598.2375" type="curve" smooth="yes"/>
      <point x="361.06964285714287" y="598.2375"/>
      <point x="406.07142857142856" y="570.7767857142857"/>
      <point x="406.07142857142856" y="500.54285714285714" type="curve" smooth="yes"/>
      <point x="406.07142857142856" y="458.54107142857146"/>
      <point x="386.7625" y="418.3857142857143"/>
      <point x="358.91607142857146" y="396.30892857142857" type="curve" smooth="yes"/>
      <point x="318.375" y="364.3071428571429"/>
      <point x="272.2964285714286" y="356.76964285714286"/>
    </contour>
  </outline>
</glyph>
<glyph name="C" format="2">
  <advance width="669.1571428571428"/>
  <unicode hex="0043"/>
  <anchor x="365.9982142857143" y="0.0" name="bottom"/>
  <anchor x="404.9982142857143" y="652.0" name="top"/>
  <outline>
    <contour>
      <point x="398.3071428571429" y="-13.0" type="curve" smooth="yes"/>
      <point x="491.69464285714287" y="-13.0"/>
      <point x="572.2392857142858" y="8.464285714285714"/>
      <point x="600.7732142857143" y="24.541071428571428" type="curve" smooth="yes"/>
      <point x="612.2321428571429" y="30.694642857142856"/>
      <point x="616.4607142857143" y="49.69285714285714"/>
      <point x="616.4607142857143" y="71.7625" type="curve" smooth="yes"/>
      <point x="616.4607142857143" y="80.22321428571429"/>
      <point x="616.3071428571428" y="86.22321428571429"/>
      <point x="612.8464285714285" y="86.22321428571429" type="curve" smooth="yes"/>
      <point x="609.6928571428572" y="86.22321428571429"/>
      <point x="602.6928571428572" y="83.3"/>
      <point x="592.6928571428572" y="78.45357142857142" type="curve" smooth="yes"/>
      <point x="557.85" y="61.3"/>
      <point x="485.5375" y="37.989285714285714"/>
      <point x="391.91607142857146" y="37.989285714285714" type="curve" smooth="yes"/>
      <point x="249.98928571428573" y="37.989285714285714"/>
      <point x="132.67142857142858" y="124.37857142857143"/>
      <point x="132.67142857142858" y="315.76964285714286" type="curve" smooth="yes"/>
      <point x="132.67142857142858" y="511.3875"/>
      <point x="251.0625" y="606.3196428571429"/>
      <point x="398.0732142857143" y="606.3196428571429" type="curve" smooth="yes"/>
      <point x="525.5375" y="606.3196428571429"/>
      <point x="586.9232142857143" y="549.7017857142857"/>
      <point x="604.8464285714285" y="549.7017857142857" type="curve" smooth="yes"/>
      <point x="612.9196428571429" y="549.7017857142857"/>
      <point x="617.7660714285714" y="579.0035714285714"/>
      <point x="617.7660714285714" y="594.0803571428571" type="curve" smooth="yes"/>
      <point x="617.7660714285714" y="602.3857142857142"/>
      <point x="619.3053571428571" y="610.2303571428571"/>
      <point x="598.1517857142857" y="620.0767857142857" type="curve" smooth="yes"/>
      <point x="555.4625" y="640.2303571428571"/>
      <point x="490.3857142857143" y="652.0"/>
      <point x="386.45714285714286" y="652.0" type="curve" smooth="yes"/>
      <point x="152.99285714285713" y="652.0"/>
      <point x="58.848214285714285" y="485.0607142857143"/>
      <point x="58.848214285714285" y="309.1589285714286" type="curve" smooth="yes"/>
      <point x="58.848214285714285" y="58.38392857142857"/>
      <point x="235.47142857142856" y="-13.0"/>
    </contour>
  </outline>
</glyph>
<glyph name="D" format="2">
  <advance width="735.9160714285714"/>
  <unicode hex="0044"/>
  <anchor x="334.6857142857143" y="0.0" name="bottom"/>
  <anchor x="371.6142857142857" y="326.0" name="center"/>
  <anchor x="376.14464285714286" y="652.0" name="top"/>
  <outline>
    <contour>
      <point x="95.3125" y="0.0" type="curve"/>
      <point x="290.36607142857144" y="0.0" type="line" smooth="yes"/>
      <point x="560.6857142857143" y="0.0"/>
      <point x="682.6803571428571" y="151.0875"/>
      <point x="682.6803571428571" y="364.92321428571427" type="curve" smooth="yes"/>
      <point x="682.6803571428571" y="557.4517857142857"/>
      <point x="564.1482142857143" y="639.0"/>
      <point x="366.60357142857146" y="639.0" type="curve" smooth="yes"/>
      <point x="130.775" y="639.0" type="line"/>
      <point x="122.46607142857142" y="423.45892857142854"/>
      <point x="98.08214285714286" y="37.38392857142857"/>
    </contour>
    <contour>
      <point x="262.44464285714287" y="41.223214285714285" type="curve" smooth="yes"/>
      <point x="185.44464285714287" y="41.223214285714285"/>
      <point x="173.52142857142857" y="47.223214285714285"/>
      <point x="173.52142857142857" y="86.22321428571429" type="curve" smooth="yes"/>
      <point x="173.52142857142857" y="266.99107142857144"/>
      <point x="192.44464285714287" y="462.68392857142857"/>
      <point x="203.67678571428573" y="591.8535714285714" type="curve"/>
      <point x="247.68035714285713" y="596.7"/>
      <point x="288.29821428571427" y="598.7"/>
      <point x="327.8357142857143" y="598.7" type="curve" smooth="yes"/>
      <point x="514.3892857142857" y="598.7"/>
      <point x="602.3946428571429" y="533.8517857142857"/>
      <point x="602.3946428571429" y="350.1517857142857" type="curve" smooth="yes"/>
      <point x="602.3946428571429" y="122.92321428571428"/>
      <point x="467.3071428571429" y="41.223214285714285"/>
    </contour>
  </outline>
</glyph>
<glyph name="E" format="2">
  <advance width="553.0"/>
  <unicode hex="0045"/>
  <anchor x="279.6142857142857" y="0.0" name="bottom"/>
  <anchor x="419.6142857142857" y="0.0" name="ogonek"/>
  <anchor x="308.92321428571427" y="652.0" name="top"/>
  <anchor x="22.614285714285714" y="652.0" name="topleft"/>
  <outline>
    <contour>
      <point x="95.3125" y="0.0" type="curve"/>
      <point x="483.84285714285716" y="0.0" type="line" smooth="yes"/>
      <point x="492.53214285714284" y="0.0"/>
      <point x="502.225" y="29.148214285714285"/>
      <point x="502.225" y="47.225" type="curve" smooth="yes"/>
      <point x="502.225" y="56.60714285714286"/>
      <point x="502.225" y="62.683928571428574"/>
      <point x="497.07142857142856" y="62.683928571428574" type="curve" smooth="yes"/>
      <point x="489.8410714285714" y="62.683928571428574"/>
      <point x="436.30535714285713" y="42.29821428571429"/>
      <point x="263.36785714285713" y="42.29821428571429" type="curve" smooth="yes"/>
      <point x="186.36785714285713" y="42.29821428571429"/>
      <point x="174.44464285714287" y="48.528571428571425"/>
      <point x="174.44464285714287" y="86.91428571428571" type="curve" smooth="yes"/>
      <point x="174.44464285714287" y="152.1482142857143"/>
      <point x="176.675" y="230.7642857142857"/>
      <point x="181.29107142857143" y="309.3125" type="curve"/>
      <point x="219.90892857142856" y="309.3125" type="line" smooth="yes"/>
      <point x="356.1482142857143" y="309.3125"/>
      <point x="424.6089285714286" y="301.54285714285714"/>
      <point x="428.99285714285713" y="301.54285714285714" type="curve" smooth="yes"/>
      <point x="433.4535714285714" y="301.54285714285714"/>
      <point x="439.4535714285714" y="325.0017857142857"/>
      <point x="439.4535714285714" y="341.07678571428573" type="curve" smooth="yes"/>
      <point x="439.4535714285714" y="350.38214285714287"/>
      <point x="436.3" y="356.45892857142854"/>
      <point x="433.225" y="356.45892857142854" type="curve" smooth="yes"/>
      <point x="183.36785714285713" y="356.45892857142854" type="line"/>
      <point x="189.83035714285714" y="454.92857142857144"/>
      <point x="197.75357142857143" y="549.85"/>
      <point x="204.6" y="591.7767857142857" type="curve"/>
      <point x="236.1392857142857" y="591.7767857142857" type="line" smooth="yes"/>
      <point x="371.0732142857143" y="591.7767857142857"/>
      <point x="441.1482142857143" y="583.1607142857143"/>
      <point x="444.6089285714286" y="583.1607142857143" type="curve" smooth="yes"/>
      <point x="449.06964285714287" y="583.1607142857143"/>
      <point x="455.06964285714287" y="607.4660714285715"/>
      <point x="455.06964285714287" y="623.5410714285714" type="curve" smooth="yes"/>
      <point x="455.06964285714287" y="632.8464285714285"/>
      <point x="452.8392857142857" y="639.0"/>
      <point x="448.8410714285714" y="639.0" type="curve" smooth="yes"/>
      <point x="131.69821428571427" y="639.0" type="line"/>
      <point x="123.38928571428572" y="423.45892857142854"/>
      <point x="102.69821428571429" y="73.38928571428572"/>
    </contour>
  </outline>
</glyph>
<glyph name="F" format="2">
  <advance width="504.4607142857143"/>
  <unicode hex="0046"/>
  <anchor x="124.61428571428571" y="0.0" name="bottom"/>
  <anchor x="288.6142857142857" y="652.0" name="top"/>
  <outline>
    <contour>
      <point x="157.37321428571428" y="-13.0" type="curve" smooth="yes"/>
      <point x="168.1375" y="-13.0"/>
      <point x="170.36785714285713" y="-9.539285714285715"/>
      <point x="170.36785714285713" y="-3.0035714285714286" type="curve" smooth="yes"/>
      <point x="170.36785714285713" y="68.68928571428572"/>
      <point x="175.21428571428572" y="227.31607142857143"/>
      <point x="177.36785714285713" y="289.0053571428571" type="curve"/>
      <point x="216.75535714285715" y="289.0053571428571" type="line" smooth="yes"/>
      <point x="352.9946428571429" y="289.0053571428571"/>
      <point x="421.45535714285717" y="280.38928571428573"/>
      <point x="424.91607142857146" y="280.38928571428573" type="curve" smooth="yes"/>
      <point x="429.3767857142857" y="280.38928571428573"/>
      <point x="435.3767857142857" y="304.61785714285713"/>
      <point x="435.3767857142857" y="320.6928571428571" type="curve" smooth="yes"/>
      <point x="435.3767857142857" y="330.075"/>
      <point x="433.14642857142854" y="336.1517857142857"/>
      <point x="429.1482142857143" y="336.1517857142857" type="curve" smooth="yes"/>
      <point x="180.52142857142857" y="336.1517857142857" type="line"/>
      <point x="186.98392857142858" y="450.8589285714286"/>
      <point x="195.90714285714284" y="549.85"/>
      <point x="201.6" y="591.7767857142857" type="curve"/>
      <point x="234.21607142857144" y="591.7767857142857" type="line" smooth="yes"/>
      <point x="369.15" y="591.7767857142857"/>
      <point x="437.9946428571429" y="583.2375"/>
      <point x="442.37857142857143" y="583.2375" type="curve" smooth="yes"/>
      <point x="446.8392857142857" y="583.2375"/>
      <point x="452.8392857142857" y="607.4660714285715"/>
      <point x="452.8392857142857" y="623.5410714285714" type="curve" smooth="yes"/>
      <point x="452.8392857142857" y="632.8464285714285"/>
      <point x="450.6089285714286" y="639.0"/>
      <point x="446.61071428571427" y="639.0" type="curve" smooth="yes"/>
      <point x="129.46785714285716" y="639.0" type="line"/>
      <point x="129.46785714285716" y="554.3160714285714"/>
      <point x="115.39107142857142" y="251.08214285714286"/>
      <point x="104.00535714285714" y="115.6875" type="curve" smooth="yes"/>
      <point x="101.00535714285714" y="82.30535714285715"/>
      <point x="95.3125" y="20.60892857142857"/>
      <point x="95.3125" y="17.455357142857142" type="curve" smooth="yes"/>
      <point x="95.3125" y="-3.001785714285714"/>
      <point x="131.225" y="-13.0"/>
    </contour>
  </outline>
</glyph>
<glyph name="G" format="2">
  <advance width="719.1517857142857"/>
  <unicode hex="0047"/>
  <anchor x="356.9982142857143" y="0.0" name="bottom"/>
  <anchor x="390.9982142857143" y="652.0" name="top"/>
  <outline>
    <contour>
      <point x="378.91964285714283" y="-13.0" type="curve" smooth="yes"/>
      <point x="488.225" y="-13.0"/>
      <point x="570.2196428571428" y="0.9214285714285715"/>
      <point x="630.6071428571429" y="23.460714285714285" type="curve"/>
      <point x="635.7607142857142" y="119.37857142857143"/>
      <point x="641.8375" y="215.68035714285713"/>
      <point x="646.6839285714286" y="304.76428571428573" type="curve"/>
      <point x="442.6928571428571" y="304.76428571428573" type="line" smooth="yes"/>
      <point x="434.23214285714283" y="304.76428571428573"/>
      <point x="426.61785714285713" y="285.37857142857143"/>
      <point x="426.61785714285713" y="265.91964285714283" type="curve" smooth="yes"/>
      <point x="426.61785714285713" y="258.5375"/>
      <point x="429.54107142857146" y="253.15535714285716"/>
      <point x="434.77142857142854" y="253.15535714285716" type="curve" smooth="yes"/>
      <point x="440.0017857142857" y="253.15535714285716"/>
      <point x="463.8464285714286" y="257.8482142857143"/>
      <point x="577.1660714285714" y="257.8482142857143" type="curve"/>
      <point x="575.3196428571429" y="188.3875"/>
      <point x="567.55" y="74.91607142857143"/>
      <point x="565.6267857142857" y="56.07142857142857" type="curve"/>
      <point x="538.5482142857143" y="45.91607142857143"/>
      <point x="474.4642857142857" y="35.760714285714286"/>
      <point x="394.6857142857143" y="35.760714285714286" type="curve" smooth="yes"/>
      <point x="260.3696428571429" y="35.760714285714286"/>
      <point x="132.67142857142858" y="108.07142857142857"/>
      <point x="132.67142857142858" y="318.0785714285714" type="curve" smooth="yes"/>
      <point x="132.67142857142858" y="511.7"/>
      <point x="249.83392857142857" y="608.1660714285714"/>
      <point x="398.8410714285714" y="608.1660714285714" type="curve" smooth="yes"/>
      <point x="475.07142857142856" y="608.1660714285714"/>
      <point x="548.5357142857143" y="581.0107142857142"/>
      <point x="582.4589285714286" y="559.8553571428571" type="curve" smooth="yes"/>
      <point x="603.3821428571429" y="546.3928571428571"/>
      <point x="612.6892857142857" y="542.3160714285714"/>
      <point x="620.5357142857143" y="542.3160714285714" type="curve" smooth="yes"/>
      <point x="629.5321428571428" y="542.3160714285714"/>
      <point x="634.3785714285714" y="567.0017857142857"/>
      <point x="634.3785714285714" y="586.7714285714286" type="curve" smooth="yes"/>
      <point x="634.3785714285714" y="597.1535714285715"/>
      <point x="630.1482142857143" y="602.9214285714286"/>
      <point x="623.9964285714286" y="607.1517857142857" type="curve" smooth="yes"/>
      <point x="605.2303571428571" y="621.1517857142857"/>
      <point x="533.0803571428571" y="652.0"/>
      <point x="386.45714285714286" y="652.0" type="curve" smooth="yes"/>
      <point x="152.99285714285713" y="652.0"/>
      <point x="58.848214285714285" y="485.0607142857143"/>
      <point x="58.848214285714285" y="309.1589285714286" type="curve" smooth="yes"/>
      <point x="58.848214285714285" y="115.62321428571428"/>
      <point x="176.38571428571427" y="-13.0"/>
    </contour>
  </outline>
</glyph>
<glyph name="H" format="2">
  <advance width="788.3803571428572"/>
  <unicode hex="0048"/>
  <anchor x="378.6142857142857" y="0.0" name="bottom"/>
  <anchor x="398.6142857142857" y="326.0" name="center"/>
  <anchor x="423.6142857142857" y="652.0" name="top"/>
  <anchor x="22.614285714285714" y="652.0" name="topleft"/>
  <outline>
    <contour>
      <point x="157.37321428571428" y="-13.0" type="curve" smooth="yes"/>
      <point x="168.1375" y="-13.0"/>
      <point x="170.36785714285713" y="-9.539285714285715"/>
      <point x="170.36785714285713" y="-3.0035714285714286" type="curve" smooth="yes"/>
      <point x="170.36785714285713" y="105.31071428571428"/>
      <point x="173.36785714285713" y="210.69821428571427"/>
      <point x="180.1375" y="304.93035714285713" type="curve"/>
      <point x="256.0642857142857" y="309.08392857142854"/>
      <point x="331.8375" y="311.1607142857143"/>
      <point x="406.5339285714286" y="311.1607142857143" type="curve" smooth="yes"/>
      <point x="476.07678571428573" y="311.1607142857143"/>
      <point x="545.5428571428571" y="309.1607142857143"/>
      <point x="612.8553571428571" y="306.08392857142854" type="curve"/>
      <point x="604.0857142857143" y="159.38571428571427"/>
      <point x="593.5464285714286" y="23.60892857142857"/>
      <point x="593.5464285714286" y="17.455357142857142" type="curve" smooth="yes"/>
      <point x="593.5464285714286" y="-3.001785714285714"/>
      <point x="629.4589285714286" y="-13.0"/>
      <point x="655.6071428571429" y="-13.0" type="curve" smooth="yes"/>
      <point x="666.3714285714286" y="-13.0"/>
      <point x="669.525" y="-9.539285714285715"/>
      <point x="669.525" y="-3.0035714285714286" type="curve" smooth="yes"/>
      <point x="669.525" y="307.9392857142857"/>
      <point x="703.6803571428571" y="608.1607142857143"/>
      <point x="703.6803571428571" y="622.4678571428572" type="curve" smooth="yes"/>
      <point x="703.6803571428571" y="642.925"/>
      <point x="666.8446428571428" y="652.0"/>
      <point x="640.6964285714286" y="652.0" type="curve" smooth="yes"/>
      <point x="629.0089285714286" y="652.0"/>
      <point x="627.7017857142857" y="649.4625"/>
      <point x="627.7017857142857" y="642.9267857142858" type="curve" smooth="yes"/>
      <point x="626.7785714285715" y="593.6214285714286"/>
      <point x="621.9321428571428" y="475.15535714285716"/>
      <point x="615.1625" y="354.99642857142857" type="curve"/>
      <point x="182.44464285714287" y="354.99642857142857" type="line"/>
      <point x="192.1375" y="507.3107142857143"/>
      <point x="204.5232142857143" y="614.4678571428572"/>
      <point x="204.5232142857143" y="622.4678571428572" type="curve" smooth="yes"/>
      <point x="204.5232142857143" y="642.925"/>
      <point x="168.6107142857143" y="652.0"/>
      <point x="142.4625" y="652.0" type="curve" smooth="yes"/>
      <point x="130.775" y="652.0"/>
      <point x="129.46785714285716" y="649.4625"/>
      <point x="129.46785714285716" y="642.9267857142858" type="curve" smooth="yes"/>
      <point x="126.69821428571429" y="529.5517857142858"/>
      <point x="95.3125" y="29.916071428571428"/>
      <point x="95.3125" y="17.455357142857142" type="curve" smooth="yes"/>
      <point x="95.3125" y="-3.001785714285714"/>
      <point x="131.225" y="-13.0"/>
    </contour>
  </outline>
</glyph>
<glyph name="I" format="2">
  <advance width="294.14642857142854"/>
  <unicode hex="0049"/>
  <anchor x="132.30178571428573" y="0.0" name="bottom"/>
  <anchor x="268.38392857142856" y="10.0" name="ogonek"/>
  <anchor x="184.76607142857142" y="652.0" name="top"/>
  <anchor x="27.383928571428573" y="652.0" name="topleft"/>
  <outline>
    <contour>
      <point x="162.14285714285714" y="-13.0" type="curve" smooth="yes"/>
      <point x="172.90714285714284" y="-13.0"/>
      <point x="175.1375" y="-9.539285714285715"/>
      <point x="175.1375" y="-3.0035714285714286" type="curve" smooth="yes"/>
      <point x="175.1375" y="307.9392857142857"/>
      <point x="209.29285714285714" y="608.1607142857143"/>
      <point x="209.29285714285714" y="622.3910714285714" type="curve" smooth="yes"/>
      <point x="209.29285714285714" y="642.925"/>
      <point x="173.38035714285715" y="652.0"/>
      <point x="147.23214285714286" y="652.0" type="curve" smooth="yes"/>
      <point x="135.54464285714286" y="652.0"/>
      <point x="134.2375" y="649.4625"/>
      <point x="134.2375" y="642.9267857142858" type="curve" smooth="yes"/>
      <point x="131.46785714285716" y="529.5517857142858"/>
      <point x="100.08214285714286" y="29.916071428571428"/>
      <point x="100.08214285714286" y="17.455357142857142" type="curve" smooth="yes"/>
      <point x="100.08214285714286" y="-3.001785714285714"/>
      <point x="135.99464285714285" y="-13.0"/>
    </contour>
  </outline>
</glyph>
<glyph name="J" format="2">
  <advance width="393.6196428571429"/>
  <unicode hex="004A"/>
  <anchor x="219.39464285714286" y="0.0" name="bottom"/>
  <anchor x="278.54464285714283" y="652.0" name="top"/>
  <outline>
    <contour>
      <point x="120.92321428571428" y="-13.0" type="curve" smooth="yes"/>
      <point x="185.84285714285716" y="-13.0"/>
      <point x="241.30357142857142" y="24.230357142857144"/>
      <point x="270.7660714285714" y="113.61785714285715" type="curve" smooth="yes"/>
      <point x="299.2267857142857" y="200.0"/>
      <point x="308.2267857142857" y="539.9285714285714"/>
      <point x="308.2267857142857" y="622.4678571428572" type="curve" smooth="yes"/>
      <point x="308.2267857142857" y="642.925"/>
      <point x="272.3142857142857" y="652.0"/>
      <point x="246.16607142857143" y="652.0" type="curve" smooth="yes"/>
      <point x="234.47857142857143" y="652.0"/>
      <point x="233.17142857142858" y="649.4625"/>
      <point x="233.17142857142858" y="642.9267857142858" type="curve" smooth="yes"/>
      <point x="233.17142857142858" y="264.3625"/>
      <point x="216.01607142857142" y="84.76428571428572"/>
      <point x="178.3982142857143" y="51.301785714285714" type="curve" smooth="yes"/>
      <point x="163.0125" y="37.53214285714286"/>
      <point x="145.62678571428572" y="29.916071428571428"/>
      <point x="124.24107142857143" y="29.916071428571428" type="curve" smooth="yes"/>
      <point x="83.775" y="29.916071428571428"/>
      <point x="39.769642857142856" y="51.30357142857143"/>
      <point x="29.230357142857144" y="51.30357142857143" type="curve" smooth="yes"/>
      <point x="24.076785714285716" y="51.30357142857143"/>
      <point x="20.0" y="43.45892857142857"/>
      <point x="20.0" y="32.38214285714286" type="curve" smooth="yes"/>
      <point x="20.0" y="13.535714285714286"/>
      <point x="23.230357142857144" y="4.8464285714285715"/>
      <point x="35.07678571428571" y="-1.0" type="curve"/>
      <point x="53.07678571428571" y="-9.923214285714286"/>
      <point x="79.99821428571428" y="-13.0"/>
    </contour>
  </outline>
</glyph>
<glyph name="K" format="2">
  <advance width="635.7607142857142"/>
  <unicode hex="004B"/>
  <anchor x="288.6142857142857" y="0.0" name="bottom"/>
  <anchor x="332.6142857142857" y="652.0" name="top"/>
  <outline>
    <contour>
      <point x="157.37321428571428" y="-13.0" type="curve" smooth="yes"/>
      <point x="168.1375" y="-13.0"/>
      <point x="170.36785714285713" y="-9.539285714285715"/>
      <point x="170.36785714285713" y="-3.0035714285714286" type="curve" smooth="yes"/>
      <point x="170.36785714285713" y="109.23392857142858"/>
      <point x="175.21428571428572" y="219.15892857142856"/>
      <point x="180.1375" y="312.92857142857144" type="curve"/>
      <point x="187.06071428571428" y="307.3142857142857"/>
      <point x="197.2892857142857" y="298.08392857142854"/>
      <point x="210.51964285714286" y="288.46785714285716" type="curve" smooth="yes"/>
      <point x="284.98571428571427" y="223.39285714285714"/>
      <point x="448.00357142857143" y="70.53571428571429"/>
      <point x="533.5482142857143" y="-6.310714285714285" type="curve" smooth="yes"/>
      <point x="537.3928571428571" y="-10.923214285714286"/>
      <point x="541.8535714285714" y="-13.0"/>
      <point x="551.8517857142857" y="-13.0" type="curve" smooth="yes"/>
      <point x="564.3839285714286" y="-13.0"/>
      <point x="583.6089285714286" y="-0.5410714285714284"/>
      <point x="596.0660714285714" y="10.148214285714285" type="curve" smooth="yes"/>
      <point x="602.45" y="16.301785714285714"/>
      <point x="607.6803571428571" y="21.455357142857142"/>
      <point x="607.6803571428571" y="23.839285714285715" type="curve" smooth="yes"/>
      <point x="607.6803571428571" y="27.146428571428572"/>
      <point x="606.6035714285714" y="28.53035714285714"/>
      <point x="600.0660714285714" y="34.528571428571425" type="curve" smooth="yes"/>
      <point x="470.51428571428573" y="135.76607142857142"/>
      <point x="296.04285714285714" y="300.6089285714286"/>
      <point x="261.04107142857146" y="335.06964285714287" type="curve"/>
      <point x="311.73035714285714" y="381.83214285714286"/>
      <point x="508.90535714285716" y="555.5410714285714"/>
      <point x="586.6821428571428" y="628.1625" type="curve" smooth="yes"/>
      <point x="593.0660714285714" y="634.7"/>
      <point x="595.2964285714286" y="637.0839285714286"/>
      <point x="595.2964285714286" y="640.3142857142857" type="curve" smooth="yes"/>
      <point x="595.2964285714286" y="646.3125"/>
      <point x="578.7607142857142" y="652.0"/>
      <point x="561.3035714285714" y="652.0" type="curve" smooth="yes"/>
      <point x="542.4589285714286" y="652.0"/>
      <point x="534.4589285714286" y="649.0785714285714"/>
      <point x="523.075" y="638.3875" type="curve" smooth="yes"/>
      <point x="377.98214285714283" y="505.60535714285714"/>
      <point x="225.8267857142857" y="361.3803571428571"/>
      <point x="180.29107142857143" y="321.15535714285716" type="curve"/>
      <point x="190.06071428571428" y="488.54464285714283"/>
      <point x="204.5232142857143" y="613.3910714285714"/>
      <point x="204.5232142857143" y="622.4678571428572" type="curve" smooth="yes"/>
      <point x="204.5232142857143" y="642.925"/>
      <point x="168.6107142857143" y="652.0"/>
      <point x="142.4625" y="652.0" type="curve" smooth="yes"/>
      <point x="130.775" y="652.0"/>
      <point x="129.46785714285716" y="649.4625"/>
      <point x="129.46785714285716" y="642.9267857142858" type="curve" smooth="yes"/>
      <point x="126.69821428571429" y="529.5517857142858"/>
      <point x="95.3125" y="29.916071428571428"/>
      <point x="95.3125" y="17.455357142857142" type="curve" smooth="yes"/>
      <point x="95.3125" y="-3.001785714285714"/>
      <point x="131.225" y="-13.0"/>
    </contour>
  </outline>
</glyph>
<glyph name="L" format="2">
  <advance width="484.6892857142857"/>
  <unicode hex="004C"/>
  <anchor x="279.23035714285714" y="0.0" name="bottom"/>
  <anchor x="236.23035714285714" y="326.0" name="center"/>
  <anchor x="243.23035714285714" y="650.4642857142857" name="top"/>
  <anchor x="416.23035714285714" y="524.0" name="topright"/>
  <outline>
    <contour>
      <point x="95.3125" y="0.0" type="curve"/>
      <point x="440.91964285714283" y="0.0" type="line" smooth="yes"/>
      <point x="450.53214285714284" y="0.0"/>
      <point x="460.3017857142857" y="28.764285714285712"/>
      <point x="460.3017857142857" y="46.84107142857143" type="curve" smooth="yes"/>
      <point x="460.3017857142857" y="56.223214285714285"/>
      <point x="460.3017857142857" y="62.223214285714285"/>
      <point x="456.91785714285714" y="62.223214285714285" type="curve" smooth="yes"/>
      <point x="454.30357142857144" y="62.223214285714285"/>
      <point x="367.0678571428571" y="42.29821428571429"/>
      <point x="262.44464285714287" y="42.29821428571429" type="curve" smooth="yes"/>
      <point x="185.44464285714287" y="42.29821428571429"/>
      <point x="173.52142857142857" y="48.528571428571425"/>
      <point x="173.52142857142857" y="86.91428571428571" type="curve" smooth="yes"/>
      <point x="173.52142857142857" y="313.6303571428571"/>
      <point x="205.67678571428573" y="615.7767857142857"/>
      <point x="205.67678571428573" y="622.4678571428572" type="curve" smooth="yes"/>
      <point x="205.67678571428573" y="642.925"/>
      <point x="169.7642857142857" y="652.0"/>
      <point x="143.61607142857142" y="652.0" type="curve" smooth="yes"/>
      <point x="132.8517857142857" y="652.0"/>
      <point x="130.62142857142857" y="649.4625"/>
      <point x="130.62142857142857" y="642.9267857142858" type="curve" smooth="yes"/>
      <point x="124.15892857142858" y="428.3071428571429"/>
      <point x="101.775" y="72.31428571428572"/>
    </contour>
  </outline>
</glyph>
<glyph name="M" format="2">
  <advance width="981.9178571428571"/>
  <unicode hex="004D"/>
  <anchor x="468.4642857142857" y="0.0" name="bottom"/>
  <anchor x="505.5357142857143" y="652.0" name="top"/>
  <outline>
    <contour>
      <point x="136.76964285714286" y="-13.0" type="curve" smooth="yes"/>
      <point x="144.5375" y="-13.0"/>
      <point x="145.92142857142858" y="-9.769642857142857"/>
      <point x="145.99821428571428" y="-4.308928571428572" type="curve" smooth="yes"/>
      <point x="146.6125" y="50.535714285714285"/>
      <point x="189.45892857142857" y="381.5339285714286"/>
      <point x="213.61428571428573" y="554.9357142857143" type="curve"/>
      <point x="255.07857142857142" y="459.4732142857143"/>
      <point x="386.31964285714287" y="132.84821428571428"/>
      <point x="436.94107142857143" y="9.146428571428572" type="curve" smooth="yes"/>
      <point x="441.1714285714286" y="-2.3875"/>
      <point x="457.7" y="-13.0"/>
      <point x="478.38214285714287" y="-13.0" type="curve" smooth="yes"/>
      <point x="485.91607142857146" y="-13.0"/>
      <point x="490.2232142857143" y="-8.0"/>
      <point x="492.60714285714283" y="-2.617857142857143" type="curve" smooth="yes"/>
      <point x="590.5392857142857" y="178.85357142857143"/>
      <point x="750.4714285714285" y="466.4035714285714"/>
      <point x="805.7785714285715" y="568.1678571428571" type="curve"/>
      <point x="805.9321428571428" y="547.5589285714286"/>
      <point x="809.7785714285715" y="419.9357142857143"/>
      <point x="808.8553571428571" y="279.8482142857143" type="curve" smooth="yes"/>
      <point x="808.0089285714286" y="192.00357142857143"/>
      <point x="804.3160714285714" y="83.0"/>
      <point x="804.3160714285714" y="17.60892857142857" type="curve" smooth="yes"/>
      <point x="804.3160714285714" y="-2.7714285714285714"/>
      <point x="838.7678571428571" y="-13.0"/>
      <point x="863.8375" y="-13.0" type="curve" smooth="yes"/>
      <point x="873.9875" y="-13.0"/>
      <point x="876.9089285714285" y="-9.769642857142857"/>
      <point x="876.9089285714285" y="-1.6178571428571429" type="curve" smooth="yes"/>
      <point x="876.9089285714285" y="197.1767857142857"/>
      <point x="872.7571428571429" y="420.2160714285714"/>
      <point x="870.9107142857143" y="621.4678571428572" type="curve" smooth="yes"/>
      <point x="870.9107142857143" y="643.8482142857143"/>
      <point x="828.0" y="652.0"/>
      <point x="802.9303571428571" y="652.0" type="curve" smooth="yes"/>
      <point x="791.6267857142857" y="652.0"/>
      <point x="788.7821428571428" y="650.7696428571429"/>
      <point x="784.7053571428571" y="643.2321428571429" type="curve" smooth="yes"/>
      <point x="744.2410714285714" y="567.2303571428571"/>
      <point x="584.0071428571429" y="262.69107142857143"/>
      <point x="484.5357142857143" y="85.82857142857142" type="curve"/>
      <point x="433.2232142857143" y="196.9125"/>
      <point x="330.7553571428571" y="448.9125"/>
      <point x="262.2857142857143" y="624.3910714285714" type="curve" smooth="yes"/>
      <point x="255.90178571428572" y="642.7714285714286"/>
      <point x="223.8375" y="652.0"/>
      <point x="189.61428571428573" y="652.0" type="curve" smooth="yes"/>
      <point x="175.3125" y="652.0"/>
      <point x="173.15892857142856" y="649.8464285714285"/>
      <point x="171.92857142857142" y="635.5410714285714" type="curve" smooth="yes"/>
      <point x="151.15714285714284" y="439.82678571428573"/>
      <point x="86.775" y="30.75714285714286"/>
      <point x="86.775" y="17.455357142857142" type="curve" smooth="yes"/>
      <point x="86.775" y="-3.001785714285714"/>
      <point x="115.84821428571429" y="-13.0"/>
    </contour>
  </outline>
</glyph>
<glyph name="N" format="2">
  <advance width="845.5535714285714"/>
  <unicode hex="004E"/>
  <anchor x="414.2375" y="0.0" name="bottom"/>
  <anchor x="449.0053571428571" y="645.6928571428572" name="top"/>
  <outline>
    <contour>
      <point x="146.69107142857143" y="-13.0" type="curve" smooth="yes"/>
      <point x="155.84285714285716" y="-13.0"/>
      <point x="157.91964285714286" y="-10.4625"/>
      <point x="157.91964285714286" y="-1.157142857142857" type="curve" smooth="yes"/>
      <point x="157.91964285714286" y="156.31428571428572"/>
      <point x="175.99821428571428" y="526.5696428571429"/>
      <point x="177.22857142857143" y="547.4892857142858" type="curve"/>
      <point x="208.15" y="502.71964285714284"/>
      <point x="557.6196428571428" y="114.16964285714286"/>
      <point x="665.25" y="-0.9232142857142858" type="curve" smooth="yes"/>
      <point x="670.4035714285715" y="-6.230357142857143"/>
      <point x="676.7107142857143" y="-13.0"/>
      <point x="681.1714285714286" y="-13.0" type="curve" smooth="yes"/>
      <point x="690.0910714285715" y="-13.0"/>
      <point x="727.775" y="13.301785714285714"/>
      <point x="727.775" y="24.144642857142856" type="curve" smooth="yes"/>
      <point x="727.775" y="133.84285714285716"/>
      <point x="760.8535714285714" y="607.8553571428571"/>
      <point x="760.8535714285714" y="622.4678571428572" type="curve" smooth="yes"/>
      <point x="760.8535714285714" y="642.925"/>
      <point x="732.4732142857143" y="652.0"/>
      <point x="708.6285714285714" y="652.0" type="curve" smooth="yes"/>
      <point x="698.4767857142857" y="652.0"/>
      <point x="697.3232142857142" y="650.3857142857142"/>
      <point x="697.3232142857142" y="640.1571428571428" type="curve" smooth="yes"/>
      <point x="697.3232142857142" y="308.1982142857143"/>
      <point x="678.3214285714286" y="99.50535714285715"/>
      <point x="677.0910714285715" y="92.5875" type="curve"/>
      <point x="601.8553571428571" y="164.8232142857143"/>
      <point x="243.15357142857144" y="569.1446428571429"/>
      <point x="190.91607142857143" y="640.8464285714285" type="curve" smooth="yes"/>
      <point x="186.68571428571428" y="646.1535714285715"/>
      <point x="179.45535714285714" y="652.0"/>
      <point x="174.99464285714285" y="652.0" type="curve" smooth="yes"/>
      <point x="163.30535714285713" y="652.0"/>
      <point x="128.39107142857142" y="626.6214285714286"/>
      <point x="128.39107142857142" y="615.7785714285715" type="curve" smooth="yes"/>
      <point x="128.39107142857142" y="506.08035714285717"/>
      <point x="95.3125" y="31.144642857142856"/>
      <point x="95.3125" y="17.455357142857142" type="curve" smooth="yes"/>
      <point x="95.3125" y="-3.001785714285714"/>
      <point x="122.76964285714286" y="-13.0"/>
    </contour>
  </outline>
</glyph>
<glyph name="O" format="2">
  <advance width="750.075"/>
  <unicode hex="004F"/>
  <anchor x="364.84464285714284" y="0.0" name="bottom"/>
  <anchor x="381.84464285714284" y="326.0" name="center"/>
  <anchor x="432.84464285714284" y="10.0" name="ogonek"/>
  <anchor x="398.84464285714284" y="652.0" name="top"/>
  <anchor x="44.84464285714286" y="652.0" name="topleft"/>
  <anchor x="563.4571428571429" y="602.4607142857143" name="topright"/>
  <outline>
    <contour>
      <point x="373.5392857142857" y="-13.0" type="curve" smooth="yes"/>
      <point x="589.3857142857142" y="-13.0"/>
      <point x="692.7625" y="127.16607142857143"/>
      <point x="692.7625" y="350.22857142857146" type="curve" smooth="yes"/>
      <point x="692.7625" y="536.2160714285715"/>
      <point x="598.2339285714286" y="652.0"/>
      <point x="384.9946428571429" y="652.0" type="curve" smooth="yes"/>
      <point x="169.07142857142858" y="652.0"/>
      <point x="65.69464285714285" y="512.7571428571429"/>
      <point x="65.69464285714285" y="289.77142857142854" type="curve" smooth="yes"/>
      <point x="65.69464285714285" y="103.78392857142858"/>
      <point x="160.22321428571428" y="-13.0"/>
    </contour>
    <contour>
      <point x="378.07142857142856" y="27.37857142857143" type="curve" smooth="yes"/>
      <point x="209.98214285714286" y="27.37857142857143"/>
      <point x="139.51785714285714" y="134.23214285714286"/>
      <point x="139.51785714285714" y="292.8482142857143" type="curve" smooth="yes"/>
      <point x="139.51785714285714" y="478.55"/>
      <point x="214.68035714285713" y="612.3125"/>
      <point x="380.3857142857143" y="612.3125" type="curve" smooth="yes"/>
      <point x="548.475" y="612.3125"/>
      <point x="618.9392857142857" y="506.30535714285713"/>
      <point x="618.9392857142857" y="347.84285714285716" type="curve" smooth="yes"/>
      <point x="618.9392857142857" y="161.06428571428572"/>
      <point x="543.8535714285714" y="27.37857142857143"/>
    </contour>
  </outline>
</glyph>
<glyph name="P" format="2">
  <advance width="542.2125"/>
  <unicode hex="0050"/>
  <anchor x="257.6142857142857" y="0.0" name="bottom"/>
  <anchor x="291.6142857142857" y="652.0" name="top"/>
  <outline>
    <contour>
      <point x="157.37321428571428" y="-13.0" type="curve" smooth="yes"/>
      <point x="168.1375" y="-13.0"/>
      <point x="170.29107142857143" y="-9.539285714285715"/>
      <point x="170.29107142857143" y="-3.0035714285714286" type="curve" smooth="yes"/>
      <point x="170.29107142857143" y="85.4625"/>
      <point x="172.36785714285713" y="172.46428571428572"/>
      <point x="176.29107142857143" y="249.46428571428572" type="curve"/>
      <point x="182.21428571428572" y="243.31071428571428"/>
      <point x="196.2125" y="240.92857142857142"/>
      <point x="230.98392857142858" y="240.92857142857142" type="curve" smooth="yes"/>
      <point x="397.7482142857143" y="240.92857142857142"/>
      <point x="507.51428571428573" y="343.00357142857143"/>
      <point x="507.51428571428573" y="469.15535714285716" type="curve" smooth="yes"/>
      <point x="507.51428571428573" y="574.6928571428572"/>
      <point x="433.8982142857143" y="639.0"/>
      <point x="282.4357142857143" y="639.0" type="curve" smooth="yes"/>
      <point x="129.46785714285716" y="639.0" type="line"/>
      <point x="125.775" y="515.5517857142858"/>
      <point x="95.3125" y="29.916071428571428"/>
      <point x="95.3125" y="17.455357142857142" type="curve" smooth="yes"/>
      <point x="95.3125" y="-3.001785714285714"/>
      <point x="131.225" y="-13.0"/>
    </contour>
    <contour>
      <point x="177.29107142857143" y="276.61607142857144" type="curve"/>
      <point x="185.6" y="420.86607142857144"/>
      <point x="198.75357142857143" y="547.4625"/>
      <point x="201.6" y="592.6982142857142" type="curve"/>
      <point x="217.9857142857143" y="594.5446428571429"/>
      <point x="233.4482142857143" y="598.2375"/>
      <point x="259.75714285714287" y="598.2375" type="curve" smooth="yes"/>
      <point x="395.22857142857146" y="598.2375"/>
      <point x="434.69107142857143" y="535.8517857142857"/>
      <point x="434.69107142857143" y="455.4642857142857" type="curve" smooth="yes"/>
      <point x="434.69107142857143" y="400.15535714285716"/>
      <point x="413.22857142857146" y="358.69464285714287"/>
      <point x="381.075" y="329.4642857142857" type="curve" smooth="yes"/>
      <point x="316.45535714285717" y="270.6142857142857"/>
      <point x="221.21607142857144" y="269.23035714285714"/>
    </contour>
  </outline>
</glyph>
<glyph name="Q" format="2">
  <advance width="750.075"/>
  <unicode hex="0051"/>
  <outline>
    <contour>
      <point x="702.0892857142857" y="-90.14464285714286" type="curve" smooth="yes"/>
      <point x="727.3142857142857" y="-90.14464285714286"/>
      <point x="744.2285714285714" y="-57.767857142857146"/>
      <point x="744.2285714285714" y="-39.85" type="curve" smooth="yes"/>
      <point x="744.2285714285714" y="-36.3125"/>
      <point x="743.075" y="-32.466071428571425"/>
      <point x="735.9982142857143" y="-32.3125" type="curve" smooth="yes"/>
      <point x="661.6857142857143" y="-31.698214285714286"/>
      <point x="561.5285714285715" y="-12.083928571428572"/>
      <point x="467.67321428571427" y="1.3000000000000007" type="curve"/>
      <point x="606.375" y="34.91428571428571"/>
      <point x="692.7625" y="168.2267857142857"/>
      <point x="692.7625" y="350.22857142857146" type="curve" smooth="yes"/>
      <point x="692.7625" y="536.2160714285715"/>
      <point x="598.2339285714286" y="652.0"/>
      <point x="384.9946428571429" y="652.0" type="curve" smooth="yes"/>
      <point x="169.07142857142858" y="652.0"/>
      <point x="65.69464285714285" y="512.7571428571429"/>
      <point x="65.69464285714285" y="289.77142857142854" type="curve" smooth="yes"/>
      <point x="65.69464285714285" y="136.54285714285714"/>
      <point x="131.4625" y="31.15357142857143"/>
      <point x="281.9267857142857" y="-3.692857142857143" type="curve" smooth="yes"/>
      <point x="387.9375" y="-28.310714285714287"/>
      <point x="572.7785714285715" y="-72.99285714285715"/>
      <point x="652.9357142857143" y="-84.60714285714286" type="curve" smooth="yes"/>
      <point x="678.3982142857143" y="-87.8375"/>
      <point x="692.3214285714286" y="-90.14464285714286"/>
    </contour>
    <contour>
      <point x="378.07142857142856" y="25.99642857142857" type="curve" smooth="yes"/>
      <point x="209.98214285714286" y="25.99642857142857"/>
      <point x="139.51785714285714" y="133.00357142857143"/>
      <point x="139.51785714285714" y="292.08035714285717" type="curve" smooth="yes"/>
      <point x="139.51785714285714" y="478.0892857142857"/>
      <point x="214.68035714285713" y="612.3125"/>
      <point x="380.3857142857143" y="612.3125" type="curve" smooth="yes"/>
      <point x="548.475" y="612.3125"/>
      <point x="618.9392857142857" y="506.1517857142857"/>
      <point x="618.9392857142857" y="347.30535714285713" type="curve" smooth="yes"/>
      <point x="618.9392857142857" y="160.14285714285714"/>
      <point x="543.8535714285714" y="25.99642857142857"/>
    </contour>
  </outline>
</glyph>
<glyph name="R" format="2">
  <advance width="575.7517857142857"/>
  <unicode hex="0052"/>
  <anchor x="283.2214285714286" y="0.0" name="bottom"/>
  <anchor x="317.2214285714286" y="652.0" name="top"/>
  <outline>
    <contour>
      <point x="157.37321428571428" y="-13.0" type="curve" smooth="yes"/>
      <point x="168.1375" y="-13.0"/>
      <point x="170.36785714285713" y="-9.539285714285715"/>
      <point x="170.36785714285713" y="-3.0035714285714286" type="curve" smooth="yes"/>
      <point x="170.36785714285713" y="110.15714285714286"/>
      <point x="173.44464285714287" y="214.31428571428572"/>
      <point x="179.29107142857143" y="303.46785714285716" type="curve"/>
      <point x="186.52142857142857" y="294.3142857142857"/>
      <point x="206.05892857142857" y="291.6232142857143"/>
      <point x="214.1357142857143" y="288.85357142857146" type="curve"/>
      <point x="264.82678571428573" y="243.17142857142858"/>
      <point x="389.9142857142857" y="117.24464285714285"/>
      <point x="489.6196428571429" y="7.923214285714286" type="curve" smooth="yes"/>
      <point x="500.69642857142856" y="-4.460714285714285"/>
      <point x="510.85" y="-13.0"/>
      <point x="522.0017857142857" y="-13.0" type="curve" smooth="yes"/>
      <point x="541.6892857142857" y="-13.0"/>
      <point x="574.6" y="9.303571428571429"/>
      <point x="574.6" y="17.992857142857144" type="curve" smooth="yes"/>
      <point x="574.6" y="21.45357142857143"/>
      <point x="573.2928571428571" y="25.53035714285714"/>
      <point x="565.7553571428572" y="32.9125" type="curve" smooth="yes"/>
      <point x="548.6803571428571" y="48.90714285714286"/>
      <point x="339.6589285714286" y="262.84464285714284"/>
      <point x="298.8857142857143" y="305.3857142857143" type="curve"/>
      <point x="419.89464285714286" y="314.9982142857143"/>
      <point x="497.4357142857143" y="406.0017857142857"/>
      <point x="497.4357142857143" y="490.0017857142857" type="curve" smooth="yes"/>
      <point x="497.4357142857143" y="568.3803571428572"/>
      <point x="437.51428571428573" y="639.0"/>
      <point x="295.36071428571427" y="639.0" type="curve" smooth="yes"/>
      <point x="132.2375" y="639.0" type="line"/>
      <point x="126.69821428571429" y="521.0910714285715"/>
      <point x="95.3125" y="29.916071428571428"/>
      <point x="95.3125" y="17.455357142857142" type="curve" smooth="yes"/>
      <point x="95.3125" y="-3.001785714285714"/>
      <point x="131.225" y="-13.0"/>
    </contour>
    <contour>
      <point x="181.21428571428572" y="328.9267857142857" type="curve"/>
      <point x="188.67678571428573" y="472.33035714285717"/>
      <point x="199.67678571428573" y="556.2357142857143"/>
      <point x="203.5232142857143" y="593.6214285714286" type="curve"/>
      <point x="219.21607142857144" y="596.3910714285714"/>
      <point x="233.90892857142856" y="598.2375"/>
      <point x="257.9107142857143" y="598.2375" type="curve" smooth="yes"/>
      <point x="385.91964285714283" y="598.2375"/>
      <point x="424.6125" y="550.2375"/>
      <point x="424.6125" y="477.7732142857143" type="curve" smooth="yes"/>
      <point x="424.6125" y="437.7732142857143"/>
      <point x="408.84285714285716" y="408.08214285714286"/>
      <point x="384.45892857142854" y="384.62142857142857" type="curve" smooth="yes"/>
      <point x="331.76428571428573" y="334.69642857142856"/>
      <point x="241.14285714285714" y="322.4642857142857"/>
    </contour>
  </outline>
</glyph>
<glyph name="S" format="2">
  <advance width="520.4535714285714"/>
  <unicode hex="0053"/>
  <anchor x="235.7642857142857" y="0.0" name="bottom"/>
  <anchor x="297.6142857142857" y="652.0" name="top"/>
  <outline>
    <contour>
      <point x="244.91785714285714" y="-13.0" type="curve" smooth="yes"/>
      <point x="335.14285714285717" y="-13.0"/>
      <point x="441.68035714285713" y="59.84464285714286"/>
      <point x="441.68035714285713" y="176.91964285714286" type="curve" smooth="yes"/>
      <point x="441.68035714285713" y="219.68928571428572"/>
      <point x="424.6017857142857" y="253.6107142857143"/>
      <point x="392.0642857142857" y="285.37857142857143" type="curve" smooth="yes"/>
      <point x="357.99107142857144" y="318.75892857142856"/>
      <point x="258.5267857142857" y="378.45535714285717"/>
      <point x="224.21964285714284" y="412.53214285714284" type="curve" smooth="yes"/>
      <point x="194.67857142857142" y="441.99642857142857"/>
      <point x="180.44642857142858" y="472.1535714285714"/>
      <point x="180.44642857142858" y="508.3875" type="curve" smooth="yes"/>
      <point x="180.44642857142858" y="581.9321428571428"/>
      <point x="234.29642857142858" y="606.3196428571429"/>
      <point x="269.8357142857143" y="606.3196428571429" type="curve" smooth="yes"/>
      <point x="342.4535714285714" y="606.3196428571429"/>
      <point x="382.60714285714283" y="568.8553571428571"/>
      <point x="407.0678571428571" y="545.5464285714286" type="curve" smooth="yes"/>
      <point x="419.0678571428571" y="534.0071428571429"/>
      <point x="426.45178571428573" y="525.4678571428572"/>
      <point x="432.75892857142856" y="525.4678571428572" type="curve" smooth="yes"/>
      <point x="443.14285714285717" y="525.4678571428572"/>
      <point x="448.45" y="541.4660714285715"/>
      <point x="448.45" y="570.3875" type="curve" smooth="yes"/>
      <point x="448.45" y="577.8464285714285"/>
      <point x="446.2964285714286" y="587.3839285714286"/>
      <point x="438.9142857142857" y="594.1517857142857" type="curve" smooth="yes"/>
      <point x="401.45535714285717" y="632.9982142857143"/>
      <point x="341.0732142857143" y="652.0"/>
      <point x="289.075" y="652.0" type="curve" smooth="yes"/>
      <point x="163.0" y="652.0"/>
      <point x="109.69821428571429" y="568.3089285714286"/>
      <point x="109.69821428571429" y="483.1607142857143" type="curve" smooth="yes"/>
      <point x="109.69821428571429" y="430.775"/>
      <point x="131.77678571428572" y="392.7767857142857"/>
      <point x="165.3892857142857" y="361.3178571428571" type="curve" smooth="yes"/>
      <point x="212.3125" y="317.4714285714286"/>
      <point x="300.46964285714284" y="268.3910714285714"/>
      <point x="334.85357142857146" y="231.2375" type="curve" smooth="yes"/>
      <point x="358.2392857142857" y="206.00535714285715"/>
      <point x="373.39464285714286" y="178.31071428571428"/>
      <point x="373.39464285714286" y="141.38392857142858" type="curve" smooth="yes"/>
      <point x="373.39464285714286" y="65.8375"/>
      <point x="302.15714285714284" y="35.37321428571428"/>
      <point x="262.2339285714286" y="35.37321428571428" type="curve" smooth="yes"/>
      <point x="193.9232142857143" y="35.37321428571428"/>
      <point x="142.30714285714285" y="68.14464285714286"/>
      <point x="112.69107142857143" y="92.99285714285715" type="curve" smooth="yes"/>
      <point x="94.46071428571429" y="108.45535714285714"/>
      <point x="85.84642857142858" y="119.91785714285714"/>
      <point x="81.38571428571429" y="119.91785714285714" type="curve" smooth="yes"/>
      <point x="70.00178571428572" y="119.91785714285714"/>
      <point x="65.54107142857143" y="80.83928571428571"/>
      <point x="65.54107142857143" y="69.45892857142857" type="curve" smooth="yes"/>
      <point x="65.54107142857143" y="62.61607142857143"/>
      <point x="66.84821428571429" y="51.15535714285714"/>
      <point x="76.15178571428571" y="43.31071428571428" type="curve" smooth="yes"/>
      <point x="108.61071428571428" y="13.771428571428572"/>
      <point x="161.6875" y="-13.0"/>
    </contour>
  </outline>
</glyph>
<glyph name="T" format="2">
  <advance width="528.075"/>
  <unicode hex="0054"/>
  <anchor x="250.92142857142858" y="0.0" name="bottom"/>
  <anchor x="289.30892857142857" y="326.0" name="center"/>
  <anchor x="288.22857142857146" y="652.0" name="top"/>
  <outline>
    <contour>
      <point x="277.53035714285716" y="-13.0" type="curve" smooth="yes"/>
      <point x="289.21785714285716" y="-13.0"/>
      <point x="291.4482142857143" y="-9.539285714285715"/>
      <point x="291.4482142857143" y="-3.0035714285714286" type="curve" smooth="yes"/>
      <point x="291.4482142857143" y="255.78392857142856"/>
      <point x="312.8339285714286" y="505.3232142857143"/>
      <point x="320.75714285714287" y="589.7035714285714" type="curve"/>
      <point x="326.5267857142857" y="589.7035714285714" type="line"/>
      <point x="449.38928571428573" y="589.7035714285714"/>
      <point x="515.3053571428571" y="581.6267857142857"/>
      <point x="525.2285714285714" y="581.6267857142857" type="curve" smooth="yes"/>
      <point x="535.2285714285714" y="581.6267857142857"/>
      <point x="540.3053571428571" y="604.1589285714285"/>
      <point x="540.3053571428571" y="627.6196428571428" type="curve" smooth="yes"/>
      <point x="540.3053571428571" y="636.925"/>
      <point x="538.1517857142857" y="639.0"/>
      <point x="532.3071428571428" y="639.0" type="curve" smooth="yes"/>
      <point x="49.46071428571429" y="639.0" type="line" smooth="yes"/>
      <point x="39.15357142857143" y="639.0"/>
      <point x="33.53928571428571" y="618.6946428571429"/>
      <point x="33.53928571428571" y="593.3910714285714" type="curve" smooth="yes"/>
      <point x="33.53928571428571" y="585.0857142857143"/>
      <point x="36.61607142857143" y="581.6267857142857"/>
      <point x="41.84642857142857" y="581.6267857142857" type="curve" smooth="yes"/>
      <point x="52.69285714285714" y="581.6267857142857"/>
      <point x="107.53214285714286" y="589.7035714285714"/>
      <point x="241.77857142857144" y="589.7035714285714" type="curve"/>
      <point x="247.625" y="589.7035714285714" type="line"/>
      <point x="242.625" y="355.6196428571429"/>
      <point x="216.39285714285714" y="27.839285714285715"/>
      <point x="216.39285714285714" y="17.455357142857142" type="curve" smooth="yes"/>
      <point x="216.39285714285714" y="-3.001785714285714"/>
      <point x="252.30535714285713" y="-13.0"/>
    </contour>
  </outline>
</glyph>
<glyph name="U" format="2">
  <advance width="707.3857142857142"/>
  <unicode hex="0055"/>
  <anchor x="349.99642857142857" y="0.0" name="bottom"/>
  <anchor x="402.8142857142857" y="0.7678571428571429" name="ogonek"/>
  <anchor x="385.84285714285716" y="652.0" name="top"/>
  <anchor x="637.6892857142857" y="608.0" name="topright"/>
  <outline>
    <contour>
      <point x="340.6142857142857" y="-13.0" type="curve" smooth="yes"/>
      <point x="423.45714285714286" y="-13.0"/>
      <point x="486.53214285714284" y="6.5375"/>
      <point x="533.1464285714286" y="49.22857142857143" type="curve" smooth="yes"/>
      <point x="628.2232142857143" y="136.53571428571428"/>
      <point x="657.2232142857143" y="317.76785714285717"/>
      <point x="657.2232142857143" y="622.4678571428572" type="curve" smooth="yes"/>
      <point x="657.2232142857143" y="642.925"/>
      <point x="631.8446428571428" y="652.0"/>
      <point x="609.4625" y="652.0" type="curve" smooth="yes"/>
      <point x="599.0803571428571" y="652.0"/>
      <point x="597.9267857142858" y="649.4625"/>
      <point x="597.9267857142858" y="642.9267857142858" type="curve" smooth="yes"/>
      <point x="597.9267857142858" y="296.8392857142857"/>
      <point x="565.5410714285714" y="148.37678571428572"/>
      <point x="501.38392857142856" y="84.06785714285715" type="curve" smooth="yes"/>
      <point x="467.38214285714287" y="50.45178571428571"/>
      <point x="411.225" y="32.528571428571425"/>
      <point x="363.68392857142857" y="32.528571428571425" type="curve" smooth="yes"/>
      <point x="304.60357142857146" y="32.528571428571425"/>
      <point x="251.21607142857144" y="47.375"/>
      <point x="216.29107142857143" y="85.06785714285715" type="curve" smooth="yes"/>
      <point x="174.59642857142856" y="129.68392857142857"/>
      <point x="159.2875" y="215.99285714285713"/>
      <point x="159.2875" y="310.07142857142856" type="curve" smooth="yes"/>
      <point x="159.2875" y="411.69107142857143"/>
      <point x="177.05714285714285" y="587.4642857142857"/>
      <point x="177.05714285714285" y="622.4678571428572" type="curve" smooth="yes"/>
      <point x="177.05714285714285" y="642.925"/>
      <point x="141.14464285714286" y="652.0"/>
      <point x="114.99642857142857" y="652.0" type="curve" smooth="yes"/>
      <point x="103.30892857142857" y="652.0"/>
      <point x="102.23214285714286" y="649.4625"/>
      <point x="102.00178571428572" y="642.9267857142858" type="curve" smooth="yes"/>
      <point x="101.925" y="632.9267857142858"/>
      <point x="86.00178571428572" y="455.30892857142857"/>
      <point x="85.84821428571429" y="298.0" type="curve" smooth="yes"/>
      <point x="85.77142857142857" y="195.0"/>
      <point x="99.69464285714285" y="104.07678571428572"/>
      <point x="150.07857142857142" y="53.15357142857143" type="curve" smooth="yes"/>
      <point x="192.5392857142857" y="10.153571428571428"/>
      <point x="266.92321428571427" y="-13.0"/>
    </contour>
  </outline>
</glyph>
<glyph name="V" format="2">
  <advance width="618.6142857142858"/>
  <unicode hex="0056"/>
  <anchor x="281.6892857142857" y="0.0" name="bottom"/>
  <anchor x="339.76428571428573" y="652.0" name="top"/>
  <outline>
    <contour>
      <point x="296.4535714285714" y="-13.0" type="curve" smooth="yes"/>
      <point x="306.5267857142857" y="-13.0"/>
      <point x="309.0642857142857" y="-10.616071428571429"/>
      <point x="312.29464285714283" y="-4.925" type="curve" smooth="yes"/>
      <point x="369.2232142857143" y="103.31428571428572"/>
      <point x="579.4678571428572" y="540.2625"/>
      <point x="609.9196428571429" y="607.3946428571429" type="curve" smooth="yes"/>
      <point x="612.3803571428572" y="612.3928571428571"/>
      <point x="615.5339285714285" y="618.8535714285714"/>
      <point x="615.5339285714285" y="622.3910714285714" type="curve" smooth="yes"/>
      <point x="615.5339285714285" y="640.1553571428572"/>
      <point x="590.3071428571428" y="652.0"/>
      <point x="568.4625" y="652.0" type="curve" smooth="yes"/>
      <point x="562.925" y="652.0"/>
      <point x="559.6946428571429" y="650.8464285714285"/>
      <point x="557.6178571428571" y="643.7696428571429" type="curve" smooth="yes"/>
      <point x="525.9267857142858" y="546.7714285714286"/>
      <point x="331.5285714285714" y="132.2107142857143"/>
      <point x="294.9142857142857" y="73.29107142857143" type="curve"/>
      <point x="257.5267857142857" y="158.4482142857143"/>
      <point x="128.66785714285714" y="589.3142857142857"/>
      <point x="117.35892857142858" y="624.2375" type="curve" smooth="yes"/>
      <point x="114.28214285714286" y="636.0785714285714"/>
      <point x="92.37142857142857" y="652.0"/>
      <point x="49.60892857142857" y="652.0" type="curve" smooth="yes"/>
      <point x="37.45892857142857" y="652.0"/>
      <point x="35.38392857142857" y="649.6928571428572"/>
      <point x="35.38392857142857" y="644.0017857142857" type="curve" smooth="yes"/>
      <point x="35.38392857142857" y="639.8482142857143"/>
      <point x="36.5375" y="637.3875"/>
      <point x="39.5375" y="628.2339285714286" type="curve" smooth="yes"/>
      <point x="64.69464285714285" y="542.4535714285714"/>
      <point x="214.0125" y="89.20892857142857"/>
      <point x="238.70357142857142" y="10.607142857142858" type="curve" smooth="yes"/>
      <point x="242.24107142857142" y="-1.6178571428571429"/>
      <point x="267.30892857142857" y="-13.0"/>
    </contour>
  </outline>
</glyph>
<glyph name="W" format="2">
  <advance width="962.5303571428572"/>
  <unicode hex="0057"/>
  <anchor x="474.91964285714283" y="0.0" name="bottom"/>
  <anchor x="512.7589285714286" y="652.0" name="top"/>
  <outline>
    <contour>
      <point x="209.67857142857142" y="-13.0" type="curve" smooth="yes"/>
      <point x="219.52142857142857" y="-13.0"/>
      <point x="222.82857142857142" y="-11.769642857142857"/>
      <point x="227.05892857142857" y="-2.8482142857142856" type="curve" smooth="yes"/>
      <point x="236.75" y="17.839285714285715"/>
      <point x="396.29464285714283" y="340.3857142857143"/>
      <point x="484.45535714285717" y="540.1714285714286" type="curve"/>
      <point x="529.6892857142857" y="413.55"/>
      <point x="677.7803571428572" y="55.29821428571429"/>
      <point x="688.9339285714286" y="14.685714285714287" type="curve" smooth="yes"/>
      <point x="693.3946428571429" y="-2.617857142857143"/>
      <point x="724.8464285714285" y="-13.0"/>
      <point x="758.1482142857143" y="-13.0" type="curve" smooth="yes"/>
      <point x="769.8375" y="-13.0"/>
      <point x="774.9875" y="-9.846428571428572"/>
      <point x="776.2946428571429" y="3.9214285714285717" type="curve" smooth="yes"/>
      <point x="783.2142857142857" y="57.832142857142856"/>
      <point x="940.2178571428572" y="609.6267857142857"/>
      <point x="940.2178571428572" y="622.4678571428572" type="curve" smooth="yes"/>
      <point x="940.2178571428572" y="642.925"/>
      <point x="911.1446428571429" y="652.0"/>
      <point x="890.1464285714286" y="652.0" type="curve" smooth="yes"/>
      <point x="881.7625" y="652.0"/>
      <point x="881.0714285714286" y="650.0"/>
      <point x="880.9178571428571" y="643.5410714285714" type="curve" smooth="yes"/>
      <point x="880.5339285714285" y="589.1571428571428"/>
      <point x="786.4571428571429" y="248.23035714285714"/>
      <point x="740.8375" y="78.52142857142857" type="curve"/>
      <point x="683.6785714285714" y="200.75714285714287"/>
      <point x="574.9785714285714" y="506.9982142857143"/>
      <point x="524.2803571428572" y="631.3142857142857" type="curve" smooth="yes"/>
      <point x="520.1267857142857" y="642.6178571428571"/>
      <point x="501.5982142857143" y="652.0"/>
      <point x="482.0678571428571" y="652.0" type="curve" smooth="yes"/>
      <point x="475.07142857142856" y="652.0"/>
      <point x="470.76428571428573" y="647.2303571428571"/>
      <point x="469.2267857142857" y="642.6946428571429" type="curve" smooth="yes"/>
      <point x="405.5285714285714" y="482.14285714285717"/>
      <point x="305.6892857142857" y="252.92857142857142"/>
      <point x="210.06071428571428" y="78.59821428571429" type="curve"/>
      <point x="181.1375" y="217.28392857142856"/>
      <point x="135.44107142857143" y="606.1642857142857"/>
      <point x="135.2875" y="621.9303571428571" type="curve" smooth="yes"/>
      <point x="135.05714285714285" y="642.2339285714286"/>
      <point x="97.06785714285715" y="652.0"/>
      <point x="73.68928571428572" y="652.0" type="curve" smooth="yes"/>
      <point x="62.92321428571429" y="652.0"/>
      <point x="58.464285714285715" y="649.8464285714285"/>
      <point x="58.464285714285715" y="641.3089285714286" type="curve" smooth="yes"/>
      <point x="58.464285714285715" y="637.2321428571429"/>
      <point x="58.69464285714286" y="629.6946428571429"/>
      <point x="59.77142857142857" y="621.3875" type="curve" smooth="yes"/>
      <point x="69.46428571428571" y="532.7642857142857"/>
      <point x="123.38571428571429" y="202.85892857142858"/>
      <point x="145.00357142857143" y="18.37857142857143" type="curve" smooth="yes"/>
      <point x="147.15714285714284" y="-3.925"/>
      <point x="184.45535714285714" y="-13.0"/>
    </contour>
  </outline>
</glyph>
<glyph name="X" format="2">
  <advance width="597.6160714285714"/>
  <unicode hex="0058"/>
  <anchor x="286.5464285714286" y="0.0" name="bottom"/>
  <anchor x="338.6857142857143" y="645.0767857142857" name="top"/>
  <outline>
    <contour>
      <point x="52.457142857142856" y="-13.0" type="curve" smooth="yes"/>
      <point x="56.533928571428575" y="-13.0"/>
      <point x="58.84107142857143" y="-12.616071428571429"/>
      <point x="69.30178571428571" y="2.075" type="curve" smooth="yes"/>
      <point x="127.46071428571429" y="83.15892857142858"/>
      <point x="201.45892857142857" y="173.38571428571427"/>
      <point x="296.2375" y="289.78214285714284" type="curve"/>
      <point x="346.00714285714287" y="214.63214285714287"/>
      <point x="467.32678571428573" y="27.07857142857143"/>
      <point x="488.86785714285713" y="0.6142857142857143" type="curve" smooth="yes"/>
      <point x="496.86785714285713" y="-9.769642857142857"/>
      <point x="500.17321428571427" y="-13.0"/>
      <point x="508.325" y="-13.0" type="curve" smooth="yes"/>
      <point x="522.7053571428571" y="-13.0"/>
      <point x="545.5464285714286" y="-3.1553571428571425"/>
      <point x="559.3892857142857" y="7.6125" type="curve" smooth="yes"/>
      <point x="565.925" y="12.380357142857143"/>
      <point x="567.5392857142857" y="15.764285714285714"/>
      <point x="567.5392857142857" y="17.53214285714286" type="curve" smooth="yes"/>
      <point x="567.5392857142857" y="18.916071428571428"/>
      <point x="563.5392857142857" y="24.916071428571428"/>
      <point x="556.7696428571429" y="34.7625" type="curve" smooth="yes"/>
      <point x="524.5392857142857" y="80.45178571428572"/>
      <point x="433.225" y="203.225"/>
      <point x="352.2964285714286" y="331.1535714285714" type="curve"/>
      <point x="415.67857142857144" y="410.1517857142857"/>
      <point x="470.0642857142857" y="482.8482142857143"/>
      <point x="532.4553571428571" y="571.7785714285715" type="curve" smooth="yes"/>
      <point x="537.5321428571428" y="580.1625"/>
      <point x="539.6089285714286" y="585.7767857142857"/>
      <point x="539.6089285714286" y="594.0839285714286" type="curve" smooth="yes"/>
      <point x="539.6089285714286" y="619.85"/>
      <point x="524.075" y="652.0"/>
      <point x="511.22857142857146" y="652.0" type="curve" smooth="yes"/>
      <point x="508.075" y="652.0"/>
      <point x="506.69107142857143" y="649.7696428571429"/>
      <point x="502.6928571428571" y="642.4642857142857" type="curve" smooth="yes"/>
      <point x="480.5392857142857" y="591.8464285714285"/>
      <point x="399.6928571428571" y="466.22857142857146"/>
      <point x="327.07142857142856" y="371.9892857142857" type="curve"/>
      <point x="253.4517857142857" y="479.0678571428571"/>
      <point x="188.67857142857142" y="584.225"/>
      <point x="151.44285714285715" y="643.8482142857143" type="curve" smooth="yes"/>
      <point x="147.05892857142857" y="650.6160714285714"/>
      <point x="140.98392857142858" y="652.0"/>
      <point x="130.90892857142856" y="652.0" type="curve" smooth="yes"/>
      <point x="107.75892857142857" y="652.0"/>
      <point x="74.61785714285715" y="634.1571428571428"/>
      <point x="74.61785714285715" y="624.2375" type="curve" smooth="yes"/>
      <point x="74.61785714285715" y="621.0071428571429"/>
      <point x="75.77142857142857" y="618.6232142857143"/>
      <point x="81.61785714285715" y="609.7" type="curve" smooth="yes"/>
      <point x="103.69285714285714" y="576.1660714285714"/>
      <point x="172.61964285714285" y="485.70535714285717"/>
      <point x="270.1660714285714" y="332.3107142857143" type="curve"/>
      <point x="195.3982142857143" y="241.00357142857143"/>
      <point x="121.24107142857143" y="155.99821428571428"/>
      <point x="33.92321428571429" y="57.605357142857144" type="curve" smooth="yes"/>
      <point x="28.0" y="51.221428571428575"/>
      <point x="25.923214285714284" y="47.53035714285714"/>
      <point x="25.923214285714284" y="42.06964285714286" type="curve" smooth="yes"/>
      <point x="25.923214285714284" y="21.228571428571428"/>
      <point x="38.14821428571429" y="-13.0"/>
    </contour>
  </outline>
</glyph>
<glyph name="Y" format="2">
  <advance width="564.0035714285714"/>
  <unicode hex="0059"/>
  <anchor x="277.00357142857143" y="0.0" name="bottom"/>
  <anchor x="312.5392857142857" y="642.0" name="top"/>
  <anchor x="93.00357142857143" y="652.0" name="topleft"/>
  <outline>
    <contour>
      <point x="302.38214285714287" y="-13.0" type="curve" smooth="yes"/>
      <point x="314.06964285714287" y="-13.0"/>
      <point x="315.3767857142857" y="-9.539285714285715"/>
      <point x="315.3767857142857" y="-3.0035714285714286" type="curve" smooth="yes"/>
      <point x="318.14642857142854" y="84.69285714285714"/>
      <point x="321.14642857142854" y="172.08035714285714"/>
      <point x="324.14642857142854" y="261.54285714285714" type="curve"/>
      <point x="377.0732142857143" y="356.39642857142854"/>
      <point x="488.91964285714283" y="525.0107142857142"/>
      <point x="521.7678571428571" y="581.7839285714285" type="curve" smooth="yes"/>
      <point x="530.3053571428571" y="596.475"/>
      <point x="532.6892857142857" y="604.2410714285714"/>
      <point x="532.6892857142857" y="609.7767857142857" type="curve" smooth="yes"/>
      <point x="532.6892857142857" y="624.7714285714286"/>
      <point x="519.0785714285714" y="652.0"/>
      <point x="505.0017857142857" y="652.0" type="curve" smooth="yes"/>
      <point x="500.54107142857146" y="652.0"/>
      <point x="497.3875" y="649.3857142857142"/>
      <point x="494.38928571428573" y="643.5428571428571" type="curve" smooth="yes"/>
      <point x="480.54464285714283" y="616.9303571428571"/>
      <point x="364.075" y="420.2267857142857"/>
      <point x="303.5339285714286" y="324.68392857142857" type="curve"/>
      <point x="270.6089285714286" y="383.2214285714286"/>
      <point x="211.14107142857142" y="504.38392857142856"/>
      <point x="135.3625" y="625.8535714285714" type="curve" smooth="yes"/>
      <point x="122.51607142857142" y="649.6178571428571"/>
      <point x="82.06607142857143" y="652.0"/>
      <point x="63.151785714285715" y="652.0" type="curve" smooth="yes"/>
      <point x="46.61785714285714" y="652.0"/>
      <point x="43.003571428571426" y="649.3089285714286"/>
      <point x="43.003571428571426" y="641.6946428571429" type="curve" smooth="yes"/>
      <point x="43.003571428571426" y="636.7714285714286"/>
      <point x="50.466071428571425" y="625.3857142857142"/>
      <point x="55.23571428571429" y="617.6160714285714" type="curve" smooth="yes"/>
      <point x="75.925" y="585.3928571428571"/>
      <point x="143.925" y="489.25357142857143"/>
      <point x="257.7839285714286" y="273.925" type="curve"/>
      <point x="250.8607142857143" y="185.3125"/>
      <point x="240.32142857142858" y="28.301785714285714"/>
      <point x="240.32142857142858" y="17.455357142857142" type="curve" smooth="yes"/>
      <point x="240.32142857142858" y="-3.001785714285714"/>
      <point x="276.2339285714286" y="-13.0"/>
    </contour>
  </outline>
</glyph>
<glyph name="Z" format="2">
  <advance width="542.0714285714286"/>
  <unicode hex="005A"/>
  <anchor x="288.8464285714286" y="0.0" name="bottom"/>
  <anchor x="273.54285714285714" y="326.0" name="center"/>
  <anchor x="312.0785714285714" y="652.0" name="top"/>
  <outline>
    <contour>
      <point x="93.94107142857143" y="49.06607142857143" type="curve" smooth="yes"/>
      <point x="454.20714285714286" y="49.06607142857143" type="line" smooth="yes"/>
      <point x="458.6714285714286" y="49.06607142857143"/>
      <point x="467.2910714285714" y="68.99464285714285"/>
      <point x="467.2910714285714" y="82.775" type="curve" smooth="yes"/>
      <point x="467.2910714285714" y="89.16607142857143"/>
      <point x="465.5982142857143" y="95.16964285714286"/>
      <point x="461.51964285714286" y="95.16964285714286" type="curve" smooth="yes"/>
      <point x="455.6714285714286" y="95.16964285714286"/>
      <point x="438.5017857142857" y="82.31964285714287"/>
      <point x="207.38214285714287" y="82.31964285714287" type="curve" smooth="yes"/>
      <point x="126.89642857142857" y="82.31964285714287" type="line"/>
      <point x="136.74821428571428" y="103.09821428571429"/>
      <point x="439.05535714285713" y="522.5125"/>
      <point x="455.9839285714286" y="544.9821428571429" type="curve" smooth="yes"/>
      <point x="462.83214285714286" y="553.2928571428571"/>
      <point x="463.7553571428571" y="561.9107142857143"/>
      <point x="463.7553571428571" y="567.4517857142857" type="curve" smooth="yes"/>
      <point x="463.7553571428571" y="578.7642857142857"/>
      <point x="457.98035714285714" y="589.9339285714286"/>
      <point x="452.0517857142857" y="589.9339285714286" type="curve" smooth="yes"/>
      <point x="139.94464285714287" y="589.9339285714286" type="line" smooth="yes"/>
      <point x="132.7107142857143" y="589.9339285714286"/>
      <point x="125.9375" y="570.2357142857143"/>
      <point x="125.9375" y="553.9946428571428" type="curve" smooth="yes"/>
      <point x="125.9375" y="547.9875"/>
      <point x="126.70714285714286" y="543.8303571428571"/>
      <point x="130.78571428571428" y="543.8303571428571" type="curve" smooth="yes"/>
      <point x="142.1732142857143" y="543.8303571428571"/>
      <point x="146.41785714285714" y="557.6035714285714"/>
      <point x="341.53214285714284" y="557.6035714285714" type="curve" smooth="yes"/>
      <point x="419.7892857142857" y="557.6035714285714" type="line"/>
      <point x="362.24107142857144" y="455.7392857142857"/>
      <point x="172.4857142857143" y="200.5767857142857"/>
      <point x="89.93214285714285" y="91.24821428571428" type="curve" smooth="yes"/>
      <point x="83.16071428571428" y="82.9375"/>
      <point x="83.16071428571428" y="79.85892857142858"/>
      <point x="83.16071428571428" y="75.24107142857143" type="curve" smooth="yes"/>
      <point x="83.16071428571428" y="63.92857142857143"/>
      <point x="88.0125" y="49.06607142857143"/>
    </contour>
  </outline>
</glyph>
<glyph name="bracketleft" format="2">
  <advance width="317.8339285714286"/>
  <unicode hex="005B"/>
  <outline>
    <contour>
      <point x="82.15714285714286" y="-244.0" type="curve"/>
      <point x="265.60714285714283" y="-244.0" type="line" smooth="yes"/>
      <point x="281.9142857142857" y="-244.0"/>
      <point x="287.7607142857143" y="-225.69642857142858"/>
      <point x="287.7607142857143" y="-203.46428571428572" type="curve" smooth="yes"/>
      <point x="287.7607142857143" y="-196.54285714285714"/>
      <point x="286.8375" y="-193.3892857142857"/>
      <point x="281.8375" y="-193.3892857142857" type="curve" smooth="yes"/>
      <point x="277.68392857142857" y="-193.3892857142857"/>
      <point x="256.6089285714286" y="-197.69642857142858"/>
      <point x="149.1375" y="-200.46607142857144" type="curve"/>
      <point x="149.21428571428572" y="72.79464285714286"/>
      <point x="190.29107142857143" y="642.7678571428571"/>
      <point x="195.98392857142858" y="711.0035714285714" type="curve"/>
      <point x="284.4535714285714" y="710.0803571428571"/>
      <point x="316.4535714285714" y="706.1571428571428"/>
      <point x="320.68392857142857" y="706.1571428571428" type="curve" smooth="yes"/>
      <point x="325.8375" y="706.1571428571428"/>
      <point x="331.68392857142857" y="725.925"/>
      <point x="331.68392857142857" y="741.3089285714286" type="curve" smooth="yes"/>
      <point x="331.68392857142857" y="753.6928571428572"/>
      <point x="329.60714285714283" y="756.0"/>
      <point x="322.3" y="756.0" type="curve" smooth="yes"/>
      <point x="132.15714285714284" y="756.0" type="line"/>
      <point x="125.15714285714286" y="550.0"/>
      <point x="82.15714285714286" y="-189.0"/>
    </contour>
  </outline>
</glyph>
<glyph name="backslash" format="2">
  <advance width="522.3928571428571"/>
  <unicode hex="005C"/>
  <outline>
    <contour>
      <point x="405.01785714285717" y="-34.07678571428571" type="curve" smooth="yes"/>
      <point x="420.6303571428571" y="-34.07678571428571"/>
      <point x="448.15714285714284" y="-22.464285714285715"/>
      <point x="448.15714285714284" y="-10.698214285714286" type="curve" smooth="yes"/>
      <point x="448.15714285714284" y="-7.160714285714286"/>
      <point x="445.4660714285714" y="-0.08749999999999947"/>
      <point x="443.1589285714286" y="5.9107142857142865" type="curve" smooth="yes"/>
      <point x="349.14642857142854" y="210.475"/>
      <point x="245.99464285714285" y="446.1375"/>
      <point x="149.52142857142857" y="653.6964285714286" type="curve" smooth="yes"/>
      <point x="142.1375" y="671.1535714285715"/>
      <point x="135.83214285714286" y="675.0"/>
      <point x="123.68035714285715" y="675.0" type="curve" smooth="yes"/>
      <point x="101.83928571428571" y="675.0"/>
      <point x="80.54107142857143" y="663.1571428571428"/>
      <point x="80.54107142857143" y="651.5446428571429" type="curve" smooth="yes"/>
      <point x="80.54107142857143" y="648.0839285714286"/>
      <point x="83.23214285714286" y="641.0107142857142"/>
      <point x="85.53928571428571" y="635.0125" type="curve" smooth="yes"/>
      <point x="124.15892857142858" y="553.2357142857143"/>
      <point x="321.4767857142857" y="130.9375"/>
      <point x="379.1767857142857" y="-12.773214285714285" type="curve" smooth="yes"/>
      <point x="385.7910714285714" y="-30.15357142857143"/>
      <point x="392.86607142857144" y="-34.07678571428571"/>
    </contour>
  </outline>
</glyph>
<glyph name="bracketright" format="2">
  <advance width="337.8339285714286"/>
  <unicode hex="005D"/>
  <outline>
    <contour>
      <point x="-2.930357142857143" y="-244.0" type="curve" smooth="yes"/>
      <point x="188.1357142857143" y="-244.0" type="line"/>
      <point x="193.2892857142857" y="-51.848214285714285"/>
      <point x="238.1357142857143" y="743.4678571428572"/>
      <point x="238.1357142857143" y="756.0" type="curve"/>
      <point x="55.60892857142857" y="756.0" type="line" smooth="yes"/>
      <point x="38.378571428571426" y="756.0"/>
      <point x="32.53214285714286" y="737.6964285714286"/>
      <point x="32.53214285714286" y="715.4642857142857" type="curve" smooth="yes"/>
      <point x="32.53214285714286" y="708.5428571428571"/>
      <point x="33.455357142857146" y="705.3892857142857"/>
      <point x="38.455357142857146" y="705.3892857142857" type="curve" smooth="yes"/>
      <point x="42.60892857142857" y="705.3892857142857"/>
      <point x="63.683928571428574" y="709.6964285714286"/>
      <point x="172.07857142857142" y="711.5428571428571" type="curve"/>
      <point x="169.23214285714286" y="425.35714285714283"/>
      <point x="127.23214285714286" y="-144.61607142857142"/>
      <point x="123.38571428571429" y="-199.92678571428573" type="curve"/>
      <point x="34.91607142857143" y="-198.08035714285714"/>
      <point x="3.8392857142857144" y="-194.15714285714284"/>
      <point x="-0.3910714285714283" y="-194.15714285714284" type="curve" smooth="yes"/>
      <point x="-5.544642857142857" y="-194.15714285714284"/>
      <point x="-11.39107142857143" y="-213.925"/>
      <point x="-11.39107142857143" y="-229.30892857142857" type="curve" smooth="yes"/>
      <point x="-11.39107142857143" y="-241.69285714285715"/>
      <point x="-9.314285714285713" y="-244.0"/>
    </contour>
  </outline>
</glyph>
<glyph name="asciicircum" format="2">
  <advance width="539.2321428571429"/>
  <unicode hex="005E"/>
  <outline>
    <contour>
      <point x="101.53392857142858" y="379.30892857142857" type="curve"/>
      <point x="118.99464285714286" y="403.15535714285716"/>
      <point x="233.76785714285714" y="515.0857142857143"/>
      <point x="304.15535714285716" y="572.0125" type="curve"/>
      <point x="347.8482142857143" y="519.5482142857143"/>
      <point x="429.9267857142857" y="401.925"/>
      <point x="441.3107142857143" y="379.30892857142857" type="curve"/>
      <point x="446.9982142857143" y="383.7660714285714"/>
      <point x="468.92321428571427" y="400.76428571428573"/>
      <point x="468.92321428571427" y="414.1482142857143" type="curve" smooth="yes"/>
      <point x="468.92321428571427" y="424.3017857142857"/>
      <point x="463.3071428571429" y="440.76428571428573"/>
      <point x="458.3071428571429" y="449.07142857142856" type="curve" smooth="yes"/>
      <point x="431.84285714285716" y="492.22857142857146"/>
      <point x="361.6875" y="596.3089285714286"/>
      <point x="324.6892857142857" y="644.0017857142857" type="curve" smooth="yes"/>
      <point x="318.76785714285717" y="650.7696428571429"/>
      <point x="312.69107142857143" y="652.0"/>
      <point x="307.8464285714286" y="652.0" type="curve" smooth="yes"/>
      <point x="302.8482142857143" y="652.0"/>
      <point x="297.61785714285713" y="650.6928571428572"/>
      <point x="290.54285714285714" y="644.0017857142857" type="curve" smooth="yes"/>
      <point x="265.85535714285714" y="623.3125"/>
      <point x="102.91964285714286" y="466.06964285714287"/>
      <point x="87.68928571428572" y="441.06964285714287" type="curve" smooth="yes"/>
      <point x="82.99821428571428" y="433.225"/>
      <point x="81.075" y="425.91785714285714"/>
      <point x="81.075" y="419.0732142857143" type="curve" smooth="yes"/>
      <point x="81.075" y="401.30357142857144"/>
      <point x="95.46071428571429" y="385.6125"/>
    </contour>
  </outline>
</glyph>
<glyph name="underscore" format="2">
  <advance width="500.0"/>
  <unicode hex="005F"/>
  <outline>
    <contour>
      <point x="-18.771428571428572" y="-140.0" type="curve" smooth="yes"/>
      <point x="495.22857142857146" y="-140.0" type="line" smooth="yes"/>
      <point x="512.2285714285714" y="-140.0"/>
      <point x="518.2285714285714" y="-119.0"/>
      <point x="518.2285714285714" y="-101.0" type="curve" smooth="yes"/>
      <point x="518.2285714285714" y="-95.0"/>
      <point x="515.2285714285714" y="-93.0"/>
      <point x="510.22857142857146" y="-93.0" type="curve" smooth="yes"/>
      <point x="-3.7714285714285714" y="-93.0" type="line" smooth="yes"/>
      <point x="-20.771428571428572" y="-93.0"/>
      <point x="-26.771428571428572" y="-115.0"/>
      <point x="-26.771428571428572" y="-133.0" type="curve" smooth="yes"/>
      <point x="-26.771428571428572" y="-139.0"/>
      <point x="-23.771428571428572" y="-140.0"/>
    </contour>
  </outline>
</glyph>
<glyph name="b" format="2">
  <advance width="587.5285714285715"/>
  <unicode hex="0062"/>
  <anchor x="302.38214285714287" y="0.0" name="bottom"/>
  <anchor x="208.38392857142858" y="639.0" name="cross"/>
  <anchor x="422.91607142857146" y="524.0" name="top"/>
  <outline>
    <contour>
      <point x="311.53035714285716" y="-13.0" type="curve" smooth="yes"/>
      <point x="380.9875" y="-13.0"/>
      <point x="440.45" y="27.07857142857143"/>
      <point x="487.4482142857143" y="94.0" type="curve" smooth="yes"/>
      <point x="520.0607142857143" y="140.84285714285716"/>
      <point x="527.0625" y="263.75357142857143"/>
      <point x="527.0625" y="337.99107142857144" type="curve" smooth="yes"/>
      <point x="527.0625" y="436.15714285714284"/>
      <point x="524.2160714285715" y="476.85357142857146"/>
      <point x="518.5232142857143" y="487.2375" type="curve" smooth="yes"/>
      <point x="511.5232142857143" y="502.23214285714283"/>
      <point x="473.1482142857143" y="524.0"/>
      <point x="460.6875" y="524.0" type="curve" smooth="yes"/>
      <point x="398.45535714285717" y="524.0"/>
      <point x="237.99285714285713" y="313.2267857142857"/>
      <point x="177.44642857142858" y="174.36964285714285" type="curve"/>
      <point x="185.75535714285715" y="284.2267857142857"/>
      <point x="214.90892857142856" y="685.2357142857143"/>
      <point x="215.83214285714286" y="724.0857142857143" type="curve" smooth="yes"/>
      <point x="215.83214285714286" y="745.3875"/>
      <point x="182.07321428571427" y="756.0"/>
      <point x="156.46607142857144" y="756.0" type="curve" smooth="yes"/>
      <point x="147.08392857142857" y="756.0"/>
      <point x="145.62321428571428" y="752.6160714285714"/>
      <point x="145.62321428571428" y="746.5410714285714" type="curve" smooth="yes"/>
      <point x="141.93035714285713" y="602.5982142857143"/>
      <point x="115.08571428571429" y="201.62142857142857"/>
      <point x="105.85357142857143" y="53.996428571428574" type="curve"/>
      <point x="100.85357142857143" y="53.996428571428574"/>
      <point x="93.54642857142858" y="40.30535714285714"/>
      <point x="93.54642857142858" y="21.614285714285714" type="curve" smooth="yes"/>
      <point x="93.54642857142858" y="16.076785714285716"/>
      <point x="96.54642857142858" y="15.076785714285714"/>
      <point x="97.85357142857143" y="15.0" type="curve" smooth="yes"/>
      <point x="179.84285714285716" y="-1.5375"/>
      <point x="280.23035714285714" y="-13.0"/>
    </contour>
    <contour>
      <point x="341.77142857142854" y="31.919642857142858" type="curve" smooth="yes"/>
      <point x="305.38392857142856" y="31.919642857142858"/>
      <point x="251.225" y="36.68928571428572"/>
      <point x="172.36964285714285" y="52.84464285714286" type="curve"/>
      <point x="204.68214285714285" y="194.45892857142857"/>
      <point x="406.4660714285714" y="460.1714285714286"/>
      <point x="438.2375" y="460.1714285714286" type="curve" smooth="yes"/>
      <point x="457.31607142857143" y="460.1714285714286"/>
      <point x="458.46964285714284" y="430.2446428571429"/>
      <point x="458.46964285714284" y="336.7" type="curve" smooth="yes"/>
      <point x="458.46964285714284" y="141.9232142857143"/>
      <point x="414.3125" y="31.919642857142858"/>
    </contour>
  </outline>
</glyph>
<glyph name="c" format="2">
  <advance width="446.925"/>
  <unicode hex="0063"/>
  <anchor x="230.5375" y="0.0" name="bottom"/>
  <anchor x="285.3071428571429" y="524.0" name="top"/>
  <outline>
    <contour>
      <point x="239.30357142857142" y="-13.0" type="curve" smooth="yes"/>
      <point x="310.92321428571427" y="-13.0"/>
      <point x="367.8464285714286" y="15.232142857142858"/>
      <point x="410.4625" y="60.3875" type="curve" smooth="yes"/>
      <point x="416.6928571428571" y="66.54107142857143"/>
      <point x="417.8464285714286" y="69.77142857142857"/>
      <point x="417.8464285714286" y="76.23214285714286" type="curve" smooth="yes"/>
      <point x="417.8464285714286" y="88.69285714285714"/>
      <point x="412.0" y="103.15357142857142"/>
      <point x="405.76964285714286" y="103.15357142857142" type="curve" smooth="yes"/>
      <point x="401.76964285714286" y="103.15357142857142"/>
      <point x="399.61607142857144" y="100.23035714285714"/>
      <point x="386.76964285714286" y="88.84464285714286" type="curve" smooth="yes"/>
      <point x="366.38392857142856" y="70.91964285714286"/>
      <point x="320.30535714285713" y="34.37678571428572"/>
      <point x="262.4535714285714" y="34.37678571428572" type="curve" smooth="yes"/>
      <point x="175.21785714285716" y="34.37678571428572"/>
      <point x="133.6" y="111.76964285714286"/>
      <point x="133.6" y="225.54107142857143" type="curve" smooth="yes"/>
      <point x="133.6" y="385.3875"/>
      <point x="194.21964285714284" y="484.46964285714284"/>
      <point x="261.3017857142857" y="484.46964285714284" type="curve" smooth="yes"/>
      <point x="303.45714285714286" y="484.46964285714284"/>
      <point x="333.2267857142857" y="472.70178571428573"/>
      <point x="365.45892857142854" y="436.775" type="curve" smooth="yes"/>
      <point x="374.30535714285713" y="427.3125"/>
      <point x="378.5357142857143" y="423.4660714285714"/>
      <point x="386.45892857142854" y="423.4660714285714" type="curve" smooth="yes"/>
      <point x="396.2267857142857" y="423.4660714285714"/>
      <point x="404.0732142857143" y="447.76964285714286"/>
      <point x="404.0732142857143" y="464.0" type="curve" smooth="yes"/>
      <point x="404.0732142857143" y="472.6142857142857"/>
      <point x="400.0732142857143" y="480.9982142857143"/>
      <point x="389.5357142857143" y="489.84464285714284" type="curve" smooth="yes"/>
      <point x="361.38214285714287" y="513.8464285714285"/>
      <point x="331.23035714285714" y="524.0"/>
      <point x="270.4607142857143" y="524.0" type="curve" smooth="yes"/>
      <point x="175.31428571428572" y="524.0"/>
      <point x="60.85" y="449.30892857142857"/>
      <point x="60.85" y="221.76964285714286" type="curve" smooth="yes"/>
      <point x="60.85" y="49.544642857142854"/>
      <point x="139.61428571428573" y="-13.0"/>
    </contour>
  </outline>
</glyph>
<glyph name="d" format="2">
  <advance width="648.5321428571428"/>
  <unicode hex="0064"/>
  <anchor x="303.0" y="0.0" name="bottom"/>
  <anchor x="323.0" y="262.0" name="center"/>
  <anchor x="481.22857142857146" y="639.0" name="cross"/>
  <anchor x="247.7017857142857" y="526.5339285714285" name="top"/>
  <anchor x="638.9982142857143" y="627.0053571428572" name="topright"/>
  <outline>
    <contour>
      <point x="144.53392857142856" y="-13.0" type="curve" smooth="yes"/>
      <point x="206.76607142857142" y="-13.0"/>
      <point x="378.30892857142857" y="206.16071428571428"/>
      <point x="446.00892857142856" y="344.94107142857143" type="curve"/>
      <point x="440.31607142857143" y="257.2392857142857"/>
      <point x="433.6232142857143" y="122.76607142857142"/>
      <point x="433.6232142857143" y="66.7625" type="curve" smooth="yes"/>
      <point x="433.6232142857143" y="44.37678571428572"/>
      <point x="433.7" y="30.45357142857143"/>
      <point x="436.6232142857143" y="23.7625" type="curve" smooth="yes"/>
      <point x="441.7767857142857" y="9.691071428571428"/>
      <point x="481.075" y="-13.0"/>
      <point x="492.6125" y="-13.0" type="curve" smooth="yes"/>
      <point x="534.7660714285714" y="-13.0"/>
      <point x="620.6875" y="89.22857142857143"/>
      <point x="652.8428571428572" y="131.4607142857143" type="curve" smooth="yes"/>
      <point x="655.2267857142857" y="134.075"/>
      <point x="656.4571428571429" y="137.6125"/>
      <point x="656.4571428571429" y="142.99642857142857" type="curve" smooth="yes"/>
      <point x="656.4571428571429" y="156.53392857142856"/>
      <point x="645.9196428571429" y="173.1482142857143"/>
      <point x="642.3053571428571" y="173.1482142857143" type="curve" smooth="yes"/>
      <point x="638.3053571428571" y="173.1482142857143"/>
      <point x="637.2285714285714" y="170.225"/>
      <point x="633.9982142857143" y="166.84107142857144" type="curve"/>
      <point x="614.0732142857142" y="140.3"/>
      <point x="536.9107142857143" y="51.675"/>
      <point x="518.7553571428572" y="51.675" type="curve" smooth="yes"/>
      <point x="507.0625" y="51.675"/>
      <point x="503.13928571428573" y="57.598214285714285"/>
      <point x="503.13928571428573" y="99.51964285714286" type="curve" smooth="yes"/>
      <point x="503.13928571428573" y="238.99642857142857"/>
      <point x="518.6785714285714" y="448.9267857142857"/>
      <point x="518.6785714285714" y="457.9267857142857" type="curve"/>
      <point x="523.7553571428572" y="457.9267857142857"/>
      <point x="531.0625" y="470.69464285714287"/>
      <point x="531.0625" y="489.3857142857143" type="curve" smooth="yes"/>
      <point x="531.0625" y="494.92321428571427"/>
      <point x="528.9857142857143" y="496.92321428571427"/>
      <point x="526.7553571428572" y="496.92321428571427" type="curve" smooth="yes"/>
      <point x="522.7553571428572" y="496.92321428571427" type="line"/>
      <point x="531.0642857142857" y="622.1714285714286"/>
      <point x="537.6017857142857" y="705.1607142857143"/>
      <point x="537.6017857142857" y="724.0857142857143" type="curve" smooth="yes"/>
      <point x="537.6017857142857" y="745.3875"/>
      <point x="504.7660714285714" y="756.0"/>
      <point x="478.3125" y="756.0" type="curve" smooth="yes"/>
      <point x="469.7767857142857" y="756.0"/>
      <point x="467.46964285714284" y="752.6160714285714"/>
      <point x="467.46964285714284" y="746.5410714285714" type="curve" smooth="yes"/>
      <point x="466.5464285714286" y="660.2982142857143"/>
      <point x="464.39285714285717" y="605.9160714285714"/>
      <point x="457.1625" y="508.9982142857143" type="curve"/>
      <point x="394.85" y="518.3071428571428"/>
      <point x="334.38392857142856" y="524.0"/>
      <point x="318.61785714285713" y="524.0" type="curve" smooth="yes"/>
      <point x="249.00714285714287" y="524.0"/>
      <point x="187.54464285714286" y="483.8464285714286"/>
      <point x="138.62142857142857" y="417.0" type="curve" smooth="yes"/>
      <point x="87.62142857142857" y="348.0"/>
      <point x="84.62142857142857" y="141.0767857142857"/>
      <point x="84.62142857142857" y="66.7625" type="curve" smooth="yes"/>
      <point x="84.62142857142857" y="44.37678571428572"/>
      <point x="85.62142857142857" y="30.45357142857143"/>
      <point x="88.54464285714286" y="23.7625" type="curve" smooth="yes"/>
      <point x="93.69821428571429" y="9.691071428571428"/>
      <point x="132.99642857142857" y="-13.0"/>
    </contour>
    <contour>
      <point x="169.75357142857143" y="51.598214285714285" type="curve" smooth="yes"/>
      <point x="158.06071428571428" y="51.598214285714285"/>
      <point x="154.1375" y="57.52142857142857"/>
      <point x="154.1375" y="99.36607142857143" type="curve" smooth="yes"/>
      <point x="154.1375" y="341.2267857142857"/>
      <point x="205.68035714285713" y="478.9267857142857"/>
      <point x="286.53035714285716" y="478.9267857142857" type="curve" smooth="yes"/>
      <point x="322.91785714285714" y="478.9267857142857"/>
      <point x="377.07678571428573" y="474.15714285714284"/>
      <point x="455.00892857142856" y="458.925" type="curve"/>
      <point x="416.2339285714286" y="317.3107142857143"/>
      <point x="201.525" y="51.598214285714285"/>
    </contour>
  </outline>
</glyph>
<glyph name="e" format="2">
  <advance width="467.3803571428571"/>
  <unicode hex="0065"/>
  <anchor x="233.76964285714286" y="0.0" name="bottom"/>
  <anchor x="370.76964285714286" y="0.0" name="ogonek"/>
  <anchor x="298.76964285714286" y="524.0" name="top"/>
  <outline>
    <contour>
      <point x="242.07321428571427" y="-13.0" type="curve" smooth="yes"/>
      <point x="315.075" y="-13.0"/>
      <point x="373.15" y="16.0"/>
      <point x="416.2267857142857" y="61.84642857142857" type="curve" smooth="yes"/>
      <point x="422.6875" y="68.30714285714286"/>
      <point x="423.8410714285714" y="71.84464285714286"/>
      <point x="423.8410714285714" y="77.84464285714286" type="curve" smooth="yes"/>
      <point x="423.8410714285714" y="90.68928571428572"/>
      <point x="417.9946428571429" y="104.99642857142857"/>
      <point x="411.76428571428573" y="104.99642857142857" type="curve" smooth="yes"/>
      <point x="407.76428571428573" y="104.99642857142857"/>
      <point x="405.3803571428571" y="101.91964285714286"/>
      <point x="392.61071428571427" y="90.38035714285715" type="curve" smooth="yes"/>
      <point x="371.30357142857144" y="71.6875"/>
      <point x="320.37857142857143" y="34.37678571428572"/>
      <point x="261.9125" y="34.37678571428572" type="curve" smooth="yes"/>
      <point x="173.21607142857144" y="34.37678571428572"/>
      <point x="134.5232142857143" y="111.30892857142857"/>
      <point x="134.5232142857143" y="225.46428571428572" type="curve" smooth="yes"/>
      <point x="134.5232142857143" y="243.7732142857143"/>
      <point x="134.5232142857143" y="271.3910714285714"/>
      <point x="136.36964285714285" y="278.6982142857143" type="curve"/>
      <point x="161.14107142857142" y="273.1589285714286"/>
      <point x="198.8375" y="268.54285714285714"/>
      <point x="238.38035714285715" y="268.54285714285714" type="curve" smooth="yes"/>
      <point x="321.99285714285713" y="268.54285714285714"/>
      <point x="424.5285714285714" y="309.00357142857143"/>
      <point x="424.5285714285714" y="411.4642857142857" type="curve" smooth="yes"/>
      <point x="424.5285714285714" y="473.1517857142857"/>
      <point x="384.45535714285717" y="524.0"/>
      <point x="282.4625" y="524.0" type="curve" smooth="yes"/>
      <point x="168.00535714285715" y="524.0"/>
      <point x="63.61964285714286" y="449.30892857142857"/>
      <point x="63.61964285714286" y="221.76964285714286" type="curve" smooth="yes"/>
      <point x="63.61964285714286" y="49.160714285714285"/>
      <point x="142.76785714285714" y="-13.0"/>
    </contour>
    <contour>
      <point x="236.30357142857142" y="308.54107142857146" type="curve" smooth="yes"/>
      <point x="192.68392857142857" y="308.3875"/>
      <point x="151.4482142857143" y="322.23571428571427"/>
      <point x="146.6017857142857" y="329.62142857142857" type="curve"/>
      <point x="164.52678571428572" y="439.77142857142854"/>
      <point x="215.60714285714286" y="489.08214285714286"/>
      <point x="272.3803571428571" y="489.08214285714286" type="curve" smooth="yes"/>
      <point x="328.30892857142857" y="489.08214285714286"/>
      <point x="352.54107142857146" y="454.3107142857143"/>
      <point x="352.54107142857146" y="414.8482142857143" type="curve" smooth="yes"/>
      <point x="352.54107142857146" y="345.4660714285714"/>
      <point x="310.15535714285716" y="308.925"/>
    </contour>
  </outline>
</glyph>
<glyph name="f" format="2">
  <advance width="311.5267857142857"/>
  <unicode hex="0066"/>
  <anchor x="153.0" y="0.0" name="bottom"/>
  <anchor x="195.92857142857142" y="654.6107142857143" name="top"/>
  <outline>
    <contour>
      <point x="23.15" y="-244.0" type="curve" smooth="yes"/>
      <point x="57.455357142857146" y="-244.0"/>
      <point x="101.3" y="-225.30714285714285"/>
      <point x="139.14464285714286" y="-189.61607142857142" type="curve" smooth="yes"/>
      <point x="177.14285714285714" y="-153.77142857142857"/>
      <point x="205.9875" y="-96.08214285714286"/>
      <point x="206.29464285714286" y="-20.85892857142857" type="curve" smooth="yes"/>
      <point x="207.1392857142857" y="450.08214285714286" type="line"/>
      <point x="396.925" y="450.08214285714286" type="line" smooth="yes"/>
      <point x="412.8482142857143" y="450.08214285714286"/>
      <point x="420.15535714285716" y="471.1589285714286"/>
      <point x="420.15535714285716" y="489.61785714285713" type="curve" smooth="yes"/>
      <point x="420.15535714285716" y="496.92321428571427"/>
      <point x="417.15535714285716" y="499.0"/>
      <point x="411.77142857142854" y="499.0" type="curve" smooth="yes"/>
      <point x="207.0625" y="499.0" type="line"/>
      <point x="209.83214285714286" y="568.3125" type="line" smooth="yes"/>
      <point x="213.525" y="666.1571428571428"/>
      <point x="245.83392857142857" y="700.6982142857142"/>
      <point x="295.45178571428573" y="700.6982142857142" type="curve" smooth="yes"/>
      <point x="353.7660714285714" y="700.6982142857142"/>
      <point x="399.77142857142854" y="684.9267857142858"/>
      <point x="406.0785714285714" y="683.0035714285714" type="curve" smooth="yes"/>
      <point x="409.4625" y="682.0035714285714"/>
      <point x="421.77142857142854" y="676.3875"/>
      <point x="426.61785714285713" y="676.3875" type="curve" smooth="yes"/>
      <point x="432.925" y="676.3875"/>
      <point x="437.23214285714283" y="689.6946428571429"/>
      <point x="437.23214285714283" y="702.0017857142857" type="curve" smooth="yes"/>
      <point x="437.23214285714283" y="709.3071428571428"/>
      <point x="436.0017857142857" y="714.3053571428571"/>
      <point x="430.2339285714286" y="718.6125" type="curve" smooth="yes"/>
      <point x="406.0017857142857" y="734.9214285714286"/>
      <point x="355.76964285714286" y="756.0"/>
      <point x="313.3857142857143" y="756.0" type="curve" smooth="yes"/>
      <point x="271.77142857142854" y="756.0"/>
      <point x="231.775" y="737.1517857142857"/>
      <point x="195.39285714285714" y="703.0767857142857" type="curve" smooth="yes"/>
      <point x="150.77857142857144" y="661.6928571428572"/>
      <point x="130.85357142857143" y="605.0017857142857"/>
      <point x="130.85357142857143" y="506.30357142857144" type="curve" smooth="yes"/>
      <point x="130.85357142857143" y="499.0" type="line"/>
      <point x="59.3875" y="499.0" type="line" smooth="yes"/>
      <point x="43.464285714285715" y="499.0"/>
      <point x="37.080357142857146" y="477.92321428571427"/>
      <point x="37.080357142857146" y="459.4642857142857" type="curve" smooth="yes"/>
      <point x="37.080357142857146" y="451.23571428571427"/>
      <point x="39.15714285714286" y="450.08214285714286"/>
      <point x="44.54107142857143" y="450.08214285714286" type="curve" smooth="yes"/>
      <point x="135.85357142857143" y="450.08214285714286" type="line"/>
      <point x="135.85357142857143" y="48.13928571428571" type="line" smooth="yes"/>
      <point x="135.85357142857143" y="-162.93392857142857"/>
      <point x="103.31071428571428" y="-189.775"/>
      <point x="22.771428571428572" y="-189.775" type="curve" smooth="yes"/>
      <point x="-42.544642857142854" y="-189.775"/>
      <point x="-125.78571428571428" y="-160.07857142857142"/>
      <point x="-157.09642857142856" y="-147.0" type="curve" smooth="yes"/>
      <point x="-163.1732142857143" y="-145.0767857142857"/>
      <point x="-170.01964285714286" y="-141.30714285714285"/>
      <point x="-172.09642857142856" y="-141.30714285714285" type="curve" smooth="yes"/>
      <point x="-175.63392857142858" y="-141.30714285714285"/>
      <point x="-179.94107142857143" y="-147.075"/>
      <point x="-179.94107142857143" y="-165.38214285714287" type="curve" smooth="yes"/>
      <point x="-179.94107142857143" y="-176.2267857142857"/>
      <point x="-176.01785714285714" y="-187.84107142857144"/>
      <point x="-168.86607142857142" y="-192.225" type="curve" smooth="yes"/>
      <point x="-156.09821428571428" y="-201.225"/>
      <point x="-61.24285714285714" y="-244.0"/>
    </contour>
  </outline>
</glyph>
